<?xml version="1.0" encoding="UTF-8" standalone="no"?>
<!-- Generator: Adobe Illustrator 21.0.2, SVG Export Plug-In . SVG Version: 6.00 Build 0)  -->

<svg
   version="1.1"
   id="Layer_1"
   x="0px"
   y="0px"
   viewBox="0 0 225 175.5"
   xml:space="preserve"
   width="225"
   height="175.5"
   xmlns="http://www.w3.org/2000/svg"
   xmlns:svg="http://www.w3.org/2000/svg"><defs
   id="defs81">
	
	
	
	
	
	
	
	
	
	
</defs>
<style
   type="text/css"
   id="style2">
	.st0{fill:#2F86AF;}
	.st1{fill:#414042;}
	.st2{fill:#808285;}
	.st3{fill:#2098A1;}
	.st4{fill:#F9C631;}
	.st5{fill:#D43D44;}
	.st6{fill:#D7B967;}
	.st7{fill:#35BED7;}
	.st8{fill:#32BCAD;}
</style>
<path
   class="st5"
   d="m 112.5,70.2 88,21.8 C 215.8,86 225,78.4 225,70.2 V 35.1 C 225,15.7 174.6,0 112.5,0 50.3,0 0,15.7 0,35.1 v 35.1 c 0,19.4 50.3,35.1 112.5,35.1 z"
   id="path52" /><path
   class="st5"
   d="m 200.4,127.2 -88,-21.9 v 35.1 l 88,21.9 c 15.3,-6 24.5,-13.6 24.5,-21.9 v -35.1 c 0.1,8.3 -9.1,15.9 -24.5,21.9"
   id="path54" /><path
   class="st5"
   d="m 0,105.3 v 35.1 c 0,19.4 50.3,35.1 112.5,35.1 V 140.4 C 50.3,140.5 0,124.7 0,105.3"
   id="path56" />
</svg>
