<?xml version="1.0" encoding="UTF-8" standalone="no"?>
<!-- Created with Inkscape (http://www.inkscape.org/) -->

<svg
   id="svg2816"
   version="1.1"
   width="269.18411"
   height="177.47925"
   xml:space="preserve"
   xmlns="http://www.w3.org/2000/svg"
   xmlns:svg="http://www.w3.org/2000/svg"
   xmlns:rdf="http://www.w3.org/1999/02/22-rdf-syntax-ns#"
   xmlns:cc="http://creativecommons.org/ns#"
   xmlns:dc="http://purl.org/dc/elements/1.1/"><metadata
     id="metadata2822"><rdf:RDF><cc:Work
         rdf:about=""><dc:format>image/svg+xml</dc:format><dc:type
           rdf:resource="http://purl.org/dc/dcmitype/StillImage" /></cc:Work></rdf:RDF></metadata><defs
     id="defs2820"><clipPath
       clipPathUnits="userSpaceOnUse"
       id="clipPath2832"><path
         d="M 0,792 H 612 V 0 H 0 Z"
         id="path2834" /></clipPath><clipPath
       clipPathUnits="userSpaceOnUse"
       id="clipPath2844"><path
         d="M 0,792 H 612 V 0 H 0 Z"
         id="path2846" /></clipPath><clipPath
       clipPathUnits="userSpaceOnUse"
       id="clipPath2852"><path
         d="M 96.0078,715.93 H 184.298 V 653.754 H 96.0078 Z"
         id="path2854" /></clipPath><clipPath
       clipPathUnits="userSpaceOnUse"
       id="clipPath2868"><path
         d="M 0,792 H 612 V 0 H 0 Z"
         id="path2870" /></clipPath><clipPath
       clipPathUnits="userSpaceOnUse"
       id="clipPath2880"><path
         d="M 0,792 H 612 V 0 H 0 Z"
         id="path2882" /></clipPath><clipPath
       clipPathUnits="userSpaceOnUse"
       id="clipPath2908"><path
         d="M 0,792 H 612 V 0 H 0 Z"
         id="path2910" /></clipPath><clipPath
       clipPathUnits="userSpaceOnUse"
       id="clipPath2936"><path
         d="M 0,792 H 612 V 0 H 0 Z"
         id="path2938" /></clipPath><clipPath
       clipPathUnits="userSpaceOnUse"
       id="clipPath2944"><path
         d="m 121.202,708.378 h 45.899 v -45.859 h -45.899 z"
         id="path2946" /></clipPath><clipPath
       clipPathUnits="userSpaceOnUse"
       id="clipPath2960"><path
         d="M 0,792 H 612 V 0 H 0 Z"
         id="path2962" /></clipPath><clipPath
       clipPathUnits="userSpaceOnUse"
       id="clipPath2968"><path
         d="M 40.4033,726.188 H 252.805 V 664.37 H 40.4033 Z"
         id="path2970" /></clipPath><clipPath
       clipPathUnits="userSpaceOnUse"
       id="clipPath2988"><path
         d="M 0,792 H 612 V 0 H 0 Z"
         id="path2990" /></clipPath><clipPath
       clipPathUnits="userSpaceOnUse"
       id="clipPath2996"><path
         d="M 39.5195,688.644 H 238.9 V 614.826 H 39.5195 Z"
         id="path2998" /></clipPath><clipPath
       clipPathUnits="userSpaceOnUse"
       id="clipPath3016"><path
         d="M 0,792 H 612 V 0 H 0 Z"
         id="path3018" /></clipPath><clipPath
       clipPathUnits="userSpaceOnUse"
       id="clipPath3064"><path
         d="M 0,792 H 612 V 0 H 0 Z"
         id="path3066" /></clipPath><clipPath
       clipPathUnits="userSpaceOnUse"
       id="clipPath3072"><path
         d="M 370.634,245.02 H 506.207 V 177.18 H 370.634 Z"
         id="path3074" /></clipPath><clipPath
       clipPathUnits="userSpaceOnUse"
       id="clipPath3088"><path
         d="m 391.275,242.356 h 88.29 V 180.18 h -88.29 z"
         id="path3090" /></clipPath><clipPath
       clipPathUnits="userSpaceOnUse"
       id="clipPath3108"><path
         d="m 399.869,242.396 h 71.565 v -54.053 h -71.565 z"
         id="path3110" /></clipPath><clipPath
       clipPathUnits="userSpaceOnUse"
       id="clipPath3160"><path
         d="m 416.469,234.804 h 45.899 v -45.86 h -45.899 z"
         id="path3162" /></clipPath><clipPath
       clipPathUnits="userSpaceOnUse"
       id="clipPath3176"><path
         d="M 335.67,252.615 H 548.072 V 190.797 H 335.67 Z"
         id="path3178" /></clipPath><clipPath
       clipPathUnits="userSpaceOnUse"
       id="clipPath3196"><path
         d="m 334.787,215.069 h 199.38 v -73.817 h -199.38 z"
         id="path3198" /></clipPath><clipPath
       clipPathUnits="userSpaceOnUse"
       id="clipPath3254"><path
         d="M 0,792 H 612 V 0 H 0 Z"
         id="path3256" /></clipPath><clipPath
       clipPathUnits="userSpaceOnUse"
       id="clipPath3262"><path
         d="M 72.9634,245.578 H 208.538 v -67.84 H 72.9634 Z"
         id="path3264" /></clipPath><clipPath
       clipPathUnits="userSpaceOnUse"
       id="clipPath3278"><path
         d="m 93.605,242.915 h 88.291 V 180.738 H 93.605 Z"
         id="path3280" /></clipPath><clipPath
       clipPathUnits="userSpaceOnUse"
       id="clipPath3298"><path
         d="m 102.2,242.955 h 71.564 V 188.901 H 102.2 Z"
         id="path3300" /></clipPath><clipPath
       clipPathUnits="userSpaceOnUse"
       id="clipPath3350"><path
         d="m 118.799,235.362 h 45.899 v -45.859 h -45.899 z"
         id="path3352" /></clipPath><clipPath
       clipPathUnits="userSpaceOnUse"
       id="clipPath3366"><path
         d="M 38,253.173 H 250.402 V 191.354 H 38 Z"
         id="path3368" /></clipPath><clipPath
       clipPathUnits="userSpaceOnUse"
       id="clipPath3386"><path
         d="M 37.1172,215.627 H 236.497 V 141.809 H 37.1172 Z"
         id="path3388" /></clipPath><clipPath
       clipPathUnits="userSpaceOnUse"
       id="clipPath3444"><path
         d="M 0,792 H 612 V 0 H 0 Z"
         id="path3446" /></clipPath><clipPath
       clipPathUnits="userSpaceOnUse"
       id="clipPath3456"><path
         d="m 392.311,509.202 h 88.29 v -62.177 h -88.29 z"
         id="path3458" /></clipPath><clipPath
       clipPathUnits="userSpaceOnUse"
       id="clipPath3516"><path
         d="m 417.504,501.65 h 45.899 v -45.859 h -45.899 z"
         id="path3518" /></clipPath><clipPath
       clipPathUnits="userSpaceOnUse"
       id="clipPath3532"><path
         d="M 336.705,519.46 H 549.107 V 457.642 H 336.705 Z"
         id="path3534" /></clipPath><clipPath
       clipPathUnits="userSpaceOnUse"
       id="clipPath3552"><path
         d="m 335.822,481.915 h 199.38 v -73.819 h -199.38 z"
         id="path3554" /></clipPath><clipPath
       clipPathUnits="userSpaceOnUse"
       id="clipPath3608"><path
         d="M 0,792 H 612 V 0 H 0 Z"
         id="path3610" /></clipPath><clipPath
       clipPathUnits="userSpaceOnUse"
       id="clipPath3620"><path
         d="m 92.647,502.285 h 88.29 v -62.176 h -88.29 z"
         id="path3622" /></clipPath><clipPath
       clipPathUnits="userSpaceOnUse"
       id="clipPath3680"><path
         d="M 117.841,494.733 H 163.74 V 448.874 H 117.841 Z"
         id="path3682" /></clipPath><clipPath
       clipPathUnits="userSpaceOnUse"
       id="clipPath3696"><path
         d="M 37.0425,512.543 H 249.444 V 450.725 H 37.0425 Z"
         id="path3698" /></clipPath><clipPath
       clipPathUnits="userSpaceOnUse"
       id="clipPath3716"><path
         d="M 36.1587,474.999 H 235.539 V 401.181 H 36.1587 Z"
         id="path3718" /></clipPath></defs><g
     id="g2826"
     transform="matrix(1.25,0,0,-1.25,-438.0459,652.52513)"
     style="display:inline" /><g
     id="layer1"
     style="display:inline"
     transform="translate(-438.0459,-337.47487)"><g
   transform="matrix(1.25,0,0,-1.25,19.117647,990)"
   id="g4514"><g
     transform="translate(357.793,402.4087)"
     id="g3568"><path
       id="path3570"
       style="fill:#ffffff;fill-opacity:1;fill-rule:nonzero;stroke:none"
       d="m 0,0 c 1.824,0 3.553,-0.432 4.417,-1.297 0.144,-1.344 -1.056,-3.504 -1.824,-3.504 -0.912,0.336 -1.777,0.528 -2.833,0.528 -4.367,0 -6.528,-4.513 -6.528,-8.977 0,-2.784 0.959,-4.465 3.168,-4.465 2.352,0 4.752,1.584 6.096,2.785 0.336,-0.24 0.769,-1.008 0.769,-1.873 0,-0.959 -0.288,-1.871 -1.152,-2.737 -1.537,-1.535 -4.129,-2.832 -7.873,-2.832 -4.32,0 -7.297,2.45 -7.297,8.163 0,7.488 4.945,14.209 13.01,14.209 z" /></g><g
     transform="translate(371.9043,384.9336)"
     id="g3572"><path
       id="path3574"
       style="fill:#ffffff;fill-opacity:1;fill-rule:nonzero;stroke:none"
       d="m 0,0 c 2.352,0 6.625,4.129 7.824,12.002 0.049,0.481 0.097,0.623 0.193,1.104 -0.529,0.191 -1.248,0.336 -1.968,0.336 -1.777,0 -3.601,-0.527 -5.233,-2.736 -1.68,-2.352 -2.4,-5.28 -2.4,-7.634 C -1.584,1.057 -1.008,0 -0.048,0 Z m -7.729,2.16 c 0,2.832 0.96,7.778 4.561,11.378 3.072,3.168 6.816,3.937 10.225,3.937 2.256,0 5.328,-0.721 7.248,-1.105 C 13.825,14.258 12.673,6.289 12.145,1.682 11.904,-0.287 11.809,-3.023 11.904,-4.031 10.32,-4.703 7.345,-4.896 6.528,-4.896 6.097,-4.896 6,-2.928 6.145,-1.055 6.192,-0.432 6.289,0.48 6.336,0.865 4.465,-2.256 0.768,-4.896 -3.12,-4.896 c -2.784,0 -4.609,2.304 -4.609,7.009 z" /></g><g
     transform="translate(398.1602,402.4087)"
     id="g3576"><path
       id="path3578"
       style="fill:#ffffff;fill-opacity:1;fill-rule:nonzero;stroke:none"
       d="M 0,0 C 1.969,0 3.84,-0.721 4.705,-1.633 4.656,-2.977 3.601,-5.232 1.92,-4.609 c -0.72,0.24 -1.44,0.431 -2.4,0.431 -1.295,0 -2.4,-0.576 -2.4,-1.775 0,-0.912 0.672,-1.585 3.888,-3.84 2.305,-1.68 3.217,-3.168 3.217,-5.282 0,-3.504 -3.313,-7.297 -9.073,-7.297 -2.352,0 -4.417,0.913 -5.089,1.873 -0.864,1.44 -0.192,4.272 0.769,3.793 1.248,-0.625 3.312,-1.296 4.992,-1.296 1.584,0 2.592,0.72 2.592,1.679 0,0.817 -0.721,1.537 -3.648,3.602 -2.449,1.822 -3.217,3.504 -3.217,5.424 0,3.984 3.409,7.297 8.401,7.297 z" /></g><g
     transform="translate(414.7188,402.4087)"
     id="g3580"><path
       id="path3582"
       style="fill:#ffffff;fill-opacity:1;fill-rule:nonzero;stroke:none"
       d="M 0,0 C 1.969,0 3.842,-0.721 4.705,-1.633 4.658,-2.977 3.602,-5.232 1.922,-4.609 c -0.721,0.24 -1.442,0.431 -2.401,0.431 -1.296,0 -2.4,-0.576 -2.4,-1.775 0,-0.912 0.672,-1.585 3.889,-3.84 2.303,-1.68 3.215,-3.168 3.215,-5.282 0,-3.504 -3.313,-7.297 -9.073,-7.297 -2.351,0 -4.416,0.913 -5.088,1.873 -0.864,1.44 -0.192,4.272 0.768,3.793 1.248,-0.625 3.313,-1.296 4.992,-1.296 1.584,0 2.592,0.72 2.592,1.679 0,0.817 -0.719,1.537 -3.647,3.602 -2.449,1.822 -3.216,3.504 -3.216,5.424 0,3.984 3.408,7.297 8.4,7.297 z" /></g><g
     transform="translate(429.8379,384.9336)"
     id="g3584"><path
       id="path3586"
       style="fill:#ffffff;fill-opacity:1;fill-rule:nonzero;stroke:none"
       d="m 0,0 c 2.354,0 6.625,4.129 7.826,12.002 0.047,0.481 0.096,0.623 0.192,1.104 -0.528,0.191 -1.248,0.336 -1.969,0.336 -1.776,0 -3.6,-0.527 -5.233,-2.736 -1.679,-2.352 -2.4,-5.28 -2.4,-7.634 C -1.584,1.057 -1.008,0 -0.047,0 Z m -7.729,2.16 c 0,2.832 0.961,7.778 4.561,11.378 3.072,3.168 6.816,3.937 10.225,3.937 2.257,0 5.33,-0.721 7.25,-1.105 -0.481,-2.112 -1.633,-10.081 -2.161,-14.688 -0.24,-1.969 -0.335,-4.705 -0.24,-5.713 -1.584,-0.672 -4.56,-0.865 -5.377,-0.865 -0.431,0 -0.527,1.968 -0.384,3.841 0.048,0.623 0.144,1.535 0.193,1.92 -1.873,-3.121 -5.568,-5.761 -9.457,-5.761 -2.785,0 -4.61,2.304 -4.61,7.009 z" /></g><g
     transform="translate(454.9902,396.1685)"
     id="g3588"><path
       id="path3590"
       style="fill:#ffffff;fill-opacity:1;fill-rule:nonzero;stroke:none"
       d="m 0,0 c 2.209,3.551 5.088,6.24 9.121,6.24 3.408,0 4.512,-3.168 3.889,-7.682 -0.336,-2.111 -0.912,-5.137 -1.297,-7.92 -0.336,-2.353 -0.576,-4.465 -0.527,-5.904 -1.248,-0.625 -4.897,-0.865 -5.713,-0.865 -0.336,0 -0.385,2.64 0.048,5.425 0.383,2.303 1.2,6.481 1.584,8.881 0.241,1.391 0.192,3.073 -1.152,3.073 -1.777,0 -6,-2.834 -8.113,-14.45 -0.145,-0.961 -0.528,-1.537 -1.057,-1.873 -0.719,-0.431 -2.256,-0.816 -5.375,-0.863 0.576,2.928 1.488,8.928 2.16,13.344 0.623,4.033 0.864,6.625 0.719,7.633 0.817,0.289 5.09,1.201 5.568,1.201 C 0.385,6.24 0.48,4.752 0,1.15 -0.047,0.814 -0.096,0.287 -0.145,0 Z" /></g><g
     transform="translate(479.375,384.9824)"
     id="g3592"><path
       id="path3594"
       style="fill:#ffffff;fill-opacity:1;fill-rule:nonzero;stroke:none"
       d="m 0,0 c 2.111,0 6.385,3.936 7.584,10.897 0.049,0.385 0.193,1.103 0.289,1.537 -0.625,0.576 -1.441,0.959 -2.736,0.959 -4.85,0 -7.01,-5.809 -7.01,-9.985 C -1.873,1.152 -1.104,0 -0.049,0 Z m -3.168,-4.945 c -3.072,0 -4.992,2.736 -4.992,7.441 0,7.778 4.847,14.93 13.008,14.93 1.441,0 2.736,-0.384 3.552,-0.865 0.432,2.209 1.44,9.025 1.489,11.041 1.343,0.24 4.224,0.672 5.519,0.672 0.53,0 0.674,-0.527 0.481,-1.727 C 14.736,19.346 12.674,5.52 12.289,2.447 12,-0.145 11.953,-2.689 12,-4.129 10.465,-4.801 7.344,-4.945 6.529,-4.945 6.191,-4.945 6,-2.736 6.096,-0.768 6.145,-0.145 6.24,0.768 6.24,0.912 3.84,-3.025 0.527,-4.945 -3.121,-4.945 Z" /></g><g
     transform="translate(504.334,395.4946)"
     id="g3596"><path
       id="path3598"
       style="fill:#ffffff;fill-opacity:1;fill-rule:nonzero;stroke:none"
       d="M 0,0 C 2.545,5.666 5.568,6.914 7.537,6.914 8.162,6.914 9.121,6.529 9.553,6.049 9.746,4.465 8.498,1.297 7.393,0.098 6.816,0.385 6.098,0.674 5.281,0.674 c -1.633,0 -4.849,-2.546 -6.865,-13.491 -0.145,-0.912 -0.432,-1.297 -0.959,-1.535 -0.816,-0.481 -4.033,-0.865 -5.568,-0.912 0.718,3.935 1.966,11.953 2.447,16.657 0.144,1.201 0.191,3.408 0.096,4.273 0.912,0.432 4.513,1.248 5.328,1.248 0.433,0 0.769,-2.641 0.095,-6.914 z" /></g><g
     transform="translate(521.2773,384.9336)"
     id="g3600"><path
       id="path3602"
       style="fill:#ffffff;fill-opacity:1;fill-rule:nonzero;stroke:none"
       d="m 0,0 c 2.354,0 6.625,4.129 7.826,12.002 0.047,0.481 0.096,0.623 0.192,1.104 -0.528,0.191 -1.248,0.336 -1.969,0.336 -1.776,0 -3.6,-0.527 -5.233,-2.736 -1.679,-2.352 -2.4,-5.28 -2.4,-7.634 C -1.584,1.057 -1.008,0 -0.047,0 Z m -7.729,2.16 c 0,2.832 0.961,7.778 4.561,11.378 3.072,3.168 6.816,3.937 10.225,3.937 2.256,0 5.328,-0.721 7.25,-1.105 -0.481,-2.112 -1.633,-10.081 -2.161,-14.688 -0.24,-1.969 -0.337,-4.705 -0.24,-5.713 -1.584,-0.672 -4.56,-0.865 -5.377,-0.865 -0.431,0 -0.527,1.968 -0.384,3.841 0.048,0.623 0.144,1.535 0.193,1.92 -1.873,-3.121 -5.568,-5.761 -9.457,-5.761 -2.785,0 -4.61,2.304 -4.61,7.009 z" /></g></g>
</g><g
     id="layer2"
     style="display:inline"
     transform="translate(-438.0459,-337.47487)" /><g
     id="layer3"
     style="display:inline"
     transform="translate(-438.0459,-337.47487)"><g
       transform="matrix(1.25,0,0,-1.25,19.117647,990)"
       style="display:inline"
       id="g4791"><g
         transform="translate(507.1807,483.7549)"
         id="g3448"><path
           id="path3450"
           style="fill:#bbe6fb;fill-opacity:1;fill-rule:nonzero;stroke:none"
           d="m 0,0 c 1.584,-18.452 -27.455,-36.014 -64.859,-39.223 -37.404,-3.209 -69.009,9.151 -70.591,27.602 -1.584,18.455 27.455,36.016 64.857,39.225 C -33.188,30.812 -1.582,18.455 0,0" /></g><g
         id="g3452"><g
           id="g3454" /><g
           id="g3460"><g
             style="opacity:0.350006"
             id="g3462"
             clip-path="url(#clipPath3456)"><g
               id="g3464"
               transform="translate(437.6865,509.1943)"><path
                 id="path3466"
                 style="fill:#ffffff;fill-opacity:1;fill-rule:nonzero;stroke:none"
                 d="m 0,0 c -14.268,0.232 -30.964,-5.433 -43.388,-10.738 -1.292,-3.726 -1.988,-7.688 -1.988,-11.797 0,-21.888 19.764,-39.634 44.145,-39.634 24.381,0 44.145,17.746 44.145,39.634 0,6.928 -1.984,13.435 -5.463,19.101 C 27.512,-1.889 13.842,-0.225 0,0" /></g></g></g></g><g
         transform="translate(436.4551,509.1992)"
         id="g3468"><path
           id="path3470"
           style="fill:#ffffff;fill-opacity:1;fill-rule:nonzero;stroke:none"
           d="m 0,0 c -7.899,0.482 -21.514,-3.64 -32.867,-7.751 -1.725,-4.07 -2.684,-8.525 -2.684,-13.199 0,-19.179 17.389,-34.727 35.783,-34.727 18.273,0 34.44,15.573 35.782,34.727 0.436,6.236 -1.711,12.113 -4.692,17.179 C 19.552,-1.696 7.061,-0.431 0,0" /></g><g
         transform="translate(416.1836,490.7666)"
         id="g3472"><path
           id="path3474"
           style="fill:#373535;fill-opacity:1;fill-rule:nonzero;stroke:none"
           d="M 0,0 C 0.969,2.146 2.438,3.197 3.859,4.996 3.701,5.422 3.355,6.814 3.355,7.297 c 0,2.156 1.749,3.906 3.907,3.906 0.508,0 0.994,-0.101 1.439,-0.277 6.465,4.926 14.977,7.074 23.529,5.162 0.782,-0.176 1.547,-0.389 2.299,-0.623 C 26.076,16.637 16.549,13.644 10.068,8.412 10.266,7.945 10.814,6.61 10.814,6.073 10.814,3.916 9.418,3.391 7.262,3.391 6.771,3.391 6.303,3.486 5.871,3.65 4.406,1.684 2.612,-2.061 1.734,-4.402 c 3.584,-3.205 6.823,-4.368 11.042,-5.944 -0.01,0.201 0.146,0.387 0.146,0.592 0,6.502 5.724,11.787 12.228,11.787 5.829,0 10.655,-4.238 11.596,-9.797 2.908,1.85 5.721,3.268 7.863,6.01 -0.5,0.609 -1.039,2.336 -1.039,3.186 0,1.957 1.588,3.545 3.545,3.545 0.278,0 0.543,-0.041 0.803,-0.1 1.088,2.236 1.908,4.605 2.434,7.049 -10.17,7.529 -29.848,6.502 -29.848,6.502 0,0 -15.658,0.818 -26.258,-4.348 C -5.047,8.969 -3.008,4.109 0,0" /></g><g
         transform="translate(464.793,493.7002)"
         id="g3476"><path
           id="path3478"
           style="fill:#373535;fill-opacity:1;fill-rule:nonzero;stroke:none"
           d="m 0,0 c 0.719,-0.648 1.111,-1.217 1.42,-1.771 0.951,-1.711 -0.957,-3.276 -2.914,-3.276 -0.199,0 -0.391,0.027 -0.582,0.059 -2.205,-3.446 -6.067,-7.865 -9.498,-10.088 5.261,-0.862 10.222,-2.97 14.17,-6.226 2.875,5.152 5.08,12.589 5.08,18.907 0,4.809 -2.123,8.334 -5.328,10.92 C 2.18,5.949 0.805,2.346 0,0" /></g><g
         transform="translate(422.0859,461.0752)"
         id="g3480"><path
           id="path3482"
           style="fill:#373535;fill-opacity:1;fill-rule:nonzero;stroke:none"
           d="m 0,0 c 1.754,4.84 6.065,8.592 10.145,11.892 -0.597,0.817 -1.493,2.84 -1.866,3.797 -4.974,1.514 -9.377,4.346 -12.791,8.094 -0.025,-0.109 -0.056,-0.215 -0.082,-0.324 -0.642,-2.881 -0.761,-5.768 -0.441,-8.584 2.383,-0.443 4.185,-2.531 4.185,-5.041 0,-1.49 -1.304,-3.648 -2.318,-4.586 C -2.066,2.871 -1.316,1.725 0,0" /></g><g
         transform="translate(421.7773,457.0107)"
         id="g3484"><path
           id="path3486"
           style="fill:#373535;fill-opacity:1;fill-rule:nonzero;stroke:none"
           d="M 0,0 C -2.09,2.079 -3.537,6.227 -4.893,8.83 -5.148,8.791 -5.408,8.764 -5.674,8.764 c -2.836,0 -5.806,2.381 -5.135,5.134 0.373,1.524 1.424,2.522 3.137,3.354 -0.39,3.156 -0.496,7.693 0.238,10.977 0.209,0.937 0.655,1.378 0.95,2.273 -3.129,4.578 -5.151,10.588 -5.151,16.551 0,0.218 0.01,0.433 0.016,0.648 -5.289,-2.65 -9.254,-6.83 -9.254,-13.406 0,-14.549 8.379,-28.819 20.846,-34.413 C -0.018,-0.079 -0.01,-0.039 0,0" /></g><g
         transform="translate(452.4336,477.1221)"
         id="g3488"><path
           id="path3490"
           style="fill:#373535;fill-opacity:1;fill-rule:nonzero;stroke:none"
           d="m 0,0 c -1.611,-4.582 -5.967,-7.873 -11.1,-7.873 -2.746,0 -5.265,0.947 -7.267,2.521 -4.127,-3.214 -7.871,-8.859 -9.774,-13.757 0.854,-0.92 1.449,-1.676 2.407,-2.491 2.887,-0.752 6.863,0 9.988,0 12.57,0 23.703,5.592 30.086,15.399 C 10.096,-3.262 5.09,-0.465 0,0" /></g><g
         transform="translate(415.8613,489.0654)"
         id="g3492"><path
           id="path3494"
           style="fill:#1287b1;fill-opacity:1;fill-rule:nonzero;stroke:none"
           d="m 0,0 c 0.969,2.146 2.184,4.133 3.605,5.932 -0.158,0.425 -0.25,0.884 -0.25,1.367 0,2.156 1.749,3.906 3.907,3.906 0.508,0 0.994,-0.101 1.439,-0.279 6.465,4.928 14.977,7.076 23.529,5.164 0.782,-0.176 1.547,-0.389 2.299,-0.623 -8.453,1.172 -17.187,-1.42 -23.668,-6.651 0.198,-0.466 0.307,-0.98 0.307,-1.517 0,-2.158 -1.75,-3.906 -3.906,-3.906 -0.491,0 -0.959,0.093 -1.391,0.259 -1.465,-1.966 -2.662,-4.138 -3.539,-6.48 3.078,-3.317 6.856,-5.94 11.074,-7.518 -0.01,0.201 -0.031,0.401 -0.031,0.606 0,6.502 5.271,11.775 11.775,11.775 5.829,0 10.655,-4.238 11.596,-9.799 2.908,1.85 5.492,4.227 7.635,6.969 -0.5,0.609 -0.811,1.379 -0.811,2.229 0,1.957 1.588,3.543 3.545,3.543 0.278,0 0.543,-0.039 0.803,-0.1 1.088,2.236 1.908,4.607 2.434,7.051 -10.17,7.529 -29.848,6.502 -29.848,6.502 0,0 -15.658,0.816 -26.258,-4.35 C -5.047,8.969 -3.008,4.111 0,0" /></g><g
         transform="translate(465.3418,493.1201)"
         id="g3496"><path
           id="path3498"
           style="fill:#1287b1;fill-opacity:1;fill-rule:nonzero;stroke:none"
           d="m 0,0 c 0.719,-0.648 1.18,-1.578 1.18,-2.621 0,-1.957 -1.588,-3.545 -3.545,-3.545 -0.199,0 -0.391,0.027 -0.582,0.059 -2.205,-3.446 -5.127,-6.385 -8.559,-8.608 5.072,-0.793 9.846,-2.945 13.793,-6.201 2.875,5.15 4.518,11.084 4.518,17.402 0,4.809 -2.123,8.334 -5.328,10.92 C 1.309,4.83 0.805,2.346 0,0" /></g><g
         transform="translate(422.627,459.9111)"
         id="g3500"><path
           id="path3502"
           style="fill:#1287b1;fill-opacity:1;fill-rule:nonzero;stroke:none"
           d="m 0,0 c 1.754,4.842 4.799,9.186 8.879,12.484 -0.598,0.819 -1.09,1.711 -1.463,2.67 -4.975,1.512 -9.377,4.344 -12.791,8.094 C -5.4,23.139 -5.432,23.033 -5.457,22.924 -6.1,20.043 -6.219,17.156 -5.898,14.34 -3.516,13.895 -1.713,11.809 -1.713,9.297 -1.713,7.809 -2.352,6.469 -3.365,5.531 -2.445,3.582 -1.316,1.727 0,0" /></g><g
         transform="translate(421.7637,457.0693)"
         id="g3504"><path
           id="path3506"
           style="fill:#1287b1;fill-opacity:1;fill-rule:nonzero;stroke:none"
           d="M 0,0 C -2.09,2.08 -3.846,4.467 -5.201,7.07 -5.457,7.031 -5.717,7.006 -5.982,7.006 c -2.836,0 -5.135,2.299 -5.135,5.133 0,2.033 1.185,3.785 2.898,4.617 -0.39,3.156 -0.258,6.432 0.477,9.713 0.209,0.939 0.465,1.855 0.76,2.75 -3.129,4.578 -4.961,10.113 -4.961,16.076 0,0.217 0.009,0.432 0.015,0.648 -5.289,-2.652 -9.254,-6.83 -9.254,-13.406 0,-14.549 8.688,-27.06 21.155,-32.654 C -0.018,-0.078 -0.01,-0.039 0,0" /></g><g
         transform="translate(452.1113,475.4229)"
         id="g3508"><path
           id="path3510"
           style="fill:#1287b1;fill-opacity:1;fill-rule:nonzero;stroke:none"
           d="m 0,0 c -1.611,-4.582 -5.967,-7.873 -11.1,-7.873 -2.746,0 -5.265,0.947 -7.267,2.521 -4.127,-3.214 -7.242,-7.595 -9.145,-12.494 0.854,-0.92 1.766,-1.785 2.725,-2.599 2.887,-0.752 5.916,-1.155 9.041,-1.155 12.57,0 23.621,6.489 30.004,16.295 C 10.014,-2.365 5.09,-0.467 0,0" /></g><g
         id="g3512"><g
           id="g3514" /><g
           id="g3520"><g
             id="g3522"
             clip-path="url(#clipPath3516)"><g
               id="g3524"
               transform="translate(452.5244,478.458)"><path
                 id="path3526"
                 style="fill:#ffffff;fill-opacity:1;fill-rule:nonzero;stroke:none"
                 d="M 0,0 10.879,2.596 -0.041,3.152 8.846,9.945 -1.238,6.33 5.615,15.826 -3.85,9.535 l 3.309,11.117 -6.5,-9.163 -0.148,11.579 -4.277,-10.314 -3.566,10.437 0.193,-12.295 -6.163,11.022 3.335,-11.703 -9.996,7.271 7.83,-9.841 -12.41,4.564 9.794,-7.246 -12.56,-0.387 12.842,-3.314 -12.854,-2.778 12.688,-0.921 -10.699,-6.85 11.017,3.993 -7.644,-9.681 9.659,7.79 -3.478,-12.991 7.457,10.572 -1.044,-12.486 4.232,11.32 3.603,-11.898 0.876,11.934 5.348,-10.182 -3.16,11.646 9.793,-7.587 -6.322,9.672 10.744,-4.185 -8.215,8.073 11.016,-0.866 z" /></g></g></g></g><g
         id="g3528"><g
           id="g3530" /><g
           id="g3536"><g
             style="opacity:0.350006"
             id="g3538"
             clip-path="url(#clipPath3532)"><g
               id="g3540"
               transform="translate(336.7051,457.6416)"><path
                 id="path3542"
                 style="fill:#292929;fill-opacity:1;fill-rule:nonzero;stroke:none"
                 d="m 0,0 c 33.74,33.739 60.688,44.155 85.143,48.91 3.236,0.629 3.849,7.7 3.849,7.7 0,0 0.453,-5.208 2.717,-5.887 2.264,-0.68 5.207,8.152 5.207,8.152 0,0 -2.717,-7.926 0,-8.379 2.719,-0.453 7.699,7.699 7.699,7.699 0,0 -2.037,-7.019 -0.677,-7.472 1.357,-0.453 8.15,10.189 8.15,10.189 0,0 -4.076,-7.019 -0.227,-7.699 3.852,-0.679 9.467,4.791 9.467,4.791 0,0 -4.416,-5.005 -2.447,-5.696 8.379,-2.945 15.158,7.945 15.158,7.945 0,0 -1.57,-4.775 -5.646,-9.983 8.83,-2.264 15.388,11.039 15.388,11.039 l -6.558,-13.303 c 3.396,-1.813 16.984,13.812 16.984,13.812 0,0 -7.019,-12.228 -11.096,-14.718 2.264,-1.812 10.416,5.434 10.416,5.434 0,0 -6.566,-8.151 -4.076,-8.604 3.623,-2.944 16.983,15.171 16.983,15.171 0,0 -5.207,-10.642 -12.907,-19.021 6.436,-3.219 22.418,17.436 22.418,17.436 0,0 -0.453,-6.567 -12.002,-16.983 8.606,1.132 19.702,17.436 19.702,17.436 0,0 -4.077,-12.228 -13.815,-20.832 8.449,0.879 21.965,21.738 21.965,21.738 0,0 -5.207,-14.492 -15.85,-22.871 11.776,-2.604 28.758,14.945 28.758,14.945 0,0 -6.68,-12.455 -15.398,-17.549 9.738,-3.736 23.097,11.662 23.097,11.662 0,0 -13.359,-20.607 -34.644,-19.701 -6.985,0.297 -28.11,21.188 -73.369,19.474 C 44.609,42.57 31.93,17.209 0,0" /></g></g></g></g><g
         transform="translate(338.0879,460.2041)"
         id="g3544"><path
           id="path3546"
           style="fill:#ffffff;fill-opacity:1;fill-rule:nonzero;stroke:none"
           d="m 0,0 c 33.74,33.739 60.686,44.154 85.143,48.91 3.236,0.629 3.849,7.699 3.849,7.699 0,0 0.451,-5.209 2.717,-5.887 2.264,-0.679 5.207,8.151 5.207,8.151 0,0 -2.717,-7.926 0,-8.378 2.719,-0.452 7.699,7.699 7.699,7.699 0,0 -2.037,-7.019 -0.679,-7.472 1.359,-0.453 8.152,10.19 8.152,10.19 0,0 -4.076,-7.02 -0.227,-7.699 3.85,-0.68 9.467,4.79 9.467,4.79 0,0 -4.416,-5.005 -2.447,-5.696 8.379,-2.944 15.156,7.945 15.156,7.945 0,0 -1.57,-4.775 -5.644,-9.983 8.83,-2.265 15.388,11.04 15.388,11.04 l -6.558,-13.305 c 3.396,-1.811 16.982,13.812 16.982,13.812 0,0 -7.017,-12.226 -11.094,-14.717 2.264,-1.812 10.416,5.434 10.416,5.434 0,0 -6.566,-8.152 -4.076,-8.604 3.623,-2.945 16.983,15.171 16.983,15.171 0,0 -5.209,-10.643 -12.907,-19.021 6.436,-3.22 22.418,17.436 22.418,17.436 0,0 -0.453,-6.568 -12.002,-16.984 8.606,1.133 19.702,17.437 19.702,17.437 0,0 -4.077,-12.228 -13.815,-20.833 8.449,0.879 21.965,21.738 21.965,21.738 0,0 -5.207,-14.492 -15.85,-22.87 11.776,-2.604 28.758,14.944 28.758,14.944 0,0 -6.68,-12.453 -15.398,-17.548 9.738,-3.736 23.097,11.662 23.097,11.662 0,0 -13.359,-20.607 -34.646,-19.701 -6.983,0.298 -28.108,21.189 -73.367,19.474 C 44.609,42.57 31.928,17.209 0,0" /></g><g
         id="g3548"><g
           id="g3550" /><g
           id="g3556"><g
             style="opacity:0.350006"
             id="g3558"
             clip-path="url(#clipPath3552)"><g
               id="g3560"
               transform="translate(335.8223,453.9521)"><path
                 id="path3562"
                 style="fill:#292929;fill-opacity:1;fill-rule:nonzero;stroke:none"
                 d="m 0,0 c 17.832,-8.945 34.137,1.357 54.686,-4.434 15.623,-4.404 34.644,-9.832 60.458,-6.095 25.814,3.734 47.892,14.943 58.423,34.984 3.284,8.943 16.643,-2.039 16.643,-2.039 0,0 -9.736,4.076 -9.51,2.152 0.227,-1.925 14.606,-8.605 14.606,-8.605 0,0 -13.022,4.076 -12.229,1.019 0.793,-3.056 16.303,-15.285 16.303,-15.285 0,0 -17.549,13.36 -19.02,11.549 -1.472,-1.812 7.473,-9.172 7.473,-9.172 0,0 -14.832,9.172 -20.041,6.467 -3.746,-1.943 15.398,-14.506 15.398,-14.506 0,0 -12.455,9.512 -15.398,7.022 -2.943,-2.493 14.039,-22.871 14.039,-22.871 0,0 -19.248,20.832 -21.172,19.814 -1.926,-1.02 5.32,-10.984 5.32,-10.984 0,0 -9.509,10.418 -12.113,8.605 -2.603,-1.812 13.586,-28.871 13.586,-28.871 0,0 -17.549,27.738 -24.795,23.098 11.379,-24.966 7.133,-28.532 7.133,-28.532 0,0 -1.451,25.469 -15.625,24.795 -7.133,-0.34 3.397,-19.021 3.397,-19.021 0,0 -9.692,17.062 -16.145,16.722 11.895,-22.512 7.654,-31.668 7.654,-31.668 0,0 1.967,19.227 -14.166,29.926 6.114,-5.433 -3.836,-29.926 -3.836,-29.926 0,0 8.752,36.092 -6.455,29.211 -2.402,-1.085 -0.17,-18.002 -0.17,-18.002 0,0 -3.056,19.362 -7.641,18.342 -2.672,-0.593 -16.983,-26.832 -16.983,-26.832 0,0 11.719,28.362 8.153,27.172 -2.598,-0.867 -7.473,-12.568 -7.473,-12.568 0,0 2.377,11.549 0,12.228 -2.377,0.68 -15.625,-12.228 -15.625,-12.228 0,0 9.85,11.549 8.152,13.928 -2.574,3.603 -5.591,3.771 -9.172,2.376 -5.209,-2.029 -12.226,-11.548 -12.226,-11.548 0,0 6.996,9.638 5.773,13.248 -1.963,5.799 -22.078,-11.209 -22.078,-11.209 0,0 11.889,11.209 9.172,13.586 C 41.779,-5.775 27.025,-6.51 22.418,-6.496 8.832,-6.455 4.123,-3.268 0,0" /></g></g></g></g><g
         transform="translate(335.1426,455.9893)"
         id="g3564"><path
           id="path3566"
           style="fill:#ffffff;fill-opacity:1;fill-rule:nonzero;stroke:none"
           d="m 0,0 c 17.832,-8.945 34.137,1.359 54.686,-4.434 15.623,-4.402 34.646,-9.832 60.46,-6.095 25.814,3.736 47.89,14.945 58.421,34.984 3.284,8.945 16.643,-2.037 16.643,-2.037 0,0 -9.736,4.076 -9.51,2.15 0.227,-1.923 14.606,-8.603 14.606,-8.603 0,0 -13.022,4.074 -12.229,1.017 0.793,-3.056 16.305,-15.283 16.305,-15.283 0,0 -17.551,13.36 -19.022,11.547 -1.47,-1.81 7.473,-9.17 7.473,-9.17 0,0 -14.832,9.17 -20.041,6.467 -3.746,-1.943 15.398,-14.506 15.398,-14.506 0,0 -12.455,9.512 -15.398,7.02 -2.943,-2.491 14.041,-22.871 14.041,-22.871 0,0 -19.25,20.834 -21.174,19.814 -1.924,-1.02 5.322,-10.982 5.322,-10.982 0,0 -9.511,10.416 -12.115,8.605 -2.603,-1.812 13.586,-28.871 13.586,-28.871 0,0 -17.549,27.738 -24.795,23.096 11.379,-24.965 7.133,-28.532 7.133,-28.532 0,0 -1.451,25.471 -15.625,24.795 -7.133,-0.34 3.397,-19.019 3.397,-19.019 0,0 -9.692,17.062 -16.145,16.722 11.896,-22.512 7.654,-31.668 7.654,-31.668 0,0 1.967,19.227 -14.166,29.926 6.114,-5.433 -3.836,-29.926 -3.836,-29.926 0,0 8.754,36.092 -6.453,29.211 -2.402,-1.087 -0.17,-18.002 -0.17,-18.002 0,0 -3.058,19.36 -7.641,18.342 -2.674,-0.593 -16.985,-26.834 -16.985,-26.834 0,0 11.719,28.362 8.153,27.172 -2.598,-0.865 -7.473,-12.566 -7.473,-12.566 0,0 2.377,11.549 0,12.228 -2.377,0.678 -15.625,-12.228 -15.625,-12.228 0,0 9.852,11.549 8.152,13.926 -2.574,3.603 -5.591,3.771 -9.17,2.376 -5.211,-2.029 -12.228,-11.546 -12.228,-11.546 0,0 6.996,9.638 5.773,13.246 -1.963,5.799 -22.076,-11.209 -22.076,-11.209 0,0 11.887,11.209 9.17,13.586 C 41.779,-5.773 27.025,-6.51 22.418,-6.496 8.832,-6.453 4.125,-3.266 0,0" /></g></g></g></svg>
