<?xml version="1.0" encoding="UTF-8" standalone="no"?>
<svg
   width="107.3937pt"
   height="128.96094pt"
   viewBox="0 0 107.3937 128.96094"
   version="1.2"
   id="svg89"
   xmlns="http://www.w3.org/2000/svg"
   xmlns:svg="http://www.w3.org/2000/svg">
  <defs
     id="defs93" />
  <path
     style="fill:#ee3f21;fill-opacity:1;fill-rule:nonzero;stroke:none"
     d="m 80.203153,50.92188 c -0.23047,0.96093 -0.60937,1.85156 -1.11718,2.66406 0.69531,-0.67578 1.09375,-1.5586 1.11718,-2.66406"
     id="path26" />
  <path
     style="fill:#ee3f21;fill-opacity:1;fill-rule:nonzero;stroke:none"
     d="M 80.457063,48.73047 C 80.800813,57.36719 69.187531,60.76563 64.117218,54.25391 57.644562,45.9375 64.253937,36.97266 65.175812,28.16406 66.335968,17.125 59.414093,6.41016 50.832062,0 55.554718,7.64453 49.328156,17.76172 44.347687,23.41797 39.515656,28.90234 33.640656,33.48047 28.308624,38.46094 22.578156,43.8125 17.070343,49.44531 12.363312,55.72656 2.9414374,68.29297 -2.8241876,84.10156 1.4140934,99.78125 c 4.234375,15.67188 17.8085936,25.64453 33.1328126,29.17578 -7.730469,-3.34375 -14.964844,-11.83984 -14.984375,-20.53125 -0.01953,-9.47656 5.984375,-17.52344 13.453125,-22.80859 -0.894532,3.39062 -1.386719,6.49609 0.839843,9.52734 2.066407,2.82422 5.6875,4.19141 9.109375,3.44922 7.992188,-1.75 8.359375,-10.53516 3.621094,-15.65234 -4.683594,-5.07032 -9.214844,-10.79688 -7.433594,-18.14844 0.894532,-3.68359 3.15625,-7.13281 6.023438,-9.60156 -2.207031,5.78906 4.058594,11.5 8.179687,14.34375 7.15625,4.93359 15.007813,8.66406 21.589844,14.44531 6.91797,6.07812 12.02734,14.30078 10.99609,23.83203 -1.11718,10.33594 -9.32812,17.51953 -18.539059,21.14844 C 86.863313,124.66797 106.97659,109.5625 107.38675,87.97656 107.72659,70.21875 95.546903,56.55078 80.457063,48.73047"
     id="path28" />
  <path
     style="fill:#ee3f21;fill-opacity:1;fill-rule:nonzero;stroke:none"
     d="m 80.203153,50.92188 c 0.15625,-0.66407 0.26172,-1.34766 0.26172,-2.0625 0,-0.043 -0.008,-0.0859 -0.008,-0.12891 -0.27344,-0.14453 -0.51172,-0.28906 -0.78906,-0.43359 0.41406,1.00781 0.55078,1.85937 0.53515,2.625"
     id="path30" />
</svg>
