<?xml version="1.0" encoding="UTF-8" standalone="no"?>
<svg
   fill="none"
   viewBox="0 0 55.931099 56"
   version="1.1"
   id="svg26"
   width="55.931099"
   height="56"
   xmlns="http://www.w3.org/2000/svg"
   xmlns:svg="http://www.w3.org/2000/svg">
  <defs
     id="defs30" />
  <path
     d="M 27.9656,56 C 43.4105,56 55.9311,43.464 55.9311,28 55.9311,12.536 43.4105,0 27.9656,0 12.5206,0 0,12.536 0,28 0,43.464 12.5206,56 27.9656,56 Z"
     fill="#fefad8"
     id="path2" />
  <path
     d="m 27.9364,52.5178 c 13.5399,0 24.5297,-10.9763 24.5463,-24.5162 C 52.4994,14.4616 41.5366,3.4854 27.9967,3.4854 14.4568,3.4854 3.467,14.4616 3.4503,28.0016 3.4336,41.5415 14.3964,52.5178 27.9364,52.5178 Z"
     fill="#0d2b3c"
     id="path4" />
  <path
     d="m 27.9684,3.9762 c 4.7458,0 9.385,1.409 13.331,4.049 A 24.0182,24.0182 0 0 1 50.137,18.807 24.0523,24.0523 0 0 1 51.5024,32.6879 24.034,24.034 0 0 1 44.9354,44.9889 23.9852,23.9852 0 0 1 32.6495,51.5638 23.9675,23.9675 0 0 1 18.7857,50.1966 24.0022,24.0022 0 0 1 8.0171,41.348 24.0458,24.0458 0 0 1 3.9733,28.0005 c 0,-3.1549 0.6207,-6.279 1.8265,-9.1938 a 24.0267,24.0267 0 0 1 5.2015,-7.7941 23.9943,23.9943 0 0 1 7.7846,-5.2078 23.969,23.969 0 0 1 9.1825,-1.8287 z m 0,-1.0133 A 24.9856,24.9856 0 0 0 14.075,7.1824 25.0315,25.0315 0 0 0 4.8646,18.4191 25.0669,25.0669 0 0 0 3.4414,32.8855 25.0474,25.0474 0 0 0 10.2854,45.7054 24.9973,24.9973 0 0 0 23.0895,52.5578 24.9786,24.9786 0 0 0 37.5381,51.1329 25.0138,25.0138 0 0 0 48.761,41.9111 25.0595,25.0595 0 0 0 52.9753,28.0006 C 52.9678,21.3625 50.3308,14.9984 45.6427,10.3046 40.9546,5.6107 34.5984,2.9704 27.9684,2.9629 Z"
     fill="#0d2b3c"
     id="path6" />
  <path
     d="m 4.4357,23.286 a 24.1717,24.1717 0 0 0 -0.463,4.7139 c 0,0.4256 0.011,0.8484 0.0331,1.2684 1.4749,0.0253 2.7456,-0.2736 3.6286,-1.044 4.3814,-3.8238 12.6735,-2.7396 12.6735,-2.7396 0,0 -2.5464,-4.4012 -15.8722,-2.1987 z"
     fill="#40b9bc"
     id="path8" />
  <path
     d="m 6.7813,16.7149 c 12.4117,-3.8221 15.5887,2.5688 16.2527,4.6312 0,0 0.7591,-11.6663 -8.7994,-13.0468 a 24.1235,24.1235 0 0 0 -7.4534,8.4156 z"
     fill="#be1d43"
     id="path10" />
  <path
     d="m 27.8704,18.0107 c 0,0 1.2988,-8.1785 3.6003,-13.779 A 24.1868,24.1868 0 0 0 24.2812,4.257 c 2.2947,5.6008 3.5892,13.7537 3.5892,13.7537 z"
     fill="#ef7b1a"
     id="path12" />
  <path
     d="m 41.6681,8.2773 c -9.7303,1.271 -8.9624,13.0684 -8.9624,13.0684 0.668,-2.0754 3.8801,-8.5334 16.4848,-4.5601 A 24.1265,24.1265 0 0 0 41.6681,8.2773 Z"
     fill="#be1d43"
     id="path14" />
  <path
     d="m 51.5023,23.3185 c -13.5021,-2.28 -16.0726,2.1657 -16.0726,2.1657 0,0 8.2921,-1.0842 12.6734,2.7396 0.9216,0.8041 2.2659,1.0939 3.823,1.0387 a 24.57,24.57 0 0 0 0.0329,-1.2624 24.1633,24.1633 0 0 0 -0.4567,-4.6816 z"
     fill="#40b9bc"
     id="path16" />
  <path
     d="m 27.9679,52.0251 c 0.6672,0 1.3276,-0.0287 1.9812,-0.0821 -1.5832,-2.7505 -1.672,-6.9384 -1.672,-9.5287 0,0 1.5867,7.068 3.5213,9.3047 a 23.9706,23.9706 0 0 0 8.833,-3.3096 24.002,24.002 0 0 0 6.8763,-6.4628 c -0.6697,-0.6394 -2.137,-1.5129 -4.1392,0.304 0,0 0.8813,-3.4857 4.8368,-1.8567 a 4.8317,4.8317 0 0 0 -2.8567,-2.8407 4.822,4.822 0 0 0 -4.0139,0.3154 4.8297,4.8297 0 0 0 -1.5444,1.3658 4.8375,4.8375 0 0 0 -0.8081,3.9492 4.835,4.835 0 0 0 0.8834,1.8638 4.8273,4.8273 0 0 0 -3.0269,1.9429 2.4148,2.4148 0 0 0 -0.4959,-1.1224 2.4107,2.4107 0 0 0 -0.983,-0.7331 2.408,2.408 0 0 0 -2.3506,0.3101 9.2469,9.2469 0 0 1 -1.6953,-1.9922 C 29.7874,41.1602 29.1263,37.67 28.874,35.6702 a 1.0135,1.0135 0 0 0 -0.337,-0.6274 1.011,1.011 0 0 0 -1.332,0 1.0135,1.0135 0 0 0 -0.337,0.6274 c -0.253,1.9998 -1.088,5.49 -2.615,7.7825 -1.9483,2.9245 -3.3103,3.2174 -4.1218,0 l -0.0149,0.0035 a 5.751,5.751 0 0 0 -1.9616,-2.9535 5.7394,5.7394 0 0 0 -3.3192,-1.2395 5.7389,5.7389 0 0 0 -3.4142,0.9462 5.7495,5.7495 0 0 0 -2.2104,2.7718 24.1627,24.1627 0 0 0 2.758,2.9215 c 2.9973,-2.5934 5.5331,0.9295 5.5331,0.9295 -2.156,-0.9908 -3.6316,-0.722 -4.6015,-0.1363 a 23.8883,23.8883 0 0 0 10.0628,4.8038 c 1.5665,-1.8023 3.0745,-5.1542 3.0745,-5.1542 0,1.1357 -0.6528,3.7747 -1.6193,5.4169 a 24.1642,24.1642 0 0 0 3.5494,0.2627 z"
     fill="#fcc009"
     id="path18" />
  <path
     d="m 28.6403,20.7141 a 1.0317,1.0317 0 0 0 -0.7692,-0.3425 v 5.1123 c 0.4275,0 0.8374,0.17 1.1397,0.4727 a 1.615,1.615 0 0 1 0,2.2822 1.6109,1.6109 0 0 1 -1.1397,0.4726 v 3.3625 h 0.1012 c 2.1958,0.0507 4.2387,4.9589 5.8729,3.8338 1.5637,-1.0757 0.2306,-9.167 -5.2049,-15.1936 z"
     fill="#fefad8"
     id="path20" />
  <path
     d="m 27.0979,20.7141 a 1.0317,1.0317 0 0 1 0.7692,-0.3425 v 5.1123 c -0.4275,0 -0.8374,0.17 -1.1397,0.4727 a 1.6147,1.6147 0 0 0 0,2.2822 1.6109,1.6109 0 0 0 1.1397,0.4726 v 3.3625 h -0.1012 c -2.1958,0.0507 -4.2387,4.9589 -5.873,3.8338 -1.5647,-1.0757 -0.2312,-9.167 5.205,-15.1936 z"
     fill="#fae1b6"
     id="path22" />
</svg>
