<?xml version="1.0" encoding="UTF-8" standalone="no"?>
<!-- Generator: Adobe Illustrator 12.0.1, SVG Export Plug-In . SVG Version: 6.00 Build 51448)  -->

<svg
   version="1.0"
   id="Layer_1"
   width="216"
   height="216"
   viewBox="0 0 216 216"
   overflow="visible"
   enable-background="new 0 0 504.09 215.994"
   xml:space="preserve"
   xmlns="http://www.w3.org/2000/svg"
   xmlns:svg="http://www.w3.org/2000/svg"><defs
   id="defs23">
	

		
		
		
		
		
		
	</defs>

<g
   id="layer2"><rect
     style="fill:#092e20;fill-opacity:1;stroke:#7014e8;stroke-width:0;stroke-linecap:round;stroke-linejoin:round;stroke-miterlimit:16.7"
     id="rect955"
     width="216"
     height="216"
     x="7.67507e-07"
     y="1.5313501e-06"
     ry="28.856684" /></g><g
   id="g1705"
   transform="translate(10.518,5.081001)"><path
     fill="#ffffff"
     d="m 86.945,33.918999 h 23.872 V 144.415 c -12.246,2.325 -21.237,3.255 -31.002,3.255 -29.142,0 -44.333,-13.174 -44.333,-38.443 0,-24.336001 16.122,-40.147001 41.078,-40.147001 3.875,0 6.82,0.311 10.386,1.239 v -36.4 z m 0,55.62 c -2.79,-0.929 -5.115,-1.239 -8.06,-1.239 -12.091,0 -19.067,7.441 -19.067,20.460001 0,12.713 6.666,19.688 18.912,19.688 2.634,0 4.805,-0.155 8.215,-0.618 z"
     id="path4" /><path
     fill="#ffffff"
     d="M 148.793,70.782999 V 126.124 c 0,19.065 -1.395,28.21 -5.58,36.117 -3.876,7.596 -8.992,12.399 -19.532,17.67 L 101.514,169.37 c 10.541,-4.96 15.656,-9.297 18.911,-15.966 3.411,-6.819 4.497,-14.727 4.497,-35.498 V 70.782999 Z m -23.871,-36.737 h 23.871 v 24.493 h -23.871 z"
     id="path6" /></g>
<g
   id="layer1" /></svg>
