<?xml version="1.0" encoding="UTF-8" standalone="no"?>
<svg
   id="Layer_1"
   data-name="Layer 1"
   viewBox="0 0 848.84998 544.37274"
   version="1.1"
   width="848.84998"
   height="544.37274"
   xmlns="http://www.w3.org/2000/svg"
   xmlns:svg="http://www.w3.org/2000/svg">
  <defs
     id="defs4">
    <style
       id="style2">.cls-1{fill:#fff;}</style>
  </defs>
  <path
     class="cls-1"
     d="M 822.13,77.32 848.85,8.1 847.7,3.82 583.36,73.48 C 611.54,32.7 601.85,0 601.85,0 601.85,0 517.44,53.91 453.59,52.49 389.74,51.07 369.18,34.1 271.28,65.26 173.38,96.42 145.72,192.26 117.35,212.81 88.98,233.36 0,300.42 0,300.42 l 0.19,1.2 80.21,-25.52 c 0,0 -22,20.75 -68.77,83.77 0,0 -0.82,-0.75 -2.18,-2 l 0.07,0.43 c 0,0 37.6,57.39 74.48,46.8 a 73.31,73.31 0 0 0 12.45,-5.16 c 14.85,8.27 34.24,16.4 55.65,18.64 a 343.88,343.88 0 0 1 -26.58,-36 l 10,-6.51 -1.52,1.03 30.57,11.22 -3.38,-28.73 0.3,-0.19 30,11 -3.74,-26.13 c 3.8,-2 7.61,-3.87 11.4,-5.63 L 230.46,220.2 360,131.94 349.72,157.83 c -26.25,64.56 -75.55,79.81 -75.55,79.81 l -20.57,7.8 c -15.31,18.09 -21.74,22.54 -27,83.25 12.33,-3.11 24.12,-3.83 34.8,-1 55.33,14.9 74.49,81.58 59.59,100 -3.73,4.62 -12.61,12.52 -23.82,21.77 h -22.5 l -0.29,18.19 -2.31,1.8 h -22.84 l -0.29,17.75 c -2,1.54 -4,3.05 -6,4.52 -21.47,0.45 -48.65,-18.27 -48.65,-18.27 0,17 14.19,43.27 14.19,43.27 l 2.51,-1.22 -2.13,1.6 c 0,0 57.46,38.31 93.63,24.12 32.18,-12.61 115.45,-78.28 187.34,-109.35 l 217.54,-57.32 28.69,-74.31 -165.78,43.71 v -66.76 l 194.47,-51.24 28.69,-74.32 -223.16,58.8 v -66.75 z m -394.82,141.47 51.62,-13.6 0.69,2.59 -16.1,41.72 -53.52,14.1 z m 17.82,89.31 -53.5,14.1 17.29,-44.81 51.62,-13.6 0.69,2.59 z m 69.71,-15 -53.51,14.1 17.3,-44.8 51.62,-13.61 0.69,2.59 z"
     id="path6" />
</svg>
