<?xml version="1.0" encoding="UTF-8"?>
<svg xmlns="http://www.w3.org/2000/svg" xmlns:xlink="http://www.w3.org/1999/xlink" width="638pt" height="638pt" viewBox="0 0 638 638" version="1.2">
<defs>
<clipPath id="clip1">
  <path d="M 0 0.0820313 L 637.851563 0.0820313 L 637.851563 638 L 0 638 Z M 0 0.0820313 "/>
</clipPath>
</defs>
<g id="surface1">
<g clip-path="url(#clip1)" clip-rule="nonzero">
<path style=" stroke:none;fill-rule:nonzero;fill:rgb(6.266785%,5.734253%,5.047607%);fill-opacity:1;" d="M 637.851563 638 C 425.25 638 212.628906 638 0 638 C 0 425.371094 0 212.746094 0 0.0820313 C 212.589844 0.0820313 425.1875 0.0820313 637.851563 0.0820313 C 637.851563 212.695313 637.851563 425.347656 637.851563 638 "/>
</g>
<path style=" stroke:none;fill-rule:evenodd;fill:rgb(97.470093%,64.84375%,5.056763%);fill-opacity:1;" d="M 374.65625 459.472656 C 372.691406 459.871094 379.582031 425.273438 379.699219 424.898438 C 384.25 419.648438 399.601563 399.679688 433.601563 394.679688 C 442.886719 393.316406 483.933594 385.347656 491.933594 372.015625 C 494.398438 371.734375 526.960938 343.0625 527.398438 343.933594 C 529.121094 355.066406 533.667969 372.589844 537.429688 388.265625 C 541.191406 403.945313 543.988281 426.996094 542.421875 442.046875 C 540.945313 456.210938 536.675781 469.214844 535.863281 470.257813 C 532.644531 474.378906 472.308594 535.855469 470.667969 533.617188 C 468.996094 531.339844 464.601563 451.769531 463.152344 451.957031 C 461.152344 452.210938 376.957031 459.011719 374.65625 459.472656 "/>
<path style=" stroke:none;fill-rule:evenodd;fill:rgb(96.716309%,84.632874%,2.532959%);fill-opacity:1;" d="M 527.265625 474.679688 C 525.351563 471.523438 530.097656 466.882813 526.515625 459.578125 C 524.5625 465.136719 516.027344 482.015625 514.277344 482.597656 C 511.65625 480.851563 513.988281 480.558594 511.65625 476.769531 C 506.992188 481.433594 506.121094 490.464844 499.707031 493.960938 C 497.085938 491.339844 501.457031 486.675781 497.960938 482.890625 C 492.421875 487.550781 483.3125 502.011719 480.992188 500.355469 C 479.214844 491.730469 488.855469 470.921875 486.320313 465.597656 C 481.5 463.820313 475.824219 472.484375 472.617188 472.191406 C 472.035156 464.90625 480.15625 455.730469 480.738281 449.613281 C 476.367188 448.738281 470.191406 456.5 469.066406 453.164063 C 466.976563 446.964844 488.753906 416.109375 484.742188 415.492188 C 477.167969 414.328125 456.132813 441.089844 449.722656 445.167969 C 445.351563 442.546875 454.882813 428.027344 452.765625 428.167969 C 444.023438 428.753906 438.792969 444.738281 435.261719 446.945313 C 431.34375 449.394531 434.167969 438.984375 430.945313 439.585938 C 426.285156 440.460938 423.835938 446.792969 418.007813 447.960938 C 415.675781 444.460938 417.910156 436.960938 415.453125 434.726563 C 412.246094 431.8125 405.542969 443.761719 400.476563 444.933594 C 399.132813 436.476563 404.457031 426.121094 402.628906 424.820313 C 398.550781 421.90625 393.179688 431.640625 389.101563 432.515625 C 387.386719 432.882813 386.933594 425.515625 390.601563 418.015625 C 392.164063 414.820313 394.078125 410.433594 391.601563 412.515625 C 386.433594 416.847656 376.253906 427.429688 367.765625 439.179688 C 360.710938 448.949219 351.777344 475.261719 351.253906 479.113281 C 350.992188 481.066406 351.933594 482.246094 353.894531 482.195313 C 355.808594 482.140625 364.035156 475.765625 377.421875 472.828125 C 385.195313 471.121094 411.886719 468.769531 422.308594 466.789063 C 438.632813 463.6875 451.15625 453.511719 454.601563 458.679688 C 456.601563 461.679688 455.398438 464.046875 455.117188 479.683594 C 454.738281 500.773438 458.214844 519.1875 457.730469 528.816406 C 457.402344 535.347656 455.664063 543.566406 454.628906 547.914063 C 453.742188 551.648438 452.703125 558.398438 454.304688 559.015625 C 456.425781 559.832031 461.324219 557.179688 464.910156 555.132813 C 475.847656 548.894531 499.484375 527.425781 509.800781 514.617188 C 519.269531 502.863281 539.921875 480.558594 542.609375 442.996094 C 537.882813 456.953125 528.726563 477.082031 527.265625 474.679688 "/>
<path style=" stroke:none;fill-rule:evenodd;fill:rgb(96.716309%,84.632874%,2.532959%);fill-opacity:1;" d="M 477.585938 353.859375 C 478.007813 363.351563 479.316406 362.507813 475.621094 369.824219 C 474.449219 372.324219 470.3125 378.230469 468.484375 378.453125 C 466.511719 378.691406 464.996094 377.421875 463.230469 375.488281 C 461.460938 373.550781 459.085938 366.261719 457.382813 357.460938 C 457.8125 350.328125 477.4375 349.867188 477.585938 353.859375 "/>
<path style=" stroke:none;fill-rule:evenodd;fill:rgb(97.470093%,64.84375%,5.056763%);fill-opacity:1;" d="M 510.390625 235.484375 C 508.261719 235.394531 493.203125 244.960938 491.125 244.429688 C 463.375 204.980469 406.496094 157.507813 341.359375 157.046875 C 341.046875 156.003906 352.925781 138.5625 363.148438 127.460938 C 384.476563 104.296875 435.84375 103.28125 436.3125 103.378906 C 476.90625 145.578125 495.480469 172.871094 510.390625 235.484375 "/>
<path style=" stroke:none;fill-rule:evenodd;fill:rgb(96.716309%,84.632874%,2.532959%);fill-opacity:1;" d="M 506.308594 228.96875 C 506.308594 226.007813 492.164063 219.101563 487.394531 216.960938 C 486.902344 213.34375 493.972656 214.003906 496.933594 212.851563 C 497.097656 210.382813 491.671875 209.234375 489.371094 207.261719 C 489.535156 203.808594 495.78125 205.121094 496.933594 203.3125 C 493.480469 198.050781 475.054688 196.957031 472.59375 192.953125 C 472.257813 190.378906 487.066406 189.828125 488.625 186.894531 C 485.75 182.429688 472.925781 180.125 471.304688 178.355469 C 469.472656 175.355469 473.746094 173.546875 476.101563 170.679688 C 471.117188 166.640625 462.070313 166.972656 458.601563 164.179688 C 456.972656 160.226563 466.347656 155.128906 467.101563 153.515625 C 465.292969 151.113281 439.265625 154.515625 435.933594 156.683594 C 435.433594 151.183594 457.265625 144.015625 459.601563 140.679688 C 453.601563 138.515625 444.765625 137.683594 439.265625 138.347656 C 438.433594 135.847656 442.101563 132.515625 441.933594 131.015625 C 439.601563 129.347656 433.265625 128.847656 431.601563 129.179688 C 428.933594 127.179688 435.765625 122.847656 436.765625 120.847656 C 428.101563 116.683594 400.828125 129.445313 396.601563 128.515625 C 394.101563 126.683594 406.0625 118.050781 413.433594 114.847656 C 416.96875 113.3125 419.960938 109.511719 419.601563 107.679688 C 386.101563 111.179688 365.234375 132.214844 359.519531 131.84375 C 364.496094 122.992188 393.105469 102.339844 415.582031 100.492188 C 429.042969 99.386719 437.800781 96.203125 441.78125 98.554688 C 448.765625 102.679688 451.382813 111.9375 459.265625 120.679688 C 467.148438 129.425781 488.410156 153.039063 494.503906 161.859375 C 500.601563 170.679688 506.792969 186.515625 509.101563 196.015625 C 511.40625 205.515625 515.09375 231.808594 516.765625 237.015625 C 519.601563 245.847656 518.765625 254.683594 517.933594 259.347656 C 516.382813 268.023438 511.828125 269.578125 510.933594 270.015625 C 509.136719 270.886719 491.933594 242.550781 492.164063 241.628906 C 493.152344 237.683594 498.742188 240.148438 500.714844 239.164063 C 500.386719 235.378906 492.65625 233.40625 490.4375 230.253906 C 490.683594 226.007813 503.675781 230.117188 506.308594 228.96875 "/>
<path style=" stroke:none;fill-rule:evenodd;fill:rgb(97.470093%,64.84375%,5.056763%);fill-opacity:1;" d="M 251.367188 188.550781 C 251.695313 180.414063 254.992188 174.507813 261.753906 170.972656 C 268.410156 167.492188 275.09375 168.007813 281.453125 172.046875 C 283.28125 173.207031 283.296875 174.785156 281.488281 176.039063 C 274.878906 180.597656 255.515625 193.824219 255.160156 194 C 253.625 194.761719 252.464844 194.3125 252.046875 192.632813 C 251.671875 191.132813 251.53125 189.574219 251.367188 188.550781 "/>
<path style=" stroke:none;fill-rule:evenodd;fill:rgb(94.966125%,35.073853%,10.064697%);fill-opacity:1;" d="M 530.691406 339.832031 C 530.683594 335.3125 530.292969 317.949219 527.972656 307.613281 C 525.648438 297.273438 522.042969 289.554688 517.792969 281.035156 C 513.433594 272.292969 508.171875 264.0625 502.652344 256.027344 C 497.863281 249.054688 472.882813 207.976563 428.816406 181.6875 C 397.550781 163.039063 375.886719 157.894531 366 156.5625 C 360.03125 155.761719 352.789063 154.960938 342.933594 155.347656 C 327.472656 156.507813 321.851563 162.054688 319.082031 162.324219 C 314.601563 162.804688 289.554688 167.734375 272.976563 176.804688 C 253.101563 187.679688 244.976563 204.304688 241.25 204.75 C 239.101563 205.054688 237.832031 205.828125 236.226563 207.679688 C 234.617188 209.535156 230.414063 217.03125 234.351563 229.179688 C 237.226563 238.054688 238.792969 244.554688 242.859375 245.773438 C 245.476563 246.554688 253.726563 258.429688 253.726563 258.429688 L 295.726563 266.304688 L 337.601563 292.804688 L 471.101563 342.554688 C 471.101563 342.554688 483.101563 357.476563 484.226563 358.429688 C 486.726563 360.554688 491.671875 372.828125 491.796875 385.328125 C 491.867188 392.328125 489.257813 408.234375 491.863281 408.910156 C 495.238281 409.785156 507.359375 396.605469 511.660156 390.636719 C 516.160156 384.386719 522.339844 375.554688 525.875 364.238281 C 528.214844 356.753906 530.703125 344.351563 530.691406 339.832031 "/>
<path style=" stroke:none;fill-rule:evenodd;fill:rgb(92.030334%,91.957092%,91.520691%);fill-opacity:1;" d="M 55.921875 122.480469 L 177.042969 243.445313 L 56.613281 363.875 L 56.597656 315.105469 L 128.417969 242.308594 L 55.921875 170.242188 L 55.921875 122.480469 "/>
<path style=" stroke:none;fill-rule:evenodd;fill:rgb(92.030334%,91.957092%,91.520691%);fill-opacity:1;" d="M 504.925781 325.113281 L 504.925781 360.96875 L 214.636719 360.96875 L 214.636719 325.113281 L 504.925781 325.113281 "/>
<path style=" stroke:none;fill-rule:evenodd;fill:rgb(97.470093%,64.84375%,5.056763%);fill-opacity:1;" d="M 262.097656 373.992188 C 251.226563 372.929688 245.523438 338.351563 245.226563 332.929688 C 245.050781 329.734375 247.765625 322.015625 252.050781 316.761719 C 255.570313 312.101563 259.972656 308.535156 265.125 305.753906 C 269.300781 303.496094 273.273438 300.863281 277.304688 298.351563 C 279.519531 296.976563 279.765625 295.234375 281.765625 296.847656 C 284.683594 299.199219 294.097656 307.832031 294.933594 308.515625 C 296.699219 309.953125 295.933594 310.777344 294.839844 312.757813 C 293.859375 314.53125 292.828125 316.335938 292.257813 318.257813 C 290.851563 322.554688 293.476563 333.929688 293.394531 341.597656 C 293.351563 344.054688 293.261719 346.183594 291.90625 348.09375 C 289.601563 352.679688 287.851563 355.054688 284.851563 358.304688 C 283.226563 359.679688 270.851563 376.429688 262.097656 373.992188 "/>
<path style=" stroke:none;fill-rule:evenodd;fill:rgb(96.716309%,84.632874%,2.532959%);fill-opacity:1;" d="M 250.351563 352.929688 C 250.726563 349.304688 252.351563 339.054688 255.761719 336.171875 C 254.351563 350.554688 257.582031 364.699219 260.601563 367.679688 C 263.207031 365.574219 265.726563 348.929688 268.351563 348.304688 C 271.351563 348.929688 271.691406 361.597656 272.054688 362.179688 C 273.351563 361.054688 278.476563 353.554688 280.601563 342.304688 C 283.726563 343.179688 281.890625 355.339844 281.941406 356.195313 C 283.851563 356.054688 287.023438 347.417969 287.976563 347.929688 C 289.601563 348.804688 290.3125 351.28125 289.910156 352.054688 C 289.351563 354.179688 288.546875 356.929688 287.351563 358.554688 C 283.699219 368.398438 268.976563 389.179688 264.632813 389.007813 C 261.125 388.253906 244.851563 369.054688 243.238281 344.101563 C 243.074219 341.515625 244.753906 331.757813 245.648438 329.503906 C 246.101563 344.929688 248.101563 348.679688 250.351563 352.929688 "/>
<path style=" stroke:none;fill-rule:evenodd;fill:rgb(95.645142%,53.141785%,24.255371%);fill-opacity:1;" d="M 331.949219 283.808594 C 333.894531 283.683594 335.652344 283.554688 337.5625 283.183594 C 341.597656 282.402344 344.953125 281.238281 348.792969 279.648438 C 354.824219 277.152344 362.03125 288.457031 380.578125 298.296875 C 399.125 308.140625 426.074219 318.996094 438.179688 321.160156 C 450.285156 323.324219 464.5625 324.429688 464.988281 324.953125 C 459.804688 327.546875 454.808594 335.8125 409.121094 336.320313 C 380.171875 336.644531 352.777344 332.261719 338.8125 329.144531 C 324.429688 325.9375 305.859375 317.71875 290.617188 307.417969 C 275.378906 297.117188 258.425781 268.792969 254.859375 263.046875 C 253.132813 260.273438 249.226563 255.304688 247.726563 250.304688 C 253.101563 254.304688 262.234375 255.523438 268.726563 257.429688 C 274.734375 259.199219 286.652344 260.367188 290.5625 261.140625 C 297.679688 262.539063 311.105469 268.964844 315.101563 271.121094 C 319.550781 273.519531 323.332031 276.277344 326.777344 280.046875 C 329.246094 282.746094 329.871094 283.183594 331.949219 283.808594 "/>
<path style=" stroke:none;fill-rule:evenodd;fill:rgb(97.470093%,64.84375%,5.056763%);fill-opacity:1;" d="M 393.777344 394.636719 C 384.050781 394.367188 373.214844 377.089844 370.953125 373.355469 C 368.90625 369.125 366.230469 362.144531 364.949219 358.058594 C 362.90625 351.527344 362.039063 344.914063 360.289063 336.894531 C 358.539063 328.878906 347.667969 314.589844 345.21875 312.949219 C 342.773438 311.308594 341.851563 308.820313 343.265625 307.539063 C 344.683594 306.261719 358.34375 299.648438 362.90625 302.410156 C 367.46875 305.167969 373.875 308.390625 378.625 310.175781 C 383.371094 311.960938 402.539063 321.09375 405.933594 325.015625 C 411.253906 331.152344 413.375 336.1875 415.066406 340.320313 C 416.359375 343.472656 418.195313 351.652344 418.292969 356.015625 C 418.570313 368.308594 413.386719 397.367188 393.777344 394.636719 "/>
<path style=" stroke:none;fill-rule:evenodd;fill:rgb(96.716309%,84.632874%,2.532959%);fill-opacity:1;" d="M 396.195313 354.253906 C 396.613281 351.789063 405.871094 375.871094 409.976563 374.308594 C 412.839844 373.21875 405.882813 356.300781 409.019531 354.800781 C 411.75 357.257813 412.566406 361.078125 414.066406 360.257813 C 416.523438 358.757813 414.339844 354.527344 415.976563 353.980469 C 417.035156 353.628906 418.253906 355.054688 418.292969 356.015625 C 419.933594 361.679688 421.890625 383.773438 422.265625 390.347656 C 422.566406 395.589844 421.433594 409.371094 418.707031 410.738281 C 415.617188 412.28125 404.964844 409.824219 394.148438 402.550781 C 378.730469 392.183594 373.371094 378.15625 371.894531 375.285156 C 371.207031 373.953125 370.136719 368.988281 371.175781 368.761719 C 372.730469 368.445313 385.417969 392.730469 395.253906 392.6875 C 395.375 389.316406 388.964844 381.675781 391.445313 377.316406 C 393.332031 377.722656 399.550781 384.605469 401.378906 382.90625 C 401.03125 375.367188 394.949219 361.589844 396.195313 354.253906 "/>
<path style=" stroke:none;fill-rule:evenodd;fill:rgb(96.716309%,84.632874%,2.532959%);fill-opacity:1;" d="M 344.324219 203.78125 C 344.324219 215.410156 334.898438 224.835938 323.269531 224.835938 C 311.644531 224.835938 302.214844 215.410156 302.214844 203.78125 C 302.214844 192.152344 311.644531 182.726563 323.269531 182.726563 C 334.898438 182.726563 344.324219 192.152344 344.324219 203.78125 "/>
<path style=" stroke:none;fill-rule:evenodd;fill:rgb(59.21936%,15.272522%,11.845398%);fill-opacity:1;" d="M 237.980469 222.902344 C 237.160156 218.339844 239.714844 214.683594 242.410156 215.03125 C 248.511719 215.816406 249.792969 217.390625 252.941406 221.722656 C 256.089844 226.054688 258.675781 230.234375 260.53125 232.03125 C 262.390625 233.828125 262.808594 240.246094 259.832031 241.996094 C 256.734375 243.824219 251.5625 240.324219 247.234375 239.636719 C 244.429688 239.191406 242.039063 235.480469 241.03125 232.449219 C 240.164063 229.839844 238.667969 226.742188 237.980469 222.902344 "/>
<path style=" stroke:none;fill-rule:evenodd;fill:rgb(59.21936%,15.272522%,11.845398%);fill-opacity:1;" d="M 322.355469 282.21875 C 321.277344 281.09375 325.570313 282.085938 327.09375 282.242188 C 332.613281 282.8125 355.316406 278.960938 366.421875 269.246094 C 377.472656 259.582031 382.09375 244.847656 383.660156 237.125 C 385.074219 230.152344 385.785156 220.449219 386.234375 220.449219 C 386.683594 220.449219 387.746094 233.675781 386.808594 241.464844 C 386.28125 245.882813 384.324219 261.273438 375.113281 271.347656 C 364.394531 283.066406 347.421875 284.910156 340.234375 285.300781 C 332.796875 285.707031 323.890625 283.820313 322.355469 282.21875 "/>
<path style=" stroke:none;fill-rule:evenodd;fill:rgb(59.21936%,15.272522%,11.845398%);fill-opacity:1;" d="M 337.695313 201.882813 C 337.6875 208.636719 332.261719 214.070313 325.523438 214.074219 C 318.742188 214.082031 313.28125 208.597656 313.304688 201.804688 C 313.324219 195.09375 318.808594 189.65625 325.542969 189.671875 C 332.277344 189.6875 337.699219 195.136719 337.695313 201.882813 "/>
<path style=" stroke:none;fill-rule:evenodd;fill:rgb(97.470093%,64.84375%,5.056763%);fill-opacity:1;" d="M 557.550781 352.3125 C 552.148438 352.507813 541.648438 346.261719 539.226563 344.644531 C 529.675781 338.285156 523.671875 330.945313 520.753906 320.289063 C 518.941406 313.664063 514.738281 307.457031 512.738281 305.496094 C 510.746094 303.546875 508.980469 305.429688 509.042969 302.726563 C 509.101563 300.019531 510.925781 284.222656 512.890625 283.800781 C 514.859375 283.382813 514.210938 285.839844 516.585938 286.902344 C 518.601563 287.804688 531.222656 295.082031 536.378906 297.515625 C 541.535156 299.949219 547.632813 302.789063 553.816406 311.550781 C 561.863281 322.953125 561.429688 337.96875 561.246094 341.871094 C 561.0625 345.777344 558.929688 352.261719 557.550781 352.3125 "/>
<path style=" stroke:none;fill-rule:evenodd;fill:rgb(96.716309%,84.632874%,2.532959%);fill-opacity:1;" d="M 537.460938 327.605469 C 542.242188 327.269531 548.40625 343.816406 550.214844 344.039063 C 552.765625 341.113281 547.34375 326.816406 548.726563 325.128906 C 550.53125 324.679688 555.101563 336.046875 555.90625 334.632813 C 556.484375 329.292969 555.210938 326.253906 556.378906 326.132813 C 557.125 326.054688 561.4375 332.664063 561.539063 339.371094 C 561.640625 351.710938 555.449219 366.183594 554.175781 366.964844 C 539.8125 360.242188 532.066406 346.769531 527.09375 338.40625 C 523.070313 331.640625 521.140625 322.355469 521.484375 321.949219 C 528.640625 323.664063 535.441406 336.5 537.355469 336.835938 C 540.226563 336.046875 536.1875 327.832031 537.460938 327.605469 "/>
</g>
</svg>
