<?xml version="1.0" encoding="UTF-8"?>
<svg xmlns="http://www.w3.org/2000/svg" xmlns:xlink="http://www.w3.org/1999/xlink" width="92pt" height="92pt" viewBox="0 0 92 92" version="1.2">
<defs>
<clipPath id="clip1">
  <path d="M 0 0.113281 L 91.886719 0.113281 L 91.886719 92 L 0 92 Z M 0 0.113281 "/>
</clipPath>
</defs>
<g id="surface1">
<g clip-path="url(#clip1)" clip-rule="nonzero">
<path style=" stroke:none;fill-rule:nonzero;fill:rgb(94.029236%,23.397827%,17.89093%);fill-opacity:1;" d="M 90.15625 41.964844 L 50.035156 1.847656 C 47.726563 -0.464844 43.976563 -0.464844 41.664063 1.847656 L 33.335938 10.179688 L 43.902344 20.746094 C 46.359375 19.917969 49.175781 20.472656 51.132813 22.429688 C 53.101563 24.402344 53.652344 27.242188 52.800781 29.707031 L 62.988281 39.890625 C 65.453125 39.039063 68.292969 39.589844 70.265625 41.5625 C 73.015625 44.3125 73.015625 48.769531 70.265625 51.519531 C 67.511719 54.269531 63.054688 54.269531 60.300781 51.519531 C 58.234375 49.449219 57.722656 46.410156 58.773438 43.859375 L 49.273438 34.363281 L 49.273438 59.359375 C 49.941406 59.691406 50.574219 60.132813 51.132813 60.691406 C 53.882813 63.441406 53.882813 67.894531 51.132813 70.648438 C 48.382813 73.398438 43.921875 73.398438 41.175781 70.648438 C 38.425781 67.894531 38.425781 63.441406 41.175781 60.691406 C 41.855469 60.011719 42.644531 59.496094 43.480469 59.152344 L 43.480469 33.925781 C 42.644531 33.582031 41.855469 33.074219 41.175781 32.390625 C 39.09375 30.304688 38.59375 27.25 39.660156 24.691406 L 29.242188 14.273438 L 1.730469 41.777344 C -0.578125 44.09375 -0.578125 47.839844 1.730469 50.148438 L 41.851563 90.269531 C 44.164063 92.578125 47.910156 92.578125 50.222656 90.269531 L 90.15625 50.335938 C 92.464844 48.023438 92.464844 44.277344 90.15625 41.964844 "/>
</g>
</g>
</svg>
