<?xml version="1.0" encoding="UTF-8" standalone="no"?>
<svg
   width="120.77347pt"
   height="117.79433pt"
   viewBox="0 0 120.77347 117.79433"
   version="1.2"
   id="svg185"
   xmlns="http://www.w3.org/2000/svg"
   xmlns:svg="http://www.w3.org/2000/svg">
  <defs
     id="defs189" />
  <path
     style="fill:#ffffff;fill-opacity:1;fill-rule:evenodd;stroke:none"
     d="M 60.38671,0 C 27.03906,0 0,27.03516 0,60.38672 c 0,26.68359 17.30078,49.31641 41.29687,57.30469 3.01563,0.55859 4.125,-1.3125 4.125,-2.90625 0,-1.44141 -0.0547,-6.19922 -0.082,-11.24219 -16.80078,3.65234 -20.34375,-7.125 -20.34375,-7.125 -2.75,-6.98047 -6.70703,-8.83594 -6.70703,-8.83594 -5.48047,-3.75 0.41406,-3.67187 0.41406,-3.67187 6.0625,0.42578 9.25781,6.22265 9.25781,6.22265 5.38282,9.23047 14.125,6.5625 17.57032,5.01954 C 46.07424,91.25 47.64065,88.58594 49.36721,87.07813 35.95315,85.55078 21.85159,80.3711 21.85159,57.23438 c 0,-6.59375 2.35937,-11.98047 6.22265,-16.21094 -0.625,-1.51953 -2.6914,-7.66016 0.58594,-15.98047 0,0 5.07031,-1.62109 16.60938,6.19141 4.82031,-1.33985 9.98437,-2.00782 15.11718,-2.03125 5.13282,0.0234 10.30079,0.6914 15.12891,2.03125 11.52344,-7.8125 16.58984,-6.19141 16.58984,-6.19141 3.28516,8.32031 1.21875,14.46094 0.58985,15.98047 3.87109,4.23047 6.21484,9.61719 6.21484,16.21094 0,23.1914 -14.125,28.30078 -27.57422,29.79687 2.16797,1.8711 4.09766,5.54688 4.09766,11.17969 0,8.08203 -0.0703,14.58203 -0.0703,16.57422 0,1.60547 1.08593,3.48828 4.14843,2.89844 23.98047,-7.9961 41.26172,-30.625 41.26172,-57.29688 C 120.77347,27.03516 93.73832,0 60.38675,0"
     id="path96" />
  <path
     style="fill:#ffffff;fill-opacity:1;fill-rule:nonzero;stroke:none"
     d="m 22.87109,86.70313 c -0.13281,0.30078 -0.60547,0.39062 -1.03516,0.18359 -0.4375,-0.19531 -0.68359,-0.60547 -0.54297,-0.90625 0.12891,-0.30859 0.60157,-0.39453 1.03907,-0.1875 0.4414,0.19531 0.6914,0.60938 0.53906,0.91016"
     id="path98" />
  <path
     style="fill:#ffffff;fill-opacity:1;fill-rule:nonzero;stroke:none"
     d="m 25.3164,89.4336 c -0.28906,0.26562 -0.85156,0.14062 -1.23437,-0.28125 -0.39453,-0.42188 -0.46875,-0.98438 -0.17578,-1.25391 0.29687,-0.26953 0.84375,-0.14453 1.23828,0.27734 0.39453,0.42578 0.47265,0.98438 0.17187,1.25782"
     id="path100" />
  <path
     style="fill:#ffffff;fill-opacity:1;fill-rule:nonzero;stroke:none"
     d="m 27.69921,92.91016 c -0.37109,0.25781 -0.97656,0.0156 -1.35156,-0.51953 -0.37109,-0.53907 -0.37109,-1.1836 0.008,-1.44141 0.375,-0.25781 0.97266,-0.0273 1.35157,0.50781 0.36718,0.54297 0.36718,1.19141 -0.008,1.45313"
     id="path102" />
  <path
     style="fill:#ffffff;fill-opacity:1;fill-rule:nonzero;stroke:none"
     d="m 30.96093,96.26953 c -0.33203,0.36328 -1.03906,0.26563 -1.55468,-0.23047 -0.52735,-0.48828 -0.67579,-1.17968 -0.34375,-1.54296 0.33593,-0.36719 1.04687,-0.26172 1.5664,0.23046 0.52344,0.48438 0.6836,1.1836 0.33203,1.54297"
     id="path104" />
  <path
     style="fill:#ffffff;fill-opacity:1;fill-rule:nonzero;stroke:none"
     d="m 35.46093,98.21875 c -0.14843,0.47656 -0.82812,0.69141 -1.51172,0.48828 -0.68359,-0.20703 -1.1289,-0.76172 -0.99218,-1.23828 0.14453,-0.47656 0.82422,-0.69922 1.51562,-0.48437 0.67969,0.20703 1.12891,0.7539 0.98828,1.23437"
     id="path106" />
  <path
     style="fill:#ffffff;fill-opacity:1;fill-rule:nonzero;stroke:none"
     d="m 40.40234,98.58203 c 0.0156,0.5 -0.5625,0.91016 -1.28125,0.91797 -0.72266,0.0195 -1.30859,-0.38281 -1.31641,-0.875 0,-0.5039 0.57032,-0.91015 1.28907,-0.92187 0.71875,-0.0156 1.30859,0.38281 1.30859,0.8789"
     id="path108" />
  <path
     style="fill:#ffffff;fill-opacity:1;fill-rule:nonzero;stroke:none"
     d="m 45,97.80078 c 0.0859,0.48438 -0.41407,0.98438 -1.125,1.11719 -0.70313,0.12891 -1.35157,-0.17187 -1.44141,-0.65234 -0.0859,-0.5 0.42187,-1 1.12109,-1.12891 0.71485,-0.12109 1.35547,0.16797 1.44532,0.66406"
     id="path110" />
</svg>
