<?xml version="1.0" encoding="UTF-8" standalone="no"?>
<svg
   class="ionicon"
   viewBox="0 0 448.00031 448.00046"
   version="1.1"
   id="svg10"
   width="448.00031"
   height="448.00046"
   xmlns="http://www.w3.org/2000/svg"
   xmlns:svg="http://www.w3.org/2000/svg"
   xmlns:rdf="http://www.w3.org/1999/02/22-rdf-syntax-ns#"
   xmlns:cc="http://creativecommons.org/ns#"
   xmlns:dc="http://purl.org/dc/elements/1.1/">
  <defs
     id="defs14" />
  <title
     id="title2">Logo Ionic</title>
  <path
     d="m 224,121.90047 a 102.1,102.1 0 1 0 102.1,102.1 102.23,102.23 0 0 0 -102.1,-102.1 z"
     id="path4"
     style="fill:#4a8bfc;fill-opacity:1" />
  <circle
     cx="370.59"
     cy="84.45047"
     r="46.52"
     id="circle6"
     style="fill:#4a8bfc;fill-opacity:1" />
  <path
     d="m 427.86,131.20047 -1.95,-4.28 -3.11,3.52 a 70,70 0 0 1 -28.06,19.32 l -3,1.1 1.22,2.93 a 181.43,181.43 0 0 1 14.04,70.21 c 0,100.92 -82.1,183 -183,183 -100.9,0 -183,-82.08 -183,-183 0,-100.92 82.08,-182.999999 183,-182.999999 a 180.94,180.94 0 0 1 78.43,17.7 l 2.87,1.3 1.25,-2.92 a 70.19,70.19 0 0 1 20.66,-27.08 l 3.67,-2.93 -4.17,-2.07 A 221.61,221.61 0 0 0 224,4.7111573e-4 C 100.49,4.7111573e-4 0,100.49047 0,224.00047 c 0,123.51 100.49,224 224,224 123.51,0 224,-100.49 224,-224 a 222.19,222.19 0 0 0 -20.14,-92.8 z"
     id="path8"
     style="fill:#4a8bfc;fill-opacity:1" />
  <metadata
     id="metadata949">
    <rdf:RDF>
      <cc:Work
         rdf:about="">
        <dc:title>Logo Ionic</dc:title>
      </cc:Work>
    </rdf:RDF>
  </metadata>
</svg>
