<?xml version="1.0" encoding="UTF-8"?>
<svg xmlns="http://www.w3.org/2000/svg" xmlns:xlink="http://www.w3.org/1999/xlink" width="54pt" height="51pt" viewBox="0 0 54 51" version="1.2">
<defs>
<clipPath id="clip1">
  <path d="M 18 0.496094 L 53.785156 0.496094 L 53.785156 38 L 18 38 Z M 18 0.496094 "/>
</clipPath>
</defs>
<g id="surface1">
<g clip-path="url(#clip1)" clip-rule="nonzero">
<path style=" stroke:none;fill-rule:nonzero;fill:rgb(100%,100%,100%);fill-opacity:1;" d="M 36.109375 0.496094 C 25.53125 0.496094 18.429688 6.652344 18.429688 18.609375 L 18.429688 27.128906 C 19.46875 26.632813 20.628906 26.34375 21.851563 26.34375 C 23.09375 26.34375 24.265625 26.640625 25.3125 27.144531 L 25.3125 18.609375 C 25.3125 10.855469 29.589844 6.871094 36.109375 6.871094 C 42.628906 6.871094 46.902344 10.855469 46.902344 18.609375 L 46.902344 37.226563 L 53.785156 37.226563 L 53.785156 18.609375 C 53.785156 6.582031 46.6875 0.496094 36.109375 0.496094 "/>
</g>
<path style=" stroke:none;fill-rule:nonzero;fill:rgb(100%,100%,100%);fill-opacity:1;" d="M 21.578125 28.496094 C 20.25 28.496094 19.027344 28.945313 18.039063 29.691406 L 11.558594 25.265625 C 11.703125 24.757813 11.78125 24.222656 11.78125 23.667969 C 11.78125 20.421875 9.140625 17.777344 5.890625 17.777344 C 2.644531 17.777344 0 20.421875 0 23.667969 C 0 26.917969 2.644531 29.5625 5.890625 29.5625 C 7.222656 29.5625 8.445313 29.113281 9.433594 28.367188 L 15.914063 32.796875 C 15.769531 33.304688 15.6875 33.835938 15.6875 34.390625 C 15.6875 34.941406 15.769531 35.472656 15.914063 35.980469 L 9.433594 40.410156 C 8.445313 39.664063 7.222656 39.21875 5.890625 39.21875 C 2.644531 39.21875 0 41.859375 0 45.109375 C 0 48.355469 2.644531 51 5.890625 51 C 9.140625 51 11.78125 48.355469 11.78125 45.109375 C 11.78125 44.554688 11.703125 44.023438 11.558594 43.515625 L 18.039063 39.085938 C 19.027344 39.832031 20.25 40.28125 21.578125 40.28125 C 24.828125 40.28125 27.472656 37.636719 27.472656 34.390625 C 27.472656 31.140625 24.828125 28.496094 21.578125 28.496094 "/>
</g>
</svg>
