<?xml version="1.0" encoding="UTF-8" standalone="no"?>
<svg
   width="59.8125pt"
   height="54.891068pt"
   viewBox="0 0 59.8125 54.891067"
   version="1.2"
   id="svg3416"
   xmlns="http://www.w3.org/2000/svg"
   xmlns:svg="http://www.w3.org/2000/svg">
  <defs
     id="defs5">
    <clipPath
       id="clip1">
      <path
         d="M 477.65625,82 H 486 v 10 h -8.34375 z m 0,0"
         id="path2" />
    </clipPath>
  </defs>
  <path
     style="fill:#c21e30;fill-opacity:1;fill-rule:nonzero;stroke:none"
     d="m 17.37891,24.591879 -9.58594,3.476562 c 0.11719,1.558594 0.35937,3.117188 0.71875,4.554688 l 9.10937,-3.238282 c -0.24218,-1.558593 -0.35937,-3.113281 -0.24218,-4.792968 z m 0,0"
     id="path469" />
  <path
     style="fill:#c21e30;fill-opacity:1;fill-rule:nonzero;stroke:none"
     d="m 59.8125,14.045004 c -0.71875,-1.441407 -1.55859,-2.757813 -2.39844,-3.957032 l -9.58984,3.476563 c 1.08203,1.078125 2.03906,2.398437 2.75781,3.835937 z m 0,0"
     id="path471" />
  <path
     style="fill:#d91e2e;fill-opacity:1;fill-rule:nonzero;stroke:none"
     d="m 38.59766,11.287191 c 2.03515,0.957031 3.71484,2.277344 5.27343,3.714844 l 9.58985,-3.476563 C 50.82031,7.8106294 47.10547,4.6934414 42.67187,2.5371914 29.00781,-3.8143706 12.58594,2.1778164 6.23437,15.841879 4.19531,20.275472 3.35547,25.072347 3.71484,29.627035 l 9.58985,-3.597656 c 0.23828,-2.035157 0.71875,-4.074219 1.67968,-6.113282 4.07422,-8.867187 14.74219,-12.7031246 23.61329,-8.628906 z m 0,0"
     id="path473" />
  <path
     style="fill:#eb1e23;fill-opacity:1;fill-rule:nonzero;stroke:none"
     d="M 9.10937,32.502035 0,35.740316 c 0.83984,3.355469 2.27734,6.472656 4.31641,9.347656 L 13.90625,41.61141 C 11.38672,39.095785 9.71094,35.857504 9.10937,32.502035 Z m 0,0"
     id="path475" />
  <path
     style="fill:#d91e2e;fill-opacity:1;fill-rule:nonzero;stroke:none"
     d="m 48.90625,28.787191 c -0.24219,2.15625 -0.72266,4.195313 -1.67969,6.234375 -4.07422,8.867188 -14.74219,12.703125 -23.61328,8.628906 -2.03906,-0.960937 -3.83594,-2.277343 -5.27344,-3.714843 L 8.75,43.408285 c 2.75781,3.71875 6.35156,6.835937 10.78906,8.871094 13.66406,6.472656 30.08594,0.480468 36.4375,-13.183594 2.03906,-4.4375 2.875,-9.230469 2.51563,-13.785156 z m 0,0"
     id="path477" />
  <path
     style="fill:#eb1e23;fill-opacity:1;fill-rule:nonzero;stroke:none"
     d="m 51.18359,17.158285 -9.11328,3.238281 c 1.80078,3.117188 2.51953,6.59375 2.28125,10.070313 l 9.58594,-3.476563 c -0.23828,-3.476562 -1.19922,-6.832031 -2.75391,-9.832031 z m 0,0"
     id="path479" />
  <path
     style="fill:#ab1e3a;fill-opacity:1;fill-rule:nonzero;stroke:none"
     d="m 17.26172,26.509847 c 0,-0.601562 0,-1.199218 0.11719,-1.917968 l -9.58594,3.476562 c 0,0.71875 0.11719,1.316406 0.23828,1.917969 z m 0,0"
     id="path481" />
  <path
     style="fill:#ab1e3a;fill-opacity:1;fill-rule:nonzero;stroke:none"
     d="m 58.375,11.525472 c -0.35938,-0.476562 -0.60156,-0.957031 -0.96094,-1.4375 l -9.58984,3.476563 c 0.35937,0.359375 0.83984,0.839844 1.19922,1.316406 z m 0,0"
     id="path483" />
  <path
     style="fill:#b81e30;fill-opacity:1;fill-rule:nonzero;stroke:none"
     d="m 58.49219,25.310629 -9.58594,3.476562 c -0.12109,1.4375 -0.36328,2.757813 -0.83984,4.195313 l 10.42578,-3.835938 c 0.12109,-1.320312 0,-2.515625 0,-3.835937 z M 8.87109,43.408285 c 0.71875,1.082031 1.4375,2.039062 2.39453,3 l 10.42969,-3.835938 c -1.19922,-0.71875 -2.39844,-1.679687 -3.35547,-2.636718 z m 0,0"
     id="path485" />
</svg>
