<?xml version="1.0" encoding="UTF-8" standalone="no"?>
<svg
   viewBox="0 0 138.03784 242.92827"
   enable-background="new 0 0 160 265"
   version="1.1"
   id="svg8"
   width="138.03784"
   height="242.92827"
   xmlns="http://www.w3.org/2000/svg"
   xmlns:svg="http://www.w3.org/2000/svg">
  <defs
     id="defs12" />
  <g
     id="g6"
     transform="translate(-11.025223,-11.020151)">
    <path
       fill="#92d13d"
       d="M 17.8,23.9 24,17.7 C 33.5,8.3 49,8.9 57.7,19 l 85.8,100 c 7.5,8.7 7.4,21.6 -0.2,30.2 l -85.5,96.9 c -8.8,9.9 -24.1,10.4 -33.5,1 L 18,241 C 9.6,232.6 9,219.2 16.6,210 l 51.2,-61.4 c 7,-8.4 7.1,-20.5 0.3,-29.1 l -52,-65 C 8.7,45.4 9.5,32.2 17.8,23.9 Z"
       id="path2" />
    <path
       fill="#49691f"
       d="M 67.8,148.6 16.6,210 c -7.6,9.1 -7,22.6 1.4,31 l 6.2,6.2 c 9.4,9.4 24.7,8.9 33.5,-1 l 18.5,-21 c 7,-13.8 10.9,-29.4 10.9,-45.9 0,-20.4 -6,-39.3 -16.2,-55.2 3.8,7.8 2.7,17.5 -3.1,24.5 z"
       id="path4" />
  </g>
</svg>
