<?xml version="1.0" encoding="UTF-8" standalone="no"?>
<!-- Generator: Adobe Illustrator 19.1.0, SVG Export Plug-In . SVG Version: 6.00 Build 0)  -->

<svg
   version="1.1"
   id="Layer_1"
   x="0px"
   y="0px"
   viewBox="0 0 53.709164 33.099998"
   xml:space="preserve"
   width="53.709164"
   height="33.099998"
   xmlns="http://www.w3.org/2000/svg"
   xmlns:svg="http://www.w3.org/2000/svg"><defs
   id="defs121" />
<style
   type="text/css"
   id="style2">
	.st0{fill:#C1272D;}
	.st1{fill:#EFCCA3;}
	.st2{fill:#ED1C24;}
	.st3{fill:#CCAC8D;}
	.st4{fill:#FFFFFF;}
	.st5{fill:#FF931E;}
	.st6{fill:#FFB81E;}
	.st7{fill:#56332B;}
	.st8{fill:#442823;}
	.st9{fill:#7F4A41;}
	.st10{fill:#331712;}
	.st11{fill:#FFCC66;}
	.st12{fill:#CCCCCC;}
	.st13{fill:#B3B3B3;}
	.st14{fill:#989898;}
	.st15{fill:#323232;}
	.st16{fill:#1E1E1E;}
	.st17{fill:#4C4C4C;}
	.st18{fill:#E6E6E6;}
	.st19{fill:#606060;}
</style>

<g
   id="g116"
   transform="translate(-5.3954188,-21)">
	<path
   class="st1"
   d="m 50.5,31.5 c -0.1,-1.8 0.4,-3.5 -0.4,-4.9 -2,-3.5 -7,-5.5 -17,-5.5 V 21 c 0,0 -0.7,0 -0.7,0 0,0 0.7,0 0.7,0 v 0.1 c -11,0 -15.7,2 -17.7,5.5 -0.8,1.4 -0.8,3 -0.9,4.9 -0.1,1.5 -0.8,3.1 -0.5,4.7 0.3,2.2 0.5,4.4 0.8,6.4 0.3,1.7 2.7,3 3,4.6 0.6,4.3 4.4,6.3 15.4,6.3 V 54 h -0.7 0.1 0.4 v -0.5 c 10,0 14.2,-2 14.8,-6.3 0.2,-1.6 2.2,-2.9 2.5,-4.6 0.3,-2 0.4,-4.2 0.7,-6.4 0.3,-1.7 -0.5,-3.3 -0.5,-4.7 z"
   id="path8" />
	<path
   class="st3"
   d="m 32.6,33.1 c 1.8,0 3,1.1 4.2,2.2 1.4,1.2 3.7,2 4.7,3.1 1,1 2.2,2.1 2.7,3.8 0.5,1.6 0.6,3.7 0.6,4.3 0,0.5 0.3,0.4 1.1,0 2,-1 4.2,-3.6 4.2,-3.6 -0.3,1.7 -2.4,3.2 -2.6,4.8 -0.6,4.3 -4.8,6.4 -15.1,6.4 v 0 0 H 33"
   id="path10" />
	<path
   class="st3"
   d="m 39,29.7 c 0.4,1.3 1.7,5.8 -0.9,4.3 0,0 1.1,0.6 1.8,3 0.7,2.4 2.5,2.7 2.5,2.7 0,0 2.8,0.5 4.9,-1.2 1.8,-1.5 2.1,-4.2 1.3,-6.3 -0.7,-2 -2.1,-2.7 -4.1,-3.1 -1.9,-0.5 -5.9,-0.9 -5.5,0.6 z"
   id="path12" />
	<g
   id="g18">
		<circle
   cx="44.099998"
   cy="34.5"
   r="3.7"
   id="circle14" />
		<circle
   class="st4"
   cx="43.099998"
   cy="32.799999"
   r="1"
   id="circle16" />
	</g>
	<path
   class="st1"
   d="m 38.4,34.3 c 0,0 3.3,2.3 5.2,4.5 1.8,2.3 1.8,2.7 1.8,2.7 l -1.3,0.6 c 0,0 -1.8,-3.5 -4.1,-4.8 -2.3,-1.3 -2.6,-2.4 -2.6,-2.4 z"
   id="path20" />
	<path
   class="st3"
   d="m 32.7,33.1 c -1.8,0 -3.3,1.1 -4.5,2.2 -1.4,1.2 -3.9,2 -4.8,3.1 -1,1 -2.3,2.1 -2.8,3.8 -0.5,1.6 -0.6,3.7 -0.6,4.3 0,0.5 0.1,0.6 -1.2,0 -2,-0.9 -4.2,-3.6 -4.2,-3.6 0.3,1.7 2.4,3.2 2.6,4.8 0.6,4.2 4.8,6.3 15.1,6.3 v 0 0 H 33"
   id="path22" />
	<path
   class="st7"
   d="m 42.3,40 c -2,-2.5 -5.3,-5 -9.8,-5 v 0 0 c -4.5,0 -7.7,2.5 -9.8,5 -2.1,2.6 -2,3.7 -2,6.1 0,8.9 3.1,6.2 5.2,7.3 2.1,1 4.3,0.6 6.5,0.6 v 0 0 c 2.3,0 4.4,0.4 6.5,-0.6 2.1,-1.1 5.2,1.6 5.2,-7.3 0.2,-2.5 0.3,-3.6 -1.8,-6.1 z"
   id="path24" />
	<path
   class="st8"
   d="m 32.3,37.5 c 0,0 -0.3,4.1 -0.9,4.9 l 1.1,-0.3 z"
   id="path26" />
	<path
   class="st8"
   d="m 32.6,37.5 c 0,0 0.3,4.1 0.9,4.9 l -1.1,-0.3 z"
   id="path28" />
	<path
   class="st7"
   d="m 29.1,36.5 c -0.4,-1 1.1,-2.6 3.5,-2.6 2.4,0 3.9,1.6 3.5,2.6 -0.4,1 -2,1.3 -3.5,1.3 -1.6,0 -3.1,-0.3 -3.5,-1.3 z"
   id="path30" />
	<path
   d="m 32.6,37.5 c 0,-0.2 1.4,-0.2 2.2,-0.7 0,0 -1.6,0.5 -1.9,0.3 -0.3,-0.2 -0.4,-0.7 -0.4,-0.7 0,0 -0.1,0.5 -0.4,0.7 -0.3,0.2 -2.1,-0.3 -2.1,-0.3 0,0 2.4,0.6 2.3,0.7 0,0.1 0,0.5 0,0.8 0,1.1 0,3.7 0.2,3.9 0.3,0.4 0.2,-2.8 0.2,-3.9 -0.1,-0.3 -0.1,-0.6 -0.1,-0.8 z"
   id="path32" />
	<path
   class="st9"
   d="m 32.6,43.2 c 0.7,0 2,0.5 3.1,1.3 -1.1,-1.2 -2.4,-2.1 -3.1,-2.1 -0.8,0 -2.4,0.9 -3.5,2.3 1.2,-1 2.7,-1.5 3.5,-1.5 z"
   id="path34" />
	<path
   class="st8"
   d="m 32.4,50.6 c -1.6,0 -3.2,-0.5 -4.6,-0.9 -0.3,-0.1 -0.6,0.1 -0.9,0 -2.6,-0.8 -4.8,-2.3 -6.1,-4.1 0,0.1 0,0.3 0,0.4 0,8.9 3.1,6.2 5.2,7.3 2.1,1 4.3,0.6 6.5,0.6 v 0 0 c 2.3,0 4.4,0.4 6.5,-0.6 2.1,-1.1 5.2,1.6 5.2,-7.3 0,-0.3 0,-0.6 0,-0.9 -1.2,2 -3.5,3.6 -6.2,4.5 -0.3,0.1 -0.8,-0.1 -1.1,-0.1 -1.5,0.5 -2.8,1.1 -4.5,1.1 z"
   id="path36" />
	<path
   class="st8"
   d="m 28.3,45.8 c 0,0 -1.1,3.2 -0.3,4.6 L 27,50 c 0,-0.1 0.8,-3.2 1.3,-4.2 z"
   id="path38" />
	<path
   class="st8"
   d="m 36.7,45.8 c 0,0 1.1,3.2 0.3,4.6 L 38,50 c 0,-0.1 -0.7,-3.2 -1.3,-4.2 z"
   id="path40" />
	<path
   class="st3"
   d="m 25.7,29.7 c -0.4,1.3 -1.7,5.8 0.9,4.3 0,0 -1.1,0.6 -1.8,3 -0.7,2.4 -2.5,2.7 -2.5,2.7 0,0 -2.8,0.5 -4.9,-1.2 -1.8,-1.5 -2.1,-4.2 -1.3,-6.3 0.7,-2 2.1,-2.7 4.1,-3.1 1.9,-0.5 5.9,-0.9 5.5,0.6 z"
   id="path42" />
	<path
   d="m 32.5,42.4 c 1.1,0 4.7,2.4 4.7,5.5 0,-0.1 0,-0.1 0,-0.2 0,-3.1 -2.9,-5.6 -4.7,-5.6 -1.9,0 -4.7,2.5 -4.7,5.6 0,0.1 0,0.1 0,0.2 0.1,-3.1 3.6,-5.5 4.7,-5.5 z"
   id="path44" />
	<g
   id="g50">
		<ellipse
   transform="matrix(0.9683,-0.2497,0.2497,0.9683,-7.9113,9.4501)"
   class="st10"
   cx="33.299999"
   cy="35.900002"
   rx="0.30000001"
   ry="0.60000002"
   id="ellipse46" />
		<ellipse
   transform="matrix(0.9551,0.2963,-0.2963,0.9551,12.0513,-7.7088)"
   class="st10"
   cx="31.5"
   cy="35.900002"
   rx="0.30000001"
   ry="0.60000002"
   id="ellipse48" />
	</g>
	<g
   id="g56">
		<circle
   cx="20.799999"
   cy="34.5"
   r="3.7"
   id="circle52" />
		<circle
   class="st4"
   cx="21.799999"
   cy="32.799999"
   r="1"
   id="circle54" />
	</g>
	<g
   id="g60">
		<path
   class="st9"
   d="m 33.6,34.5 c 0,0 -1,0.4 -1.2,0.5 -0.3,0 -1.2,-0.5 -1.2,-0.5 0,0 0.8,0 1.2,0 0.4,0 1.2,0 1.2,0 z"
   id="path58" />
	</g>
	<path
   class="st1"
   d="m 26.3,34.3 c 0,0 -3.3,2.3 -5.2,4.5 -1.8,2.3 -1.8,2.7 -1.8,2.7 l 1.3,0.6 c 0,0 1.8,-3.5 4.1,-4.8 2.3,-1.3 2.6,-2.4 2.6,-2.4 z"
   id="path62" />
	<path
   class="st3"
   d="m 19,27.6 c 0,0 -1.1,3.1 -3.7,4.4 0,0 3.9,-0.5 3.7,-4.4 z"
   id="path64" />
	<path
   class="st3"
   d="m 45.5,27.6 c 0,0 1.1,3.1 3.7,4.4 0,0 -3.9,-0.5 -3.7,-4.4 z"
   id="path66" />
	<path
   class="st3"
   d="m 38.6,33.4 c 0,0 -2.6,-2.6 -5.9,-2.7 h -0.1 c 0,0 0.3,0 0.2,0 0,0 0.2,0 0.2,0 v 0 c -4,0.1 -5.8,2.7 -5.8,2.7 2.9,-2 4.8,-2 5.8,-2 v 0 c 0,0 0,0 0,0 0,0 0,0 0,0 v 0 c 0,0 2.6,0 5.6,2 z"
   id="path68" />
	<path
   class="st3"
   d="m 35.6,27.9 c 0,0 -1.4,-1.8 -3,-1.8 h -0.1 c 0,0 0.2,0 0.2,0 0,0 0.2,0 0.2,0 v 0 c -2,0 -2.9,1.8 -2.9,1.8 1.5,-1.4 2.9,-1.3 2.9,-1.3 v 0 c 0,0 0,0 0,0 0,0 0,0 0,0 v 0 c 0.1,0 1.3,-0.1 2.7,1.3 z"
   id="path70" />
	<path
   class="st3"
   d="m 20.8,40.9 c 0,0 -2,1 -3.4,0.4 v 0 c 0,0 -0.2,0 -0.2,0 0,0 -0.2,0 -0.2,0 v 0 c -1,-0.7 -1.7,-2.9 -1.7,-2.9 0,0 1.4,3.7 5.5,2.5 z"
   id="path72" />
	<path
   class="st3"
   d="m 44,40.9 c 0,0 2,1 3.4,0.4 v 0 c 0,0 -0.2,0 -0.2,0 0,0 -0.2,0 -0.2,0 v 0 c 2,-0.7 2.1,-2.9 2.1,-2.9 0,0 -1.1,3.7 -5.1,2.5 z"
   id="path74" />
	<g
   id="g78">
		<path
   class="st3"
   d="m 23.1,27.4 c 1.1,-0.2 2.9,-0.3 4.3,0.2 1.8,0.6 0.4,3 0.7,3.1 0.4,0.1 0.9,-1.6 4.3,-1.4 3.4,0.2 3.8,1.7 4.3,1.4 0.5,-0.2 -0.5,-4.2 4.7,-3.3 0,0 -5.3,-1.4 -5.1,2.4 0,0 -3.1,-2.4 -7.4,-0.2 0,0 1.1,-3.7 -5.8,-2.2 z"
   id="path76" />
	</g>
	<path
   class="st3"
   d="m 41.8,27.4 c 0.1,0 0.1,0 0.2,0 0,0 -0.1,0 -0.2,0 z"
   id="path80" />
	<path
   class="st3"
   d="m 41.8,27.4 c 0,0 0,0 0,0 0,0 0,0 0,0 z"
   id="path82" />
	<path
   class="st3"
   d="m 21.7,22.2 c 0,0 -4.6,5.7 -5.2,7.9 -0.7,2.2 -1.2,11.4 -1.8,12.7 l -2.1,-9 3.9,-9.4 z"
   id="path84" />
	<path
   class="st3"
   d="m 43.1,22.2 c 0,0 4.6,5.7 5.2,7.9 0.7,2.2 1.2,11.4 1.8,12.7 l 2.1,-9 -3.9,-9.4 z"
   id="path86" />
	<path
   class="st7"
   d="m 42.8,22.2 c 0,0 4.9,4.1 6.3,8.8 1.4,4.7 0.8,10.5 1.9,11.2 1.6,1 3.3,-5 3.9,-5.6 0.9,-1 4,-3.6 4.2,-4.1 C 59.3,32 52.9,25 50,23.6 46.8,22 42.6,21.8 42.8,22.2 Z"
   id="path88" />
	<path
   class="st8"
   d="m 47,24.7 c 0,0 5.8,7.4 5.7,16.6 L 55,36.6 c 0,-0.1 -2,-6.1 -8,-11.9 z"
   id="path90" />
	<path
   class="st7"
   d="m 21.7,22.2 c 0,0 -4.9,4.1 -6.3,8.8 -1.4,4.7 -0.8,10.5 -1.9,11.2 -1.6,1 -3.3,-5 -3.9,-5.6 C 8.7,35.6 5.6,33 5.4,32.5 5.2,32 11.6,25 14.5,23.6 17.7,22 21.9,21.8 21.7,22.2 Z"
   id="path92" />
	<path
   class="st8"
   d="m 17.5,24.7 c 0,0 -5.8,7.4 -5.7,16.6 L 9.5,36.6 c 0,-0.1 2,-6.1 8,-11.9 z"
   id="path94" />
	<path
   class="st3"
   d="m 14.3,41.4 c 0,0 0.4,2.3 1.1,3 0.7,0.7 0.2,-0.6 0.2,-0.6 0,0 -0.7,-0.4 -0.6,-3.3 0.1,-2.9 -0.7,0.9 -0.7,0.9 z"
   id="path96" />
	<path
   class="st3"
   d="m 50.3,41.4 c 0,0 -0.4,2.3 -1.1,3 -0.7,0.7 -0.2,-0.6 -0.2,-0.6 0,0 0.7,-0.4 0.6,-3.3 -0.1,-2.8 0.7,0.9 0.7,0.9 z"
   id="path98" />
	<g
   id="g106">
		<circle
   class="st8"
   cx="28.200001"
   cy="39.700001"
   r="0.30000001"
   id="circle100" />
		<circle
   class="st8"
   cx="26.200001"
   cy="41.799999"
   r="0.30000001"
   id="circle102" />
		<circle
   class="st8"
   cx="25.6"
   cy="39.700001"
   r="0.30000001"
   id="circle104" />
	</g>
	<g
   id="g114">
		<circle
   class="st8"
   cx="36.400002"
   cy="39.700001"
   r="0.30000001"
   id="circle108" />
		<circle
   class="st8"
   cx="38.299999"
   cy="41.799999"
   r="0.30000001"
   id="circle110" />
		<circle
   class="st8"
   cx="38.900002"
   cy="39.700001"
   r="0.30000001"
   id="circle112" />
	</g>
</g>
</svg>
