<?xml version="1.0" encoding="UTF-8" standalone="no"?>
<svg
   version="1.1"
   id="Layer_1"
   x="0px"
   y="0px"
   width="82.781006"
   height="51.050999"
   viewBox="0 0 82.781007 51.050997"
   enable-background="new 0 0 821.326 907.827"
   xml:space="preserve"
   xmlns:xlink="http://www.w3.org/1999/xlink"
   xmlns="http://www.w3.org/2000/svg"
   xmlns:svg="http://www.w3.org/2000/svg"><defs
   id="defs143">
	<defs
   id="defs13">
		<rect
   id="SVGID_1_"
   y="0"
   width="821.32599"
   height="907.82703"
   x="0" />
	</defs>
	<clipPath
   id="SVGID_2_">
		<use
   xlink:href="#SVGID_1_"
   overflow="visible"
   id="use15"
   x="0"
   y="0"
   width="100%"
   height="100%" />
	</clipPath>
	
	
	
	
	
	
	
	
	
	
	
	
	
	
	
	
	
	
	
	
	
	
	
	
	
	
	
	
	
	
	
	
	
	
	
	
	
	
	
	
	
	
	
	
	
	
	
	
	
	
	
	
	
	
	
	
	
	
	
	
</defs>


<polygon
   fill="#ffffff"
   points="281.838,276.398 288.302,282.433 316.683,282.433 310.22,276.398 "
   id="polygon6"
   transform="translate(-257.87299,-238.767)" />
<polygon
   fill="#ffffff"
   points="310.22,267.312 316.683,261.277 288.302,261.277 281.839,267.312 "
   id="polygon8"
   transform="translate(-257.87299,-238.767)" />
<polygon
   fill="#ffffff"
   points="281.841,246.152 288.302,252.189 316.681,252.189 310.22,246.152 "
   id="polygon10"
   transform="translate(-257.87299,-238.767)" />
<path
   clip-path="url(#SVGID_2_)"
   fill="#ffffff"
   d="m 278.853,258.162 -4.27,-4.27 -15.83,15.829 c -0.568,0.568 -0.882,1.328 -0.88,2.134 0,0.807 0.312,1.565 0.88,2.133 l 15.83,15.83 4.27,-4.267 -13.695,-13.696 z"
   id="path18"
   transform="translate(-257.87299,-238.767)" /><path
   clip-path="url(#SVGID_2_)"
   fill="#ffffff"
   d="m 339.769,254.599 -15.824,-15.832 -4.268,4.269 13.688,13.696 -13.688,13.695 4.268,4.268 15.824,-15.826 c 0.57,-0.573 0.885,-1.332 0.885,-2.139 -0.003,-0.807 -0.316,-1.563 -0.885,-2.131"
   id="path20"
   transform="translate(-257.87299,-238.767)" />
</svg>
