<?xml version="1.0" encoding="UTF-8"?>
<svg xmlns="http://www.w3.org/2000/svg" xmlns:xlink="http://www.w3.org/1999/xlink" width="493pt" height="620pt" viewBox="0 0 493 620" version="1.2">
<defs>
<clipPath id="clip1">
  <path d="M 0 0.683594 L 492.359375 0.683594 L 492.359375 620 L 0 620 Z M 0 0.683594 "/>
</clipPath>
</defs>
<g id="surface1">
<g clip-path="url(#clip1)" clip-rule="nonzero">
<path style=" stroke:none;fill-rule:nonzero;fill:rgb(1.713562%,2.252197%,2.304077%);fill-opacity:1;" d="M 133.28125 0.695313 C 130.101563 0.789063 126.675781 1.945313 122.792969 4.96875 C 113.277344 1.351563 104.054688 0.0976563 95.804688 7.453125 C 83.066406 5.824219 78.925781 9.183594 75.789063 13.105469 C 72.996094 13.046875 54.867188 10.273438 46.554688 22.488281 C 25.660156 20.054688 19.058594 34.59375 26.539063 48.148438 C 22.273438 54.65625 17.851563 61.085938 27.828125 73.484375 C 24.300781 80.394531 26.488281 87.886719 34.804688 96.957031 C 32.609375 106.667969 36.925781 113.519531 44.660156 118.859375 C 43.210938 132.148438 57.03125 139.875 61.15625 142.628906 C 62.742188 150.371094 66.046875 157.679688 81.832031 161.71875 C 84.433594 173.257813 93.917969 175.25 103.105469 177.671875 C 72.742188 195.058594 46.707031 217.929688 46.882813 274.050781 L 42.433594 281.863281 C 7.621094 302.71875 -23.703125 369.746094 25.277344 424.222656 C 28.476563 441.277344 33.84375 453.523438 38.621094 467.078125 C 45.765625 521.710938 92.402344 547.289063 104.699219 550.3125 C 122.726563 563.835938 141.921875 576.667969 167.898438 585.65625 C 192.386719 610.53125 218.914063 620.011719 245.589844 619.996094 C 245.980469 619.996094 246.378906 620.003906 246.769531 619.996094 C 273.445313 620.011719 299.972656 610.53125 324.460938 585.65625 C 350.4375 576.667969 369.632813 563.835938 387.65625 550.3125 C 399.957031 547.289063 446.589844 521.710938 453.738281 467.078125 C 458.515625 453.523438 463.882813 441.277344 467.078125 424.222656 C 516.058594 369.738281 484.738281 302.710938 449.921875 281.855469 L 445.46875 274.042969 C 445.644531 217.925781 419.605469 195.054688 389.246094 177.664063 C 398.433594 175.242188 407.917969 173.25 410.519531 161.710938 C 426.308594 157.671875 429.609375 150.363281 431.191406 142.621094 C 435.320313 139.867188 449.140625 132.140625 447.691406 118.851563 C 455.425781 113.511719 459.742188 106.660156 457.546875 96.949219 C 465.863281 87.878906 468.050781 80.386719 464.519531 73.480469 C 474.5 61.078125 470.070313 54.652344 465.8125 48.144531 C 473.285156 34.589844 466.691406 20.050781 445.789063 22.488281 C 437.480469 10.273438 419.355469 13.046875 416.554688 13.101563 C 413.417969 9.183594 409.28125 5.824219 396.542969 7.449219 C 388.296875 0.09375 379.070313 1.351563 369.554688 4.964844 C 358.257813 -3.816406 350.78125 3.222656 342.242188 5.882813 C 328.566406 1.480469 325.4375 7.511719 318.71875 9.964844 C 303.800781 6.859375 299.269531 13.621094 292.117188 20.757813 L 283.796875 20.59375 C 261.300781 33.652344 250.121094 60.246094 246.160156 73.917969 C 242.195313 60.242188 231.042969 33.648438 208.550781 20.59375 L 200.234375 20.757813 C 193.074219 13.621094 188.539063 6.859375 173.621094 9.964844 C 166.902344 7.511719 163.785156 1.480469 150.097656 5.882813 C 144.492188 4.136719 139.335938 0.503906 133.269531 0.691406 L 133.28125 0.695313 "/>
</g>
<path style=" stroke:none;fill-rule:nonzero;fill:rgb(38.975525%,77.230835%,30.036926%);fill-opacity:1;" d="M 88.933594 58.148438 C 148.625 88.460938 183.324219 112.980469 202.335938 133.863281 C 192.601563 172.300781 141.8125 174.054688 123.242188 172.976563 C 127.042969 171.234375 130.214844 169.144531 131.339844 165.9375 C 126.683594 162.675781 110.15625 165.59375 98.625 159.210938 C 103.054688 158.304688 105.128906 157.425781 107.199219 154.203125 C 96.300781 150.78125 84.5625 147.828125 77.65625 142.15625 C 81.382813 142.203125 84.859375 142.976563 89.726563 139.652344 C 79.964844 134.472656 69.550781 130.367188 61.457031 122.445313 C 66.503906 122.324219 71.945313 122.394531 73.527344 120.570313 C 64.59375 115.117188 57.054688 109.054688 50.816406 102.421875 C 57.878906 103.261719 60.859375 102.539063 62.570313 101.328125 C 55.816406 94.515625 47.265625 88.761719 43.191406 80.363281 C 48.4375 82.144531 53.234375 82.828125 56.695313 80.207031 C 54.398438 75.105469 44.566406 72.101563 38.902344 60.183594 C 44.425781 60.710938 50.28125 61.367188 51.453125 60.183594 C 48.886719 49.902344 44.492188 44.117188 40.179688 38.128906 C 51.996094 37.957031 69.898438 38.175781 69.085938 37.191406 L 61.78125 29.835938 C 73.320313 26.777344 85.128906 30.328125 93.703125 32.96875 C 97.554688 29.976563 93.636719 26.191406 88.941406 22.328125 C 98.75 23.617188 107.609375 25.839844 115.621094 28.898438 C 119.902344 25.09375 112.84375 21.285156 109.425781 17.480469 C 124.582031 20.3125 131.003906 24.289063 137.382813 28.273438 C 142.011719 23.902344 137.644531 20.1875 134.523438 16.386719 C 145.949219 20.554688 151.835938 25.933594 158.027344 31.246094 C 160.128906 28.453125 163.367188 26.40625 159.460938 19.667969 C 167.570313 24.273438 173.679688 29.703125 178.199219 35.78125 C 183.21875 32.636719 181.191406 28.328125 181.21875 24.363281 C 189.648438 31.117188 195 38.304688 201.550781 45.324219 C 202.867188 44.378906 204.023438 41.171875 205.042969 36.09375 C 225.152344 55.316406 253.574219 103.726563 212.347656 122.917969 C 177.261719 94.414063 135.355469 73.699219 88.917969 58.15625 L 88.933594 58.148438 "/>
<path style=" stroke:none;fill-rule:nonzero;fill:rgb(38.975525%,77.230835%,30.036926%);fill-opacity:1;" d="M 405.089844 58.148438 C 345.402344 88.464844 310.703125 112.976563 291.691406 133.863281 C 301.425781 172.300781 352.21875 174.054688 370.785156 172.976563 C 366.984375 171.234375 363.8125 169.144531 362.6875 165.9375 C 367.347656 162.675781 383.871094 165.59375 395.40625 159.210938 C 390.976563 158.304688 388.902344 157.425781 386.828125 154.203125 C 397.730469 150.78125 409.46875 147.828125 416.371094 142.15625 C 412.644531 142.203125 409.164063 142.976563 404.300781 139.652344 C 414.0625 134.472656 424.480469 130.367188 432.570313 122.445313 C 427.523438 122.324219 422.085938 122.394531 420.5 120.570313 C 429.4375 115.117188 436.976563 109.054688 443.214844 102.421875 C 436.152344 103.261719 433.167969 102.539063 431.460938 101.328125 C 438.214844 94.515625 446.761719 88.761719 450.839844 80.363281 C 445.59375 82.144531 440.796875 82.828125 437.335938 80.207031 C 439.632813 75.105469 449.464844 72.101563 455.125 60.183594 C 449.605469 60.710938 443.75 61.367188 442.578125 60.183594 C 445.144531 49.894531 449.542969 44.113281 453.855469 38.125 C 442.039063 37.953125 424.136719 38.171875 424.945313 37.1875 L 432.253906 29.835938 C 420.710938 26.773438 408.902344 30.324219 400.328125 32.960938 C 396.480469 29.96875 400.398438 26.1875 405.09375 22.324219 C 395.285156 23.613281 386.421875 25.835938 378.410156 28.894531 C 374.132813 25.089844 381.191406 21.28125 384.605469 17.476563 C 369.453125 20.308594 363.03125 24.285156 356.652344 28.269531 C 352.023438 23.898438 356.386719 20.183594 359.511719 16.382813 C 348.085938 20.546875 342.199219 25.929688 336.003906 31.242188 C 333.902344 28.449219 330.667969 26.402344 334.574219 19.664063 C 326.460938 24.269531 320.355469 29.699219 315.835938 35.777344 C 310.8125 32.628906 312.84375 28.324219 312.816406 24.359375 C 304.386719 31.113281 299.03125 38.300781 292.484375 45.320313 C 291.167969 44.375 290.011719 41.164063 288.992188 36.089844 C 268.878906 55.3125 240.457031 103.722656 281.6875 122.914063 C 316.753906 94.40625 358.65625 73.6875 405.097656 58.148438 L 405.089844 58.148438 "/>
<path style=" stroke:none;fill-rule:nonzero;fill:rgb(77.099609%,9.333801%,31.355286%);fill-opacity:1;" d="M 319.199219 449.527344 C 319.40625 485.390625 287.5625 514.621094 248.078125 514.808594 C 208.589844 515 176.410156 486.078125 176.199219 450.210938 C 176.199219 449.984375 176.199219 449.757813 176.199219 449.527344 C 175.992188 413.660156 207.835938 384.433594 247.324219 384.246094 C 286.8125 384.054688 318.992188 412.976563 319.199219 448.84375 C 319.199219 449.070313 319.199219 449.300781 319.199219 449.527344 "/>
<path style=" stroke:none;fill-rule:nonzero;fill:rgb(77.099609%,9.333801%,31.355286%);fill-opacity:1;" d="M 207.71875 264.011719 C 237.34375 283.128906 242.683594 326.46875 219.648438 360.804688 C 196.609375 395.144531 153.914063 407.484375 124.289063 388.367188 C 94.664063 369.246094 89.324219 325.910156 112.363281 291.570313 C 135.398438 257.234375 178.09375 244.894531 207.71875 264.011719 "/>
<path style=" stroke:none;fill-rule:nonzero;fill:rgb(77.099609%,9.333801%,31.355286%);fill-opacity:1;" d="M 287.683594 260.550781 C 258.054688 279.667969 252.714844 323.007813 275.753906 357.34375 C 298.792969 391.683594 341.484375 404.023438 371.109375 384.90625 C 400.734375 365.785156 406.078125 322.449219 383.039063 288.109375 C 360 253.769531 317.308594 241.433594 287.683594 260.550781 "/>
<path style=" stroke:none;fill-rule:nonzero;fill:rgb(77.099609%,9.333801%,31.355286%);fill-opacity:1;" d="M 61.480469 295.46875 C 93.464844 287.023438 72.277344 425.808594 46.253906 414.421875 C 17.625 391.742188 8.402344 325.320313 61.480469 295.46875 "/>
<path style=" stroke:none;fill-rule:nonzero;fill:rgb(77.099609%,9.333801%,31.355286%);fill-opacity:1;" d="M 431.121094 293.738281 C 399.132813 285.296875 420.324219 424.085938 446.351563 412.699219 C 474.976563 390.015625 484.195313 323.589844 431.121094 293.738281 "/>
<path style=" stroke:none;fill-rule:nonzero;fill:rgb(77.099609%,9.333801%,31.355286%);fill-opacity:1;" d="M 323.84375 190.1875 C 379.042969 181.007813 424.976563 213.308594 423.121094 272.269531 C 421.304688 294.871094 303.507813 193.554688 323.84375 190.1875 "/>
<path style=" stroke:none;fill-rule:nonzero;fill:rgb(77.099609%,9.333801%,31.355286%);fill-opacity:1;" d="M 171.328125 188.457031 C 116.125 179.277344 70.199219 211.585938 72.050781 270.539063 C 73.867188 293.140625 191.664063 191.824219 171.328125 188.457031 "/>
<path style=" stroke:none;fill-rule:nonzero;fill:rgb(77.099609%,9.333801%,31.355286%);fill-opacity:1;" d="M 247.378906 174.707031 C 214.433594 173.863281 182.8125 198.792969 182.738281 213.25 C 182.644531 230.820313 208.785156 248.808594 247.601563 249.265625 C 287.242188 249.546875 312.535156 234.867188 312.664063 216.734375 C 312.808594 196.191406 276.613281 174.390625 247.378906 174.707031 "/>
<path style=" stroke:none;fill-rule:nonzero;fill:rgb(77.099609%,9.333801%,31.355286%);fill-opacity:1;" d="M 249.921875 534.984375 C 278.644531 533.746094 317.191406 544.09375 317.265625 557.820313 C 317.742188 571.152344 282.308594 601.269531 248.019531 600.6875 C 212.503906 602.195313 177.679688 572.035156 178.136719 561.578125 C 177.601563 546.246094 221.378906 534.28125 249.921875 534.984375 "/>
<path style=" stroke:none;fill-rule:nonzero;fill:rgb(77.099609%,9.333801%,31.355286%);fill-opacity:1;" d="M 143.617188 453.625 C 164.066406 477.894531 173.390625 520.53125 156.324219 533.097656 C 140.179688 542.695313 100.96875 538.742188 73.097656 499.304688 C 54.304688 466.21875 56.726563 432.542969 69.921875 422.652344 C 89.65625 410.8125 120.148438 426.804688 143.617188 453.625 "/>
<path style=" stroke:none;fill-rule:nonzero;fill:rgb(77.099609%,9.333801%,31.355286%);fill-opacity:1;" d="M 349.515625 445.933594 C 327.390625 471.460938 315.066406 518.023438 331.210938 533.019531 C 346.640625 544.667969 388.074219 543.039063 418.679688 501.214844 C 440.898438 473.121094 433.453125 426.207031 420.761719 413.75 C 401.902344 399.382813 374.835938 417.769531 349.515625 445.925781 L 349.515625 445.933594 "/>
</g>
</svg>
