<?xml version="1.0" encoding="UTF-8" standalone="no"?>
<svg
   width="505.81"
   height="297.724"
   viewBox="0 0 505.81 297.724"
   version="1.1"
   id="svg10"
   xmlns="http://www.w3.org/2000/svg"
   xmlns:svg="http://www.w3.org/2000/svg">
  <defs
     id="defs14" />
  <g
     fill="#f26b00"
     id="g8"
     transform="translate(-47.094,-151.138)">
    <path
       d="m 142.536,198.858 c 0,26.36 -21.368,47.72 -47.72,47.72 -26.36,0 -47.722,-21.36 -47.722,-47.72 0,-26.36 21.36,-47.72 47.72,-47.72 26.355,0 47.722,21.36 47.722,47.72"
       id="path2" />
    <path
       d="M 505.18,414.225 H 238.124 c -35.25,0 -63.926,-28.674 -63.926,-63.923 0,-35.249 28.678,-63.926 63.926,-63.926 h 120.78 c 20.816,0 37.753,-16.938 37.753,-37.756 0,-20.818 -16.938,-37.756 -37.753,-37.756 H 94.81 c -7.227,0 -13.086,-5.86 -13.086,-13.085 0,-7.227 5.86,-13.086 13.085,-13.086 h 264.093 c 35.25,0 63.923,28.678 63.923,63.926 0,35.248 -28.674,63.923 -63.923,63.923 h -120.78 c -20.82,0 -37.756,16.938 -37.756,37.76 0,20.816 16.938,37.753 37.756,37.753 H 505.18 c 7.227,0 13.086,5.86 13.086,13.085 0,7.226 -5.858,13.085 -13.085,13.085 z"
       id="path4" />
    <path
       d="m 457.464,401.142 c 0,-26.36 21.36,-47.72 47.72,-47.72 26.36,0 47.72,21.36 47.72,47.72 0,26.36 -21.36,47.72 -47.72,47.72 -26.36,0 -47.72,-21.36 -47.72,-47.72"
       id="path6" />
  </g>
</svg>
