<?xml version="1.0" encoding="UTF-8" standalone="no"?>
<!-- Generator: Adobe Illustrator 16.0.0, SVG Export Plug-In . SVG Version: 6.00 Build 0)  -->

<svg
   version="1.1"
   id="svg2403"
   x="0px"
   y="0px"
   width="278.92249"
   height="453.25"
   viewBox="0 0 278.92249 453.25"
   enable-background="new 0 0 2000 750"
   xml:space="preserve"
   xmlns="http://www.w3.org/2000/svg"
   xmlns:svg="http://www.w3.org/2000/svg">
<defs
   id="defs3">
	
	
		
</defs>

<g
   id="g2412"
   transform="matrix(1.25,0,0,-1.25,-449.11625,629.125)">
	
		<g
   id="g2414">
		<g
   id="g2416">
			<g
   id="g2422">
				<g
   id="g2424">
					
						<linearGradient
   id="path2432_1_"
   gradientUnits="userSpaceOnUse"
   x1="550.94342"
   y1="-16.914101"
   x2="554.04303"
   y2="-16.914101"
   gradientTransform="matrix(90,0,0,-90,-49225.598,-1256.1011)">
						<stop
   offset="0"
   style="stop-color:#444444"
   id="stop6" />
						<stop
   offset="1"
   style="stop-color:#000000"
   id="stop8" />
					</linearGradient>
					<path
   id="path2432"
   fill="url(#path2432_1_)"
   d="M 359.293,280.162 V 252.27 c 0,-4.702 101.439,-12.576 167.528,-27.893 v 0 c 31.926,7.402 55.61,16.534 55.61,27.893 v 0 27.892 c 0,11.351 -23.684,20.493 -55.61,27.892 v 0 C 460.732,292.735 359.293,284.859 359.293,280.162"
   style="fill:url(#path2432_1_)" />
				</g>
			</g>
		</g>
	</g>
	
		<g
   id="g2434">
		<g
   id="g2436">
			<g
   id="g2442">
				<g
   id="g2444">
					
						<linearGradient
   id="path2452_1_"
   gradientUnits="userSpaceOnUse"
   x1="550.94342"
   y1="-17.753901"
   x2="554.04303"
   y2="-17.753901"
   gradientTransform="matrix(90,0,0,-90,-49225.598,-1220.1011)">
						<stop
   offset="0"
   style="stop-color:#444444"
   id="stop16" />
						<stop
   offset="1"
   style="stop-color:#000000"
   id="stop18" />
					</linearGradient>
					<path
   id="path2452"
   fill="url(#path2452_1_)"
   d="m 359.293,391.731 v -27.893 c 0,-4.702 101.439,-12.576 167.528,-27.892 v 0 c 31.926,7.399 55.61,16.534 55.61,27.892 v 0 27.893 c 0,11.352 -23.684,20.492 -55.61,27.892 v 0 C 460.732,404.304 359.293,396.428 359.293,391.731"
   style="fill:url(#path2452_1_)" />
				</g>
			</g>
		</g>
	</g>
	
		<g
   id="g2554">
		<g
   id="g2556">
			<g
   id="g2562">
				<g
   id="g2564">
					
						<linearGradient
   id="path2572_1_"
   gradientUnits="userSpaceOnUse"
   x1="550.94342"
   y1="-17.3344"
   x2="554.04303"
   y2="-17.3344"
   gradientTransform="matrix(90,0,0,-90,-49225.598,-1238.1011)">
						<stop
   offset="0"
   style="stop-color:#A61214"
   id="stop26" />
						<stop
   offset="1"
   style="stop-color:#D82023"
   id="stop28" />
					</linearGradient>
					<path
   id="path2572"
   fill="url(#path2572_1_)"
   d="M 359.293,335.946 V 252.27 c 0,6.973 223.138,20.919 223.138,55.784 v 0 83.677 c 0,-34.865 -223.138,-48.811 -223.138,-55.785"
   style="fill:url(#path2572_1_)" />
				</g>
			</g>
		</g>
	</g>
	
		<g
   id="g2574">
		<g
   id="g2576">
			<g
   id="g2582">
				<g
   id="g2584">
					
						<linearGradient
   id="path2592_1_"
   gradientUnits="userSpaceOnUse"
   x1="550.94342"
   y1="-18.1735"
   x2="554.04303"
   y2="-18.1735"
   gradientTransform="matrix(90,0,0,-90,-49225.598,-1202.1011)">
						<stop
   offset="0"
   style="stop-color:#A61214"
   id="stop36" />
						<stop
   offset="1"
   style="stop-color:#D82023"
   id="stop38" />
					</linearGradient>
					<path
   id="path2592"
   fill="url(#path2592_1_)"
   d="m 359.293,447.516 v -83.677 c 0,6.973 223.138,20.92 223.138,55.785 v 0 83.676 c 0,-34.866 -223.138,-48.812 -223.138,-55.784"
   style="fill:url(#path2592_1_)" />
				</g>
			</g>
		</g>
	</g>
	
		<g
   id="g2694">
		<g
   id="g2696">
			<g
   id="g2702">
				<g
   id="g2704">
					
						<linearGradient
   id="path2712_1_"
   gradientUnits="userSpaceOnUse"
   x1="550.94342"
   y1="-16.494499"
   x2="554.04303"
   y2="-16.494499"
   gradientTransform="matrix(90,0,0,-90,-49225.598,-1274.1011)">
						<stop
   offset="0"
   style="stop-color:#A61214"
   id="stop46" />
						<stop
   offset="1"
   style="stop-color:#D82023"
   id="stop48" />
					</linearGradient>
					<path
   id="path2712"
   fill="url(#path2712_1_)"
   d="M 359.293,224.377 V 140.7 c 0,6.973 223.138,20.92 223.138,55.784 v 0 83.677 c 0,-34.865 -223.138,-48.811 -223.138,-55.784"
   style="fill:url(#path2712_1_)" />
				</g>
			</g>
		</g>
	</g>
</g>
</svg>
