<?xml version="1.0" encoding="UTF-8" standalone="no"?>
<!-- Generator: Adobe Illustrator 17.1.0, SVG Export Plug-In . SVG Version: 6.00 Build 0)  -->

<svg
   version="1.1"
   id="Layer_1"
   x="0px"
   y="0px"
   viewBox="0 0 53 60"
   enable-background="new 0 0 210 60"
   xml:space="preserve"
   width="53"
   height="60"
   xmlns="http://www.w3.org/2000/svg"
   xmlns:svg="http://www.w3.org/2000/svg"><defs
   id="defs43">
	
	
</defs>
<g
   id="g36">
		<polygon
   fill="#202a5a"
   points="27,58 51,44 51,16 51,14.8 49.9,15.3 27,2 2,16 2,44 "
   id="polygon16" />
		<polygon
   fill="#2c448a"
   points="2,16 27,30 51,16 27,2 "
   id="polygon18" />
		<polygon
   fill="#283a79"
   points="27,58 51,44 51,14.8 43,19 42.9,20.8 27,30 "
   id="polygon20" />
		<polygon
   fill="#202a5a"
   points="2,16 2,44 27,58 27,30 "
   id="polygon22" />
		<polygon
   fill="#3558a7"
   points="0,44 0,35 27,51 27,60 "
   id="polygon24" />
		<polygon
   fill="#3558a7"
   points="0,16 0,21 27,37 27,32 "
   id="polygon26" />
		<polygon
   fill="#416fb5"
   points="27,36.9 40.3,42.8 27,51 27,60 53,44 53,39 31.1,29.5 27,32 "
   id="polygon28" />
		<polygon
   fill="#477fc1"
   points="2,33.8 0,35 27,51 40.3,42.8 38.7,42.2 27,49 2,35 "
   id="polygon30" />
		<polygon
   fill="#477fc1"
   points="27,0 0,16 27,32 31.1,29.5 11.8,18 27,9 43,19 51,14.8 "
   id="polygon32" />
		<polygon
   fill="#202a5a"
   points="13.5,19 27,11 42.9,20.8 43,19 27,9 11.8,18 "
   id="polygon34" />
	</g>
</svg>
