<?xml version="1.0" encoding="UTF-8" standalone="no"?>
<!-- Created with Inkscape (http://www.inkscape.org/) -->

<svg
   version="1.0"
   x="0.00000000"
   y="0.00000000"
   width="108"
   height="107.964"
   viewBox="0 0 108 107.964"
   id="svg2"
   xml:space="preserve"
   xmlns="http://www.w3.org/2000/svg"
   xmlns:svg="http://www.w3.org/2000/svg"
   xmlns:rdf="http://www.w3.org/1999/02/22-rdf-syntax-ns#"
   xmlns:cc="http://creativecommons.org/ns#"
   xmlns:dc="http://purl.org/dc/elements/1.1/"><metadata
   id="metadata24"><rdf:RDF><cc:Work
       rdf:about=""><dc:format>image/svg+xml</dc:format><dc:type
         rdf:resource="http://purl.org/dc/dcmitype/StillImage" /></cc:Work></rdf:RDF></metadata>
   <defs
   id="defs84">

		</defs>

		<g
   id="g46">
				<g
   id="Layer_1">
					<path
   d="M 107.96298,0 H -2.110322e-5 V 107.964 H 107.96398 V 0 Z"
   style="fill:#809cc9;stroke-width:1.1708"
   id="path49" />
					<g
   id="g51"
   transform="translate(-21.475021,13.125)">
						<path
   d="m 130.372,0 1.662,6.583 c -15.285,2.216 -28.886,4.828 -40.802,7.837 -12.857,3.247 -23.198,6.546 -31.025,9.896 -7.844,3.284 -11.507,5.952 -10.99,8 0.456,1.807 3.735,2.626 9.863,2.453 3.141,-0.058 8.252,-0.399 15.335,-1.028 7.083,-0.626 16.221,-1.536 27.415,-2.726 20.599,-2.144 34.762,-3.077 42.491,-2.8 7.711,0.21 11.944,1.784 12.688,4.725 1.007,3.988 -6.304,9.331 -21.931,16.026 -15.657,6.633 -35.88,13.076 -60.652,19.332 -20.854,5.265 -38.833,9.029 -53.939,11.291 l -1.645,-6.51 c 17.868,-2.555 33.937,-5.633 48.205,-9.236 13.326,-3.364 23.594,-6.629 30.8,-9.799 7.205,-3.169 10.533,-5.84 9.983,-8.019 -0.477,-1.886 -3.805,-2.849 -9.973,-2.891 -3.159,0.034 -7.51,0.257 -13.062,0.668 -5.566,0.414 -12.479,1.056 -20.739,1.923 C 51.242,47.1 40.594,48.14 32.126,48.846 23.646,49.555 17.325,49.897 13.15,49.876 5.14,49.802 0.76,48.256 0,45.248 -1.024,41.187 5.74,36.053 20.295,29.845 35.002,23.577 54.925,17.269 80.09,10.915 97.494,6.521 114.254,2.883 130.372,0 Z"
   style="fill:#ffffff"
   id="path53" />
      			</g>
					<g
   id="g55"
   transform="translate(-21.475021,13.125)">
						<path
   d="m 26.125,56.078 c 0.279,0 0.521,0.105 0.728,0.316 0.205,0.205 0.309,0.451 0.309,0.736 0,0.297 -0.104,0.548 -0.309,0.754 -0.206,0.205 -0.454,0.308 -0.745,0.308 -0.297,0 -0.548,-0.103 -0.753,-0.309 -0.206,-0.211 -0.309,-0.462 -0.309,-0.753 0,-0.297 0.103,-0.545 0.309,-0.745 0.21,-0.204 0.467,-0.307 0.77,-0.307 z m 0,6.803 c 0.279,0 0.521,0.107 0.728,0.318 0.205,0.207 0.309,0.456 0.309,0.748 0,0.292 -0.104,0.541 -0.309,0.748 -0.217,0.201 -0.465,0.301 -0.745,0.301 -0.148,0 -0.287,-0.027 -0.415,-0.082 -0.128,-0.054 -0.241,-0.128 -0.338,-0.223 -0.098,-0.095 -0.173,-0.206 -0.228,-0.336 -0.055,-0.129 -0.081,-0.268 -0.081,-0.417 0,-0.292 0.103,-0.542 0.309,-0.748 0.21,-0.206 0.467,-0.309 0.77,-0.309 z"
   style="fill:#ffffff"
   id="path57" />
						<path
   d="m 29.779,56.078 c 0.28,0 0.522,0.105 0.728,0.316 0.206,0.205 0.309,0.451 0.309,0.736 0,0.297 -0.103,0.548 -0.309,0.754 -0.205,0.205 -0.453,0.308 -0.744,0.308 -0.297,0 -0.549,-0.103 -0.754,-0.309 C 28.803,57.672 28.7,57.421 28.7,57.13 c 0,-0.297 0.103,-0.545 0.309,-0.745 0.211,-0.204 0.468,-0.307 0.77,-0.307 z m 0,6.803 c 0.28,0 0.522,0.107 0.728,0.318 0.206,0.207 0.309,0.456 0.309,0.748 0,0.292 -0.103,0.541 -0.309,0.748 -0.217,0.201 -0.465,0.301 -0.744,0.301 -0.148,0 -0.287,-0.027 -0.416,-0.082 C 29.219,64.86 29.106,64.786 29.009,64.691 28.912,64.596 28.836,64.485 28.782,64.355 28.727,64.226 28.7,64.087 28.7,63.938 c 0,-0.292 0.103,-0.542 0.309,-0.748 0.211,-0.206 0.468,-0.309 0.77,-0.309 z"
   style="fill:#ffffff"
   id="path59" />
					</g>
					
					
					
					
					
					
					
					
					
					
					
				</g>
			</g>
	</svg>
