<?xml version="1.0" encoding="UTF-8" standalone="no"?>
<svg
   role="img"
   viewBox="-0.34 -5.84 199.36797 212.87224"
   version="1.1"
   id="svg31"
   width="199.36797"
   height="212.87224"
   xmlns:xlink="http://www.w3.org/1999/xlink"
   xmlns="http://www.w3.org/2000/svg"
   xmlns:svg="http://www.w3.org/2000/svg">
  <defs
     id="defs15">
    <linearGradient
       id="a"
       x1="17.250999"
       x2="170.78101"
       y1="987.13098"
       y2="819.79999"
       gradientTransform="matrix(1,0,0,-1,0,1008.073)"
       gradientUnits="userSpaceOnUse">
      <stop
         offset="0"
         stop-color="#a677b4"
         id="stop2" />
      <stop
         offset=".363"
         stop-color="#f0515a"
         id="stop4" />
      <stop
         offset="1"
         stop-color="#2b338c"
         id="stop6" />
    </linearGradient>
    <linearGradient
       id="b"
       x1="45.030998"
       x2="369.43701"
       y1="1091.246"
       y2="737.67999"
       xlink:href="#a" />
    <linearGradient
       id="c"
       x1="73.959999"
       x2="398.36499"
       y1="1117.7889"
       y2="764.22302"
       xlink:href="#a" />
    <linearGradient
       id="d"
       x1="120.119"
       x2="444.52399"
       y1="1160.141"
       y2="806.57501"
       xlink:href="#a" />
    <linearGradient
       id="e"
       x1="176.5"
       x2="500.90601"
       y1="1211.8719"
       y2="858.30701"
       xlink:href="#a" />
    <linearGradient
       id="f"
       x1="199.834"
       x2="524.23999"
       y1="1233.282"
       y2="879.716"
       xlink:href="#a" />
    <linearGradient
       id="g"
       x1="250.20399"
       x2="574.60999"
       y1="1279.4969"
       y2="925.93201"
       xlink:href="#a" />
    <linearGradient
       xlink:href="#a"
       id="linearGradient339"
       gradientUnits="userSpaceOnUse"
       gradientTransform="matrix(1,0,0,-1,-14.189395,994.21806)"
       x1="17.250999"
       y1="987.13098"
       x2="170.78101"
       y2="819.79999" />
  </defs>
  <path
     fill="url(#a)"
     fill-rule="evenodd"
     d="m 80.625605,88.744061 v 2.086 m 55.066005,65.574999 1.815,-0.488 0.216,1.409 c 1.03,6.473 0.569,12.08 -2.058,17.795 4.063,0.569 7.61,2.52 9.48,6.663 1.327,2.926 2.6,6.338 2.627,9.589 a 8.092,8.092 0 0 1 -2.654,6.392 6.298,6.298 0 0 1 -3.982,1.436 h -21.208 c -1.22,3.331 -3.63,6.392 -7.151,7.313 a 16.363,16.363 0 0 1 -3.007,0.406 63.93,63.93 0 0 1 -3.196,0.081 c -2.735,0.027 -5.471,0 -8.207005,0 q -6.419,-0.081 -12.838,-0.243 a 6.84,6.84 0 0 1 -6.04,-3.928 6.817,6.817 0 0 1 -6.014,3.928 c -4.306,0.108 -8.586,0.19 -12.866,0.243 -2.735,0.027 -5.47,0.054 -8.207,0 a 63.96,63.96 0 0 1 -3.196,-0.081 14.341,14.341 0 0 1 -3.033,-0.406 c -3.521,-0.921 -5.905,-4.009 -7.151,-7.313 h -21.019 a 6.298,6.298 0 0 1 -3.981,-1.436 8.092,8.092 0 0 1 -2.655,-6.392 c 0,-3.25 1.3,-6.663 2.6,-9.589 a 10.91,10.91 0 0 1 3.142,-4.063 12.798,12.798 0 0 1 6.149,-2.6 c -2.627,-5.715 -3.088,-11.322 -2.059,-17.795 l 0.217,-1.409 2.032,0.542 a 28.742,28.742 0 0 1 0.975,-3.63 23.572,23.572 0 0 1 7.502,-10.915 19.596,19.596 0 0 1 4.09,-2.52 72.434,72.434 0 0 1 1.544,-11.538 52.578,52.578 0 0 1 4.497,-14.843 20.546,20.546 0 0 1 -2.763,-4.36 8.31,8.31 0 0 1 -0.298,-0.732 63.245,63.245 0 0 1 -17.958,-15.221999 c -2.98,-3.657 -7.34,-9.345 -7.72,-14.14 -0.19,-1.679 -0.243,-3.358 -0.27,-5.01 a 89.647,89.647 0 0 1 0.65,-12.054 c 0.27,-2.329 0.65,-4.658 1.11,-6.96 a 64.656,64.656 0 0 1 -8.0439995,-11.593 58.683,58.683 0 0 1 -6.71800002,-20.992 57.343,57.343 0 0 1 1.65200002,-21.77700042 8.208,8.208 0 0 1 7.91,-6.01299998 c 13.8679995,0 25.8399995,5.65999998 36.9719995,12.974 a 65.22,65.22 0 0 1 68.148005,0 c 11.105,-7.31300002 23.077,-12.974 36.945,-12.974 a 8.122,8.122 0 0 1 7.882,6.03999998 57.963,57.963 0 0 1 1.626,21.77700042 58.683,58.683 0 0 1 -6.718,20.992 64.517,64.517 0 0 1 -8.017,11.593 c 0.433,2.194 0.785,4.387 1.083,6.636 a 88.504,88.504 0 0 1 0.677,12.27 c -0.027,1.706 -0.08,3.412 -0.27,5.065 -0.434,4.93 -4.66,10.455 -7.72,14.193 a 63.686,63.686 0 0 1 -17.958,15.221999 l -0.325,0.731 a 37.504,37.504 0 0 1 -1.923,3.549 16.767,16.767 0 0 1 -2.221,2.898 42.515,42.515 0 0 1 1.517,4.036 55.319,55.319 0 0 1 2.085,8.91 c 0.325,1.545 0.623,3.116 0.84,4.66 6.149,-10.293 14.329,-19.584 24.621,-25.299 a 39.094,39.094 0 0 1 19.854,-5.309 c 7.395,0.19 14.654,3.63 20.26,8.343 6.149,5.173 11.16,12.568 12,20.72 a 11.798,11.798 0 0 1 -0.271,4.01 14.902,14.902 0 0 1 -8.397,9.642 c -5.092,2.384 -11.457,2.302 -15.737,-1.733 -2.41,-2.303 -3.169,-4.822 -4.388,-7.774 a 9.28,9.28 0 0 0 -3.033,-4.226 10.609,10.609 0 0 0 -7.151,-2.14 c -3.657,0.244 -6.907,2.33 -9.48,4.822 a 49.083,49.083 0 0 0 -4.063,4.496 76.474,76.474 0 0 0 -6.582,9.534 61.56,61.56 0 0 0 -4.009,7.882 3.527,3.527 0 0 1 -0.216,0.46 1.004,1.004 0 0 0 0.054,0.245 z m 5.607,-23.078 a 2.322,2.322 0 0 1 0.975,0.19 c 1.246,-1.463 2.546,-2.898 3.9,-4.225 0.433,-0.407 0.867,-0.813 1.273,-1.165 a 13.11,13.11 0 0 1 -4.063,-4.47 14.278,14.278 0 0 1 -1.76,-4.929 63.257,63.257 0 0 0 -7.639,7.963 c -0.135,1.87 1.707,4.036 2.98,5.038 a 6.69,6.69 0 0 0 4.334,1.598 z m -1.924,3.874 a 11.52,11.52 0 0 1 -4.875,-2.275 13.25,13.25 0 0 1 -3.548,-4.226 87.89,87.89 0 0 0 -6.5,10.862 18.604,18.604 0 0 1 1.976,1.381 20.884,20.884 0 0 1 5.418,6.5 84.486,84.486 0 0 1 7.53,-12.242 z m 33.1,-10.51 a 1.58,1.58 0 0 1 -0.163,0.705 c 4.117,4.035 3.927,8.748 6.5,11.186 4.524,4.307 14.573,-0.542 13.95,-6.744 -0.569,-5.39 -3.684,-10.753 -8.018,-14.979 -0.027,-0.027 -0.054,-0.054 -0.08,-0.054 a 3.255,3.255 0 0 0 -2.303,-0.867 c -5.472,-0.243 -9.697,5.499 -9.887,10.753 z m -3.847,-1.977 a 16.248,16.248 0 0 1 1.165,-3.954 14.833,14.833 0 0 1 9.1,-8.451 25.418,25.418 0 0 0 -12.35,-3.955 23.068,23.068 0 0 0 -3.603,0.163 c -0.379,0.27 -0.731,0.541 -0.92,0.704 a 6.476,6.476 0 0 0 -0.624,0.596 c -2.735,3.088 -2.41,9.047 -0.054,12.243 a 2.229,2.229 0 0 1 0.325,0.677 16.834,16.834 0 0 1 6.961,1.977 z m -11.457,-1.652 a 15.486,15.486 0 0 1 -1.76,-6.934 14.637,14.637 0 0 1 1.191,-6.257 39.24,39.24 0 0 0 -6.717,2.98 c -1.273,0.704 -2.546,1.516 -3.82,2.383 0,0.027 -0.026,0.027 -0.026,0.054 -1.165,1.707 -0.055,4.74 0.866,6.338 a 8.616,8.616 0 0 0 3.657,3.576 1.474,1.474 0 0 1 0.487,0.298 19.946,19.946 0 0 1 6.122,-2.438 z M 74.693605,11.739061 a 1.923,1.923 0 1 1 -1.923,1.923 1.896,1.896 0 0 1 1.923,-1.923 z m 0,8.478 a 1.923,1.923 0 1 1 -1.923,1.923 1.93,1.93 0 0 1 1.923,-1.923 z m 11.89,-8.478 a 1.923,1.923 0 1 1 -1.922,1.923 1.93,1.93 0 0 1 1.923,-1.923 z m 0,8.478 a 1.923,1.923 0 1 1 -1.922,1.923 1.93,1.93 0 0 1 1.923,-1.923 z m -4.333,-14.7900004 V 28.425061 c 12.297,0.27 24.377005,3.683 31.799005,10.211 8.56,7.557 14.274,20.64 13.651,27.52 -0.541,6.175 -10.4,10.346 -23.537,12.513 a 11.949,11.949 0 0 1 1.354,3.792 17.257,17.257 0 0 1 -0.027,5.661 145.075,145.075 0 0 0 13.407,-2.167 131.138,131.138 0 0 0 20.721,-6.23 7.423,7.423 0 0 0 0.46,-1.896 c 0,0 2.845,-25.894 -11.836,-47.102 A 57.633,57.633 0 0 0 82.250605,5.4280606 Z m -3.223,22.9980004 V 5.4280606 a 57.642,57.642 0 0 0 -46.48,26.0560004 c -14.084,21.073 -11.322,46.371 -11.322,46.371 a 8.306,8.306 0 0 0 0.542,1.95 132.91,132.91 0 0 0 20.613,6.176 c 4.008,0.84 8.45,1.598 13.434,2.167 a 17.256,17.256 0 0 1 -0.027,-5.66 11.949,11.949 0 0 1 1.354,-3.793 c -13.136,-2.167 -22.996,-6.365 -23.537,-12.514 -0.623,-6.88 5.092,-19.962 13.651,-27.519 7.395,-6.555 19.475,-9.967 31.772,-10.237 z m -22.157,63.082 a 145.37,145.37 0 0 1 -15.141,-2.384 132.894,132.894 0 0 1 -17.715,-5.065 45.97,45.97 0 0 0 2.899,3.955 58.164,58.164 0 0 0 26.842,18.363999 84.047,84.047 0 0 0 10.482,2.817 c 0,-0.027 -0.027,-0.081 -0.027,-0.108 a 5.798,5.798 0 0 1 -0.298,-2.953 c 0.433,-2.492 2.302,-4.063 4.713,-5.065 -4.55,-1.543999 -8.64,-4.116999 -11.024,-8.206999 a 7.435,7.435 0 0 1 -0.731,-1.354 z m 11.538,15.979999 c 0.515,1.328 2.221,2.357 4.361,3.061 2.6,0.298 5.228,0.542 7.855,0.704 2.654,-0.162 5.309,-0.379 7.91,-0.704 2.003,-0.65 3.629,-1.57 4.252,-2.79 2.708,-5.254 -26.22,-5.119 -24.378,-0.27 z M 137.23461,84.085061 a 134.797,134.797 0 0 1 -17.66,5.038 146.536,146.536 0 0 1 -15.141,2.384 c -0.217,0.46 -0.434,0.894 -0.678,1.327 -2.383,4.063 -6.446005,6.663 -10.997005,8.206999 2.357,1.002 4.172,2.546 4.632,4.957 a 5.733,5.733 0 0 1 -0.298,3.169 68.854,68.854 0 0 0 24.296005,-9.479999 62.254,62.254 0 0 0 13.625,-12.785 c 0.785,-0.894 1.516,-1.869 2.22,-2.817 z m -57.775005,8.424 c -1.219,2.14 -3.738,5.336 -9.046,4.253 -6.528,-2.113 -11.214,-6.501 -10.05,-13.516 1.057,-6.339 11.593,-10.293 20.234,-10.212 h 0.081 c 8.64,-0.081 19.177,3.873 20.206005,10.212 1.002,6.067 -2.356005,10.184 -7.530005,12.54 -7.665,2.844 -10.346,-0.866 -11.538,-3.223 -0.57,-1.137 -0.813,-1.733 -1.11,-1.76 h -0.082 c -0.244,0.108 -0.542,0.65 -1.165,1.706 z m 1.165,-16.522 c -5.228,0 -11.566,1.516 -12.189,4.767 -1.029,5.39 6.961,7.99 12.189,7.99 h 0.108 c 5.228,-0.027 13.137,-2.627 12.108,-7.99 -0.623,-3.25 -6.961,-4.767 -12.189,-4.767 z m -14.571,-10.564 a 1.95,1.95 0 1 1 -3.9,0 8.738,8.738 0 0 0 -2.06,-5.742 6.271,6.271 0 0 0 -4.685,-2.248 5.88,5.88 0 0 0 -3.359,1.056 7.458,7.458 0 0 0 -2.546,3.06 1.933,1.933 0 1 1 -3.494,-1.652 11.794,11.794 0 0 1 3.873,-4.631 9.77,9.77 0 0 1 5.553,-1.734 9.99,9.99 0 0 1 7.584,3.576 12.773,12.773 0 0 1 3.034,8.315 z m 29.171,0 a 1.95,1.95 0 0 0 3.9,0 8.739,8.739 0 0 1 2.060005,-5.742 6.227,6.227 0 0 1 4.685,-2.248 5.881,5.881 0 0 1 3.359,1.056 7.458,7.458 0 0 1 2.546,3.06 1.945,1.945 0 0 0 3.521,-1.652 11.794,11.794 0 0 0 -3.873,-4.631 9.77,9.77 0 0 0 -5.553,-1.734 9.99,9.99 0 0 0 -7.584005,3.576 12.651,12.651 0 0 0 -3.06,8.315 z m 1.571,51.842999 a 53.018,53.018 0 0 1 -12.784,2.41 53.939,53.939 0 0 1 -28.793,-6.365 c -1.706,-0.488 -3.358,-1.056 -5.01,-1.652 a 33.206,33.206 0 0 0 16.17,11.7 c -6.582,-1.11 -13.245,-3.141 -18.392,-6.716 -3.331,7.204 -5.363,17.226 -3.737,30.905 q 0.568,4.672 1.462,8.857 c 8.668,-3.928 14.735,-2.357 22.265,2.654 a 107.095,107.095 0 0 1 4.55,-24.486 c 0.515,-1.543 1.192,-2.302 2.113,-2.383 0.975,-0.081 2.627,-0.027 2.573,2.844 -0.298,1.165 -0.542,2.546 -0.731,3.548 -0.515,2.655 -0.921,5.363 -1.327,8.045 -0.38,2.654 -0.759,5.309 -1.084,7.99 -0.217,1.706 -0.433,3.467 -0.569,5.2 -0.054,0.976 -0.108,1.95 -0.135,2.926 a 48.962,48.962 0 0 0 12.27,-0.081 98.53,98.53 0 0 0 -0.136,-2.872 c -0.298,-4.28 -0.948,-8.775 -1.57,-13.028 -0.38,-2.546 -0.786,-5.12 -1.274,-7.638 a 33.989,33.989 0 0 0 -1.137,-4.632 c 0.081,-2.844 3.792,-3.467 4.821,-0.325 a 105.3,105.3 0 0 1 4.713,25.19 c 6.799,-3.9 15.791005,-6.798 22.292005,-3.169 0.569,-2.736 1.03,-5.607 1.408,-8.64 1.517,-12.65 -0.108,-22.184 -3.006,-29.226 -5.2,3.06 -11.810005,4.686 -18.175005,5.498 a 33.188,33.188 0 0 0 17.579005,-12.161 83.331,83.331 0 0 1 -5.011,1.652 51.02,51.02 0 0 1 -9.345005,3.955 z M 21.171605,3.9110606 a 71.554,71.554 0 0 1 19.42,9.0460004 63.688,63.688 0 0 0 -7.014,6.555 c -1.165,-1.923 -2.438,-3.792 -3.765,-5.634 a 66.474,66.474 0 0 0 -8.64,-9.9670004 z m -11.4029995,-1.598 h 0.6499995 c 7.693,4.225 14.572,12.8110004 19.637,21.3430004 a 94.484,94.484 0 0 0 -3.006,4.117 71.128,71.128 0 0 0 -8.64,18.148 c -6.203,-8.342 -14.0849995,-23.673 -8.8579995,-43.4460004 0.082,-0.027 0.136,-0.108 0.217,-0.162 z m 141.7400045,0 h -0.65 c -7.692,4.225 -14.571,12.8110004 -19.636,21.3430004 a 49.15,49.15 0 0 1 2.41,3.305 70.819,70.819 0 0 1 9.21,18.987 c 6.202,-8.342 14.084,-23.673 8.857,-43.4460004 l -0.19,-0.19 z m -11.402,1.598 a 71.181,71.181 0 0 0 -19.42,9.0460004 63.968,63.968 0 0 1 7.014,6.582 97.701,97.701 0 0 1 3.765,-5.66 66.473,66.473 0 0 1 8.64,-9.9680004 z M 47.066605,162.30906 a 96.06,96.06 0 0 0 7.827,20.26 3.44,3.44 0 0 0 1.653,1.626 c 2.681,1.625 6.446,3.386 7.096,10.076 -3.06,-3.9 -5.986,-6.69 -10.482,-7.665 a 8.568,8.568 0 0 0 -6.42,2.194 c -3.71,3.846 -1.029,10.482 1.22,11.078 2.249,0.596 25.325,0 25.325,0 0,0 0.948,-4.307 -0.84,-6.69 -1.76,-2.411 -4.496,-14.681 -4.686,-27.736 -5.417,-4.74 -13.787,-7.937 -20.694,-3.142 z m 64.816005,0 a 97.823,97.823 0 0 1 -7.8,20.26 3.689,3.689 0 0 1 -1.653,1.626 c -2.681005,1.625 -6.446005,3.386 -7.096005,10.076 3.06,-3.9 5.986005,-6.69 10.482005,-7.665 2.194,-0.027 4.713,0.406 6.42,2.194 3.71,3.846 1.029,10.482 -1.22,11.078 -2.249,0.596 -25.325005,0 -25.325005,0 0,0 -0.948,-4.307 0.84,-6.69 1.76,-2.411 4.523,-14.681 4.713,-27.736 5.363,-4.74 13.732005,-7.937 20.640005,-3.142 z m -30.309005,29.01 c -0.677,0 -1.381,0.027 -2.086,0.027 h -1.652 a 14.85,14.85 0 0 0 -0.84,-1.409 16.35,16.35 0 0 1 -0.866,-2.438 64.262,64.262 0 0 1 -1.571,-7.042 90.6,90.6 0 0 1 -1.246,-13.3 43.411,43.411 0 0 0 12.703,-0.107 86.485,86.485 0 0 1 -1.598,15.411 c -0.352,1.788 -1.246,6.122 -2.167,7.72 a 12.554,12.554 0 0 0 -0.677,1.138 z m 50.434005,-27.926 c 0.19,12.487 -7.692,17.416 -12.297,21.1 20.965,-9.534 23.375,6.69 21.208,8.478 h -21.696 a 11.736,11.736 0 0 0 -9.02,-11.051 83.095,83.095 0 0 0 4.226,-10.78 c 6.122,-3.278 13.327,-6.637 17.579,-7.747 z m -11.457,-18.338 c 5.254,2.437 8.559,7.99 9.29,14.22 a 83.64,83.64 0 0 0 -12.839,5.417 118.312,118.312 0 0 0 3.224,-16.495 c 0.135,-1.003 0.243,-2.059 0.325,-3.142 z m -82.152005,0.108 c -5.174,2.492 -8.397,8.017 -9.101,14.193 a 86.562,86.562 0 0 1 12.622,5.363 118.312,118.312 0 0 1 -3.223,-16.495 106.76,106.76 0 0 1 -0.298,-3.061 z m -11.485,18.229 c -0.19,12.487 7.693,17.416 12.325,21.1 -20.992,-9.534 -23.376,6.69 -21.236,8.478 h 21.318 a 12.284,12.284 0 0 1 3.359,-8.045 12.506,12.506 0 0 1 5.498,-3.277 82.55,82.55 0 0 1 -1.246,-2.709 q -1.747,-4.022 -3.17,-8.207 c -5.93,-3.115 -12.73,-6.257 -16.847,-7.34 z"
     id="path17"
     style="fill:url(#linearGradient339)" />
</svg>
