<?xml version="1.0" encoding="UTF-8" standalone="no"?>
<!-- Generator: Adobe Illustrator 22.1.0, SVG Export Plug-In . SVG Version: 6.00 Build 0)  -->

<svg
   version="1.1"
   id="Layer_1"
   x="0px"
   y="0px"
   viewBox="0 0 96.641418 95.950722"
   xml:space="preserve"
   width="96.641418"
   height="95.950722"
   xmlns="http://www.w3.org/2000/svg"
   xmlns:svg="http://www.w3.org/2000/svg"
   xmlns:rdf="http://www.w3.org/1999/02/22-rdf-syntax-ns#"
   xmlns:cc="http://creativecommons.org/ns#"
   xmlns:dc="http://purl.org/dc/elements/1.1/"><defs
   id="defs127">
	
	
</defs>
<style
   type="text/css"
   id="style2">
	.st0{fill:#6D655A;}
	.st1{font-family:'ProximaNova-Regular';}
	.st2{font-size:18.9557px;}
	.st3{fill:#CA3349;}
	.st4{fill:#F2EBAC;}
	.st5{fill:#E6CBAC;}
	.st6{fill:#656C67;}
	.st7{fill:#E4C9A2;}
	.st8{fill:#C6B299;}
	.st9{fill:#EAD498;}
	.st10{fill:#2D3136;}
	.st11{fill:#EDF6F9;}
	.st12{opacity:0.8;}
	.st13{opacity:0.75;fill:#EAD498;enable-background:new    ;}
</style>
<title
   id="title4">16651-Lansa-Media-300px</title>

<g
   id="g103">
		<g
   id="g101">
			<g
   id="g14">
				<path
   class="st3"
   d="m 23.1,41.8 c 0,0 -15,10.6 -15.6,14.6 l 1.1,-0.2 c 0,0 18,-11.9 32.3,-13.4 L 41.2,41 Z"
   id="path8" />
				<path
   class="st3"
   d="m 46.7,40.3 -11.8,8.4 0.6,0.5 c 0.5,-0.4 21,-6.7 21,-6.7 l 4.3,-2.7 C 58,40.2 46.7,40.3 46.7,40.3 Z"
   id="path10" />
				<path
   class="st3"
   d="m 57,50.5 c 8.4,0 21,-8.2 21,-8.2 l -4.1,-0.8 c -0.2,0.2 -6.6,-0.2 -6.6,-0.2 l -3,-0.8 -7.2,8.2 -0.6,1.4 C 57,49.9 57,50.5 57,50.5 Z"
   id="path12" />
			</g>
			<path
   class="st3"
   d="m 84.4,76.8 -2.6,0.7 -12,-0.3 -7.5,-5.8 -9.1,2.3 -10.5,-0.9 -5.9,6.4 -11,3.3 -5.5,-1.7 C 20.1,80.6 20,80.6 20,80.6 l 2.5,6.1 c 0,0 5.6,6 8.7,6.7 3.1,0.7 8.8,-0.1 13,-0.7 4.2,-0.7 7.6,-2.2 9,-4.6 1.4,-2.5 1.6,-3.2 1.6,-3.2 0,0 4,5.7 7.5,6.4 3.5,0.7 13.8,-2.9 13.8,-2.9 0,0 6.3,-1.7 7.4,-3.9 1.1,-2.2 4,-9.3 4,-9.3 z m -62.9,4.9 c -0.1,0 -0.1,-0.1 -0.2,-0.1 -0.4,-0.4 -0.8,-0.6 -1,-0.8 z"
   id="path16" />
			<g
   id="g99">
				<path
   class="st4"
   d="m 94.6,33.9 c 0,-0.3 -0.1,-0.6 -0.1,-1 0,-0.2 -0.1,-0.5 -0.1,-0.7 -0.9,-0.7 -1.9,-1.4 -2.9,-2 C 90.4,29.6 89.2,29 88,28.4 86.8,27.8 85.6,27.3 84.4,26.9 83.8,26.7 83.2,26.4 82.6,26.2 82,26 81.4,25.7 80.7,25.5 c 1.3,0.2 2.6,0.5 3.9,0.8 0.8,0.2 1.7,0.5 2.5,0.7 C 81.3,11.8 67.3,1.8 52,1.8 c -15.3,0 -29.3,10 -35.1,25.3 0.8,-0.3 1.7,-0.5 2.5,-0.7 1.3,-0.3 2.6,-0.6 3.9,-0.8 -0.6,0.2 -1.2,0.4 -1.9,0.7 -0.6,0.2 -1.2,0.5 -1.8,0.7 -1.2,0.5 -2.4,1 -3.6,1.5 -1.2,0.5 -2.3,1.1 -3.5,1.8 -1,0.6 -2,1.2 -2.9,2 0,0.2 -0.1,0.5 -0.1,0.7 0,0.3 -0.1,0.6 -0.1,1 -0.1,0.7 -0.1,1.3 -0.1,2 0,1.3 0.1,2.6 0.2,3.9 0.2,1.3 0.4,2.6 0.8,3.8 0.2,0.6 0.4,1.2 0.6,1.8 0.1,0.3 0.2,0.6 0.4,0.9 0.1,0.1 0.1,0.3 0.2,0.4 l 0.1,0.2 c 0.1,0 0.2,0.1 0.3,0.1 l 0.6,0.3 c 0.3,0.1 0.8,0.4 1.1,0.5 0,0 0,0 0.1,-0.1 l -1.1,-4.1 c 0.2,-0.1 2.3,-0.6 5.8,-1.3 -0.3,-0.1 -0.6,-0.1 -0.9,-0.2 -0.8,-0.2 -1.6,-0.4 -2.4,-0.8 -0.4,-0.2 -0.8,-0.3 -1.1,-0.5 -0.4,-0.2 -0.7,-0.4 -1,-0.7 3.9,1.3 11.9,0.7 19,0 6.5,-0.7 13.1,-1.1 19.6,-1.1 6.6,0 13.1,0.4 19.6,1.1 7.1,0.7 15.2,1.3 19,0 -0.3,0.3 -0.6,0.5 -1,0.7 -0.4,0.2 -0.7,0.4 -1.1,0.5 -0.8,0.3 -1.6,0.6 -2.4,0.8 -0.1,0 -0.2,0.1 -0.4,0.1 3.9,0.7 6.1,1.3 6.4,1.4 l -1,3.9 c 0.2,-0.1 0.4,-0.2 0.6,-0.3 L 91.9,47 c 0.1,0 0.2,-0.1 0.3,-0.1 l 0.1,-0.2 c 0.1,-0.1 0.1,-0.3 0.2,-0.4 0.1,-0.3 0.3,-0.6 0.4,-0.9 0.2,-0.6 0.4,-1.2 0.6,-1.8 0.4,-1.2 0.6,-2.5 0.8,-3.8 0.2,-1.3 0.3,-2.6 0.2,-3.9 0.2,-0.7 0.2,-1.4 0.1,-2 z"
   id="path18" />
				<path
   class="st5"
   d="m 56.4,88.3 c -0.5,0.1 -1,0.1 -1.5,0.2 -0.3,0 -0.7,0 -1,0 h -0.1 c 0.4,-0.9 0.7,-1.6 0.9,-2.1 0.5,0.5 1.1,1.2 1.7,1.9 z"
   id="path20" />
				<path
   class="st5"
   d="m 57.6,89.4 c 1.6,1.6 3.6,2.5 5.8,2.6 -3.7,1.5 -7.1,2.1 -9.8,2.2 -2.6,0.2 -5.3,-0.1 -8,-0.9 0.2,0 0.4,-0.1 0.6,-0.1 0.2,0 4.9,-0.6 7.1,-3.8 h 0.2 0.5 c 0.4,0 0.7,0 1,0 0.8,-0.1 1.6,-0.2 2.4,-0.3 0,0.1 0.1,0.2 0.2,0.3 z"
   id="path22" />
				<path
   class="st6"
   d="m 62.1,42.1 c -0.2,0.2 -0.3,0.4 -0.5,0.6 -0.9,1.2 -2.2,2.7 -3.8,4.2 -1.8,-0.1 -3.6,-0.1 -5.5,-0.1 -3.1,0 -6.1,0.1 -9,0.2 4,-1.7 8.8,-3.3 14.1,-4.3 1.5,-0.2 3.1,-0.5 4.7,-0.6 z"
   id="path24" />
				<path
   class="st6"
   d="m 38.6,43.9 c -1.4,1 -3.1,2.3 -4.6,3.9 -4,0.4 -7.5,0.9 -10.4,1.4 4.4,-2.2 9.5,-4 15,-5.3 z"
   id="path26" />
				<path
   class="st6"
   d="M 87.7,52.2 86.1,63.6 78.3,69.1 57.9,66.8 54.8,56.7 c -0.1,-0.2 -0.3,-0.4 -0.5,-0.5 -0.8,-0.1 -1.4,-0.2 -2,-0.2 -0.6,0 -1.2,0.1 -2,0.2 -0.3,0 -0.5,0.2 -0.5,0.5 l -3,9.9 -20.3,4.5 -8.1,-5.6 -1.6,-12.8 c 0.3,-0.2 0.7,-0.4 1.1,-0.6 0.5,-0.1 1.1,-0.2 1.7,-0.3 l 1.5,12.1 c 0,0.2 0.1,0.4 0.3,0.5 l 5.5,3.9 c 0.1,0.1 0.2,0.1 0.4,0.1 0,0 0.1,0 0.1,0 L 44,64.5 c 0.1,0 0.1,0 0.2,-0.1 0.2,-0.1 0.3,-0.2 0.3,-0.4 l 3,-9.9 c 0.8,-0.2 2.9,-0.7 4.7,-0.7 1.8,0 3.9,0.5 4.7,0.7 l 3,9.9 c 0.1,0.3 0.3,0.4 0.6,0.5 l 16.7,1.9 c 0.2,0 0.3,0 0.5,-0.1 l 5.5,-3.9 c 0.1,-0.1 0.3,-0.3 0.3,-0.5 L 85,51.5 c 1,0.3 2,0.5 2.7,0.7 z"
   id="path28" />
				<path
   class="st6"
   d="m 89.8,45 -1.4,5.5 C 85.5,49.9 79,48.6 70.2,47.7 73.1,46.5 76,44.9 78.7,43 c 5.1,0.7 9,1.5 11.1,2 z"
   id="path30" />
				<g
   id="g36">
					<path
   class="st7"
   d="m 30.9,62.1 c 1.1,-0.6 2.4,-0.5 4.4,-0.5 0.2,0 0.4,0 0.7,0 0.2,0 0.4,0 0.6,0 2.1,0 3.8,0.2 3.8,-3.1 0,-3.3 -1.5,-5.9 -3.6,-5.9 -2.1,0 -4.1,2.7 -4,5.9 0,0.8 0.2,1.5 0.4,1.9 -1.8,0.5 -2.3,1.6 -2.3,1.7 z M 55.8,48.7 C 55,49.4 54.1,50 53.3,50.5 l -2.9,1.8 c -1.8,0.2 -3.5,0.7 -3.5,0.7 -0.1,0 -0.1,0 -0.2,0.1 -0.1,0.1 -0.3,0.2 -0.3,0.4 l -3,9.9 -16,3.6 -5.1,-3.5 -1.5,-11.9 c 2.9,-0.5 6.7,-1.1 11.3,-1.7 -0.5,0.6 -1,1.2 -1.4,1.9 L 28,55.7 32,53 c 0.1,0 2.6,-1.7 6.8,-3.8 4.1,-0.3 8.7,-0.5 13.6,-0.5 1.1,-0.1 2.3,-0.1 3.4,0 z"
   id="path32" />
					<path
   class="st7"
   d="m 73.4,60.7 c 0,-0.1 -0.5,-1.4 -2.4,-1.2 0.2,-0.5 0.3,-1.1 0.3,-2 -0.3,-3.3 -2.1,-5.8 -4.2,-5.8 -2.1,0.1 -3.4,2.8 -3.3,6 0.1,3.3 1.9,3.2 3.9,3.2 2.7,0 4.3,-0.8 5.7,-0.2 z m 10.2,-9.3 -1.4,10.1 -5.1,3.6 -16,-1.8 -3,-9.8 C 58,53.3 57.9,53.1 57.6,53 57.5,53 55.5,52.4 53.4,52.2 h 0.4 c 0.3,0 5.9,-0.7 12.5,-3 7.3,0.5 13.2,1.4 17.3,2.2 z"
   id="path34" />
				</g>
				<g
   id="g42">
					<path
   class="st8"
   d="m 30.9,62.1 c 1.1,-0.6 2.4,-0.5 4.4,-0.5 0.2,0 0.4,0 0.7,0 0.2,0 0.4,0 0.6,0 2.1,0 3.8,0.2 3.8,-3.1 0,-3.3 -1.5,-5.9 -3.6,-5.9 -2.1,0 -4.1,2.7 -4,5.9 0,0.8 0.2,1.5 0.4,1.9 -1.8,0.5 -2.3,1.6 -2.3,1.7 z M 55.8,48.7 C 55,49.4 54.1,50 53.3,50.5 l -2.9,1.8 c -1.8,0.2 -3.5,0.7 -3.5,0.7 -0.1,0 -0.1,0 -0.2,0.1 -0.1,0.1 -0.3,0.2 -0.3,0.4 l -3,9.9 -16,3.6 -5.1,-3.5 -1.5,-11.9 c 2.9,-0.5 6.7,-1.1 11.3,-1.7 -0.5,0.6 -1,1.2 -1.4,1.9 L 28,55.7 32,53 c 0.1,0 2.6,-1.7 6.8,-3.8 4.1,-0.3 8.7,-0.5 13.6,-0.5 1.1,-0.1 2.3,-0.1 3.4,0 z"
   id="path38" />
					<path
   class="st8"
   d="m 73.4,60.7 c 0,-0.1 -0.5,-1.4 -2.4,-1.2 0.2,-0.5 0.3,-1.1 0.3,-2 -0.3,-3.3 -2.1,-5.8 -4.2,-5.8 -2.1,0.1 -3.4,2.8 -3.3,6 0.1,3.3 1.9,3.2 3.9,3.2 2.7,0 4.3,-0.8 5.7,-0.2 z m 10.2,-9.3 -1.4,10.1 -5.1,3.6 -16,-1.8 -3,-9.8 C 58,53.3 57.9,53.1 57.6,53 57.5,53 55.5,52.4 53.4,52.2 h 0.4 c 0.3,0 5.9,-0.7 12.5,-3 7.3,0.5 13.2,1.4 17.3,2.2 z"
   id="path40" />
				</g>
				<path
   class="st5"
   d="m 90.6,55.8 c 0.2,0.2 0.4,0.7 0.2,3.2 -0.3,3 -1.5,8.2 -2.3,9.1 -0.9,0.2 -2.7,0 -3.8,-0.3 0.2,-0.8 0.2,-1.1 0.4,-1.9 L 87,64.6 c 0.2,-0.1 0.3,-0.3 0.3,-0.5 l 1.3,-9.4 c 0.9,0.4 1.8,0.9 2,1.1 z"
   id="path44" />
				<path
   class="st5"
   d="m 19.8,68.1 c 0.1,0.3 0.2,0.7 0.3,1 -1,0.3 -3.1,0.6 -4.1,0.4 -0.8,-0.8 -2.3,-6.3 -2.6,-9.2 -0.3,-2.4 -0.1,-2.9 0.2,-3.1 0.3,-0.2 1.3,-0.8 2.2,-1.3 l 1.2,9.9 c 0,0.2 0.1,0.4 0.3,0.5 z"
   id="path46" />
				<path
   class="st5"
   d="m 58.6,68.2 -0.1,0.6 c 0,0 -2.2,2.1 -5.8,2.5 -3.6,0.5 -6.4,-1.7 -6.4,-1.7 0.1,0.4 0.3,1.2 1.1,2 -0.9,-0.1 -2,-0.2 -3.1,-0.2 -0.4,0 -0.8,0 -1.2,0 -2.2,0.1 -5.3,3.4 -7.4,6.8 -1.1,0.3 -4.4,1.4 -8.2,2.5 -3.6,-5 -5.4,-10.1 -5.5,-10.6 v 0 c -0.1,-0.2 -0.1,-0.4 -0.2,-0.6 l 0.9,0.6 v 0 l 2.3,1.6 0.8,0.5 c 0.1,0.1 0.2,0.1 0.4,0.1 0,0 0.1,0 0.1,0 l 21,-4.7 c 0.2,-0.1 0.4,-0.2 0.5,-0.5 l 3,-9.9 c 0.5,-0.1 1,-0.1 1.4,-0.1 0.4,0 0.8,0 1.4,0.1 l 3.1,10.1 c 0.1,0.3 0.3,0.4 0.6,0.5 z"
   id="path48" />
				<path
   class="st5"
   d="m 82.6,67.7 0.7,-0.5 c -0.1,0.5 -0.2,0.9 -0.4,1.4 -0.9,3 -2.1,5.7 -3.3,8 -0.3,0 -0.6,0 -0.9,0 -1,0 -1.9,-0.1 -3,-0.2 C 73.8,76.2 70.9,75.9 69.9,75.8 69.1,75.2 66.3,73 64,71.2 63.9,71.1 63.8,71.1 63.8,71 63.4,70.7 62.9,70.3 62,70.3 c -0.8,0 -2.1,0.3 -5.1,1.2 1.6,-1.2 1.6,-2.7 1.6,-2.7 l 0.1,-0.6 19.7,2.2 c 0.2,0 0.3,0 0.5,-0.1 l 2,-1.4 z"
   id="path50" />
				<path
   class="st9"
   d="m 68.1,26.3 c 0.1,1.8 0,4.9 -0.8,7.9 0,0.1 0,0.2 0,0.3 -1,-0.1 -2.1,-0.2 -3.1,-0.3 1.2,-2.4 1.4,-5 1.5,-6 0.9,-0.6 1.8,-1.3 2.4,-1.9 z"
   id="path52" />
				<path
   class="st9"
   d="m 38.4,28.3 c 0.1,0.9 0.3,3.5 1.5,6 -1,0.1 -2.1,0.2 -3.1,0.3 0,-0.1 0,-0.2 0,-0.3 -0.8,-3 -0.9,-6.1 -0.8,-7.9 0.6,0.5 1.5,1.2 2.4,1.9 z"
   id="path54" />
				<path
   class="st10"
   d="M 73.4,60.7 C 72,60 70.5,60.9 67.7,60.9 65.6,61 63.9,61 63.8,57.7 c -0.1,-3.3 1.2,-6 3.3,-6 2.1,-0.1 4,2.5 4.2,5.8 0.1,0.9 0,1.5 -0.3,2 1.9,-0.2 2.4,1.2 2.4,1.2 z M 66.9,56 c 0.6,0 1.1,-0.5 1,-1.1 0,-0.6 -0.5,-1.1 -1.1,-1 -0.6,0 -1.1,0.5 -1,1.1 0,0.5 0.5,1 1.1,1 z"
   id="path56" />
				<circle
   class="st11"
   cx="66.800003"
   cy="54.900002"
   id="ellipse58"
   r="1.1" />
				<path
   class="st10"
   d="m 40.3,58.5 c 0,3.3 -1.7,3.1 -3.8,3.1 -0.2,0 -0.4,0 -0.6,0 -0.2,0 -0.5,0 -0.7,0 -2,0 -3.3,-0.1 -4.4,0.5 0,-0.1 0.5,-1.2 2.3,-1.6 -0.2,-0.4 -0.3,-1.1 -0.4,-1.9 -0.1,-3.3 1.9,-5.9 4,-5.9 2.2,-0.1 3.6,2.5 3.6,5.8 z m -3.2,-1.8 c 0.6,0 1,-0.5 1,-1.1 0,-0.6 -0.5,-1 -1.1,-1 -0.6,0 -1,0.5 -1,1.1 0.1,0.6 0.6,1.1 1.1,1 z"
   id="path60" />
				<circle
   class="st11"
   cx="37.099998"
   cy="55.700001"
   id="ellipse62"
   r="1.1" />
				<g
   class="st12"
   id="g68">
					<path
   class="st9"
   d="m 24.5,36.3 c 0,0 0.3,-4.2 1,-5.8 0.3,-0.8 2.4,-1.4 4,-1.7 1.6,-0.4 4.1,-1.1 4.6,1.1 0.5,2.2 1.3,3.8 1.8,4.6 l -0.7,-9.2 -10.9,2.6 -0.7,8.1 0.3,0.6 0.6,-0.3"
   id="path64" />
					<path
   class="st9"
   d="m 79.7,36.3 c 0,0 -0.3,-4.2 -1,-5.8 -0.3,-0.8 -2.4,-1.4 -4,-1.7 -1.6,-0.4 -4.1,-1.1 -4.6,1.1 -0.5,2.2 -1.3,3.8 -1.8,4.6 l 0.7,-9.2 10.9,2.6 0.7,8.1 -0.3,0.6 -0.6,-0.3"
   id="path66" />
				</g>
				<path
   class="st13"
   d="m 64.3,8.9 c 0,0 -0.3,22 -5.4,22 -5.1,0 -6.2,0 -6.2,0 h -1 c 0,0 -1,0 -6.2,0 -5.2,0 -5.5,-22 -5.5,-22 l -2.5,7.5 v 10.2 l 1.8,1.4 0.8,4.4 1.1,2.6 h 22 l 1,-1.8 0.9,-3.1 0.1,-2 2.4,-6.9 z"
   id="path70" />
				<path
   class="st13"
   d="m 80.4,29.4 c 0,0 1.1,7.6 3.9,9 2.8,1.4 0,0 0,0 l -3.9,-1.2 z"
   id="path72" />
				<path
   class="st13"
   d="m 23.6,29.4 c 0,0 -1.1,7.6 -3.9,9 -2.8,1.4 0,0 0,0 l 3.9,-1.2 z"
   id="path74" />
				<path
   class="st10"
   d="m 81.2,37.1 c 1.3,0.4 2.7,0.9 3.9,1.6 -0.6,-0.3 -1.3,-0.4 -2,-0.6 -0.7,-0.2 -1.3,-0.3 -2,-0.4 C 79.7,37.4 78.4,37.2 77,37.1 75.6,36.9 74.3,36.8 72.9,36.7 71.5,36.6 70.1,36.5 68.8,36.4 63.3,36.1 57.7,36 52.2,36 c -5.5,0 -11.1,0.1 -16.6,0.4 -1.4,0.1 -2.8,0.2 -4.1,0.3 -1.4,0.1 -2.8,0.3 -4.1,0.4 -1.4,0.2 -2.7,0.4 -4.1,0.6 -0.7,0.1 -1.4,0.3 -2,0.4 -0.7,0.2 -1.3,0.4 -2,0.6 1.2,-0.7 2.6,-1.2 3.9,-1.6 0.1,0 0.2,-0.1 0.3,-0.1 0,0 0,-0.1 0,-0.1 0,-0.2 -0.5,-3.8 0.3,-9 0,-0.2 0.2,-0.5 0.5,-0.5 L 25.7,27 c 0.3,-10.9 4.8,-16.1 4.9,-16.2 -4,6.5 -4,14.2 -3.9,15.9 l 8.8,-2.5 c 0,0 0,0 0,0 0,0 0.1,0 0.1,0 0,0 0,0 0,0 0,0 0.1,0 0.1,0 0,0 0,0 0,0 0,0 0.1,0 0.1,0 0,0 0,0 0,0 0,0 0.1,0 0.1,0.1 0,0 0,0 0,0 0,0 0,0 0,0 0,0 0,0 0,0 0,0 0.2,0.2 0.6,0.6 -0.1,-2.9 0,-11.2 4,-18 -0.1,0.2 -3.2,9.4 -2.1,19.6 0.3,0.3 0.7,0.6 1.1,0.8 0.2,0.1 0.3,0.3 0.3,0.5 0,0 0.1,3.3 1.5,6.1 0,0 0,0.1 0,0.1 3.6,-0.2 7.2,-0.3 10.8,-0.3 3.6,0 7.2,0.1 10.8,0.4 0,0 0,-0.1 0.1,-0.1 1.4,-2.8 1.5,-6 1.5,-6.1 0,-0.2 0.1,-0.4 0.3,-0.5 0.4,-0.2 0.7,-0.5 1.1,-0.8 C 67,16.3 63.9,7.2 63.8,7 c 3.9,6.9 4.1,15.1 4,18 0.4,-0.3 0.6,-0.6 0.6,-0.6 0,0 0,0 0,0 0,0 0,0 0,0 0,0 0,0 0,0 0,0 0.1,0 0.1,-0.1 0,0 0,0 0,0 0,0 0.1,0 0.1,0 0,0 0,0 0,0 0,0 0.1,0 0.1,0 0,0 0,0 0,0 0,0 0.1,0 0.1,0 0,0 0,0 0,0 l 8.8,2.5 c 0.1,-1.8 0.1,-9.5 -3.9,-15.9 0.1,0.2 4.6,5.3 4.9,16.2 l 1.4,0.4 c 0.2,0.1 0.4,0.3 0.5,0.5 0.9,5.2 0.4,8.9 0.3,9 0,0 0,0.1 0,0.1 0.2,-0.1 0.3,0 0.4,0 z M 79.6,36.6 C 79.7,36 80,32.8 79.3,28.5 l -9.9,-2.8 c 0.1,1.7 0.1,5.3 -0.8,8.8 0,0 0,0.1 0,0.1 0.1,0 0.2,0 0.3,0 2.8,0.3 5.6,0.8 8.3,1.4 0.7,0.2 1.6,0.4 2.4,0.6 z M 67.3,34.2 c 0.8,-3 0.9,-6.1 0.8,-7.9 -0.7,0.6 -1.5,1.4 -2.4,2 -0.1,0.9 -0.3,3.5 -1.5,6 1,0.1 2.1,0.2 3.1,0.3 0,-0.2 0,-0.3 0,-0.4 z m -27.4,0 c -1.2,-2.4 -1.4,-5 -1.5,-6 -0.9,-0.6 -1.8,-1.4 -2.4,-2 -0.1,1.8 0,4.9 0.8,7.9 0,0.1 0,0.2 0,0.3 1,0 2,-0.1 3.1,-0.2 z m -4.3,0.4 c 0,0 0,-0.1 0,-0.1 -1,-3.5 -0.9,-7.1 -0.8,-8.8 l -9.9,2.8 c -0.7,4.3 -0.4,7.5 -0.3,8.1 0.8,-0.2 1.6,-0.4 2.5,-0.6 1.4,-0.3 2.8,-0.6 4.1,-0.8 1.4,-0.2 2.8,-0.4 4.2,-0.6 0,0 0.1,0 0.2,0 z"
   id="path76" />
				<g
   id="XMLID_2_">
					<g
   id="g82">
						<path
   class="st10"
   d="m 62.5,9.2 v 8.2 H 56.7 V 15 h -1.3 v 11.1 h 2 v 6.2 H 47.1 v -6.2 h 2 V 15 h -1.3 v 2.4 H 42 V 9.2 Z m -1.8,6.4 v -4.7 h -2.5 -4.6 -9.9 v 4.7 H 46 v -2.4 h 4.8 v 14.6 h -2 v 2.7 h 6.7 v -2.7 h -2 V 13.2 h 4.8 v 2.4 z"
   id="path78" />
						<polygon
   class="st3"
   points="53.6,13.2 53.6,27.9 55.6,27.9 55.6,30.6 48.9,30.6 48.9,27.9 50.8,27.9 50.8,13.2 46,13.2 46,15.6 43.7,15.6 43.7,10.9 53.6,10.9 58.2,10.9 60.7,10.9 60.7,15.6 58.4,15.6 58.4,13.2 "
   id="polygon80" />
					</g>
				</g>
				<path
   class="st6"
   d="m 14.8,45 c 0.9,-0.2 2,-0.4 3.4,-0.7 -0.9,0.6 -1.9,1.3 -3,2.2 z"
   id="path85" />
				<path
   class="st8"
   d="m 46,67.5 c 0,0 0.2,1.5 -1.9,2.2 C 42,70.4 28.4,74.4 26.9,74.2 25.4,74 21.4,71.4 21.4,71.4 l -1,-3.4 5.8,3.6 z"
   id="path87" />
				<path
   class="st8"
   d="m 58.1,67.3 c 0,0 -0.2,1.5 2,2.1 2.2,0.6 15.9,4 17.4,3.7 C 79,72.8 82.8,70 82.8,70 l 0.8,-3.4 -5.3,3.2 z"
   id="path89" />
				<path
   class="st8"
   d="m 13.7,64.7 c 0,0 1.9,3.8 4.9,2.5 l 2.2,0.8 -0.2,1.6 -4.6,0.6 -1.2,-0.7 z"
   id="path91" />
				<path
   class="st8"
   d="m 90.6,63.7 c 0,0 -3.1,3.9 -6.1,2.6 l -1,0.6 0.2,1.6 4.6,0.6 1.2,-0.7 z"
   id="path93" />
				<path
   class="st8"
   d="m 43.1,93.2 c 0,0 11.1,5.6 23.7,-2 l -4,-0.3 c 0,0 -8.8,3.5 -15.8,1.6 z"
   id="path95" />
				<path
   class="st10"
   d="m 54.4,82.9 0.8,0.9 c 0,0 1.7,2.1 3.8,4.1 1.4,1.4 3.1,2.1 5,2.1 0.7,0 1.3,-0.1 2,-0.3 0.6,-0.2 1.4,-0.3 2.1,-0.5 2.6,-0.6 5.5,-1.3 7,-1.7 0.3,-0.1 0.6,-0.2 0.9,-0.2 1.9,-0.4 4.5,-1 5.9,-3.8 1,-2.1 2.4,-4.8 3.5,-6.7 -0.9,0.4 -1.8,0.9 -2.5,1.2 -1,0.5 -2.4,0.8 -4.1,0.8 -1,0 -2.1,-0.1 -3.2,-0.2 -2.3,-0.2 -6.1,-0.7 -6.1,-0.7 H 69.2 L 69,77.7 c 0,0 -3.4,-2.7 -6.1,-4.8 -0.1,-0.1 -0.2,-0.2 -0.3,-0.2 -0.3,-0.2 -0.3,-0.2 -0.5,-0.2 -0.9,0 -3.4,0.8 -8.9,2.5 h -0.4 l -0.3,-0.1 c 0,0 -3.7,-1.4 -8,-1.4 -0.4,0 -0.7,0 -1.1,0 -0.4,0 -2.9,1.2 -6,6.1 l -0.2,0.4 -0.4,0.1 c -0.1,0 -5.4,1.8 -11.1,3.4 L 25.3,83.6 25,83.4 c 0,0 -2.3,-1.1 -4.4,-2 1.2,1.7 2.6,3.8 3.9,5.5 2.3,2.9 5.1,5.6 10.6,5.6 0.7,0 1.4,0 2.2,-0.1 5.6,-0.6 7,-0.9 7.8,-1 0.3,0 0.5,-0.1 0.7,-0.1 0,0 4.6,-0.6 5.9,-3.5 1.3,-3 1.6,-3.7 1.6,-3.7 l 0.5,-1.2 c 0,0 0.1,-0.3 0.2,-0.4 0,0 0,0 0,0 v 0 c 0.2,0.1 0.4,0.4 0.4,0.4 z m -34.8,-56 c -1.2,0.5 -2.4,1 -3.6,1.6 -1.2,0.5 -2.3,1.1 -3.5,1.8 -1,0.6 -2,1.2 -2.9,2 0,0.2 -0.1,0.5 -0.1,0.7 0,0.3 -0.1,0.6 -0.1,1 -0.1,0.7 -0.1,1.3 -0.1,2 0,1.3 0.1,2.6 0.2,3.9 0.2,1.3 0.4,2.6 0.8,3.8 0.2,0.6 0.4,1.2 0.6,1.8 0.1,0.3 0.2,0.6 0.4,0.9 0.1,0.1 0.1,0.3 0.2,0.4 l 0.1,0.2 c 0.1,0.1 0.2,0.1 0.3,0.1 l 0.6,0.3 c 0.3,0.2 0.8,0.4 1.1,0.5 0,0 0,0 0.1,-0.1 l -1.1,-4.1 c 0.2,-0.1 2.3,-0.6 5.8,-1.3 -0.3,-0.1 -0.6,-0.1 -0.9,-0.2 -0.8,-0.2 -1.6,-0.4 -2.4,-0.8 -0.4,-0.2 -0.8,-0.3 -1.1,-0.5 -0.4,-0.2 -0.7,-0.4 -1,-0.7 3.9,1.3 11.9,0.7 19,0 6.5,-0.7 13.1,-1.1 19.6,-1.1 6.6,0 13.1,0.4 19.6,1.1 7.1,0.7 15.2,1.3 19,0 -0.3,0.3 -0.6,0.5 -1,0.7 -0.4,0.2 -0.7,0.4 -1.1,0.5 -0.8,0.3 -1.6,0.6 -2.4,0.8 -0.1,0 -0.2,0.1 -0.4,0.1 3.9,0.7 6.1,1.3 6.4,1.4 l -1,3.9 c 0.2,-0.1 0.4,-0.2 0.6,-0.3 L 91.9,47 c 0.1,0 0.2,-0.1 0.3,-0.1 l 0.1,-0.2 c 0.1,-0.1 0.1,-0.3 0.2,-0.4 0.1,-0.3 0.3,-0.6 0.4,-0.9 0.2,-0.6 0.4,-1.2 0.6,-1.8 0.4,-1.2 0.6,-2.5 0.8,-3.8 0.2,-1.3 0.3,-2.6 0.2,-3.9 0,-0.7 0,-1.3 -0.1,-2 0,-0.3 -0.1,-0.6 -0.1,-1 0,-0.2 -0.1,-0.5 -0.1,-0.7 -0.9,-0.7 -1.9,-1.4 -2.9,-2 C 90.2,29.6 89,29 87.8,28.4 86.6,27.8 85.4,27.3 84.2,26.8 83.6,26.6 83,26.3 82.4,26.1 c -0.6,-0.2 -1.2,-0.5 -1.9,-0.7 1.3,0.2 2.6,0.5 3.9,0.8 0.8,0.2 1.7,0.5 2.5,0.7 C 81.3,11.8 67.3,1.8 52,1.8 c -15.3,0 -29.3,10 -35.1,25.3 0.8,-0.3 1.7,-0.5 2.5,-0.7 1.3,-0.3 2.6,-0.6 3.9,-0.8 -0.6,0.2 -1.2,0.4 -1.9,0.7 -0.6,0.1 -1.2,0.4 -1.8,0.6 z m 77,8.9 c 0.1,1.4 0,2.8 -0.1,4.2 -0.1,1.4 -0.4,2.8 -0.8,4.2 -0.2,0.7 -0.4,1.4 -0.7,2 -0.1,0.3 -0.3,0.7 -0.4,1 -0.1,0.2 -0.2,0.3 -0.3,0.5 l -0.1,0.2 C 94.1,48 94.1,48.1 94,48.2 l -0.1,0.2 -0.2,0.1 c -0.2,0.1 -0.4,0.2 -0.6,0.3 l -0.6,0.3 c -0.4,0.2 -0.8,0.3 -1.3,0.5 -0.3,0.1 -0.6,0.2 -0.8,0.3 l -0.7,2.7 c 0,0 -0.2,-0.1 -0.6,-0.2 v 0.3 c 0.8,0.4 2.3,1.2 2.8,1.6 1,0.9 1.1,2.2 0.9,4.8 -0.1,1.3 -0.6,3.8 -1.2,6.2 -1,4 -1.6,4.5 -2.3,4.7 -0.4,0.1 -0.9,0.2 -1.5,0.2 -1.1,0 -2.6,0 -3.6,-0.2 -0.3,0.9 -1,3.3 -2.4,6.3 0.1,0 0.1,-0.1 0.2,-0.1 1.8,-0.9 5.2,-2.4 5.4,-2.5 l 2.7,-1.2 -1.4,2.6 c 0,0.1 -3,5.7 -4.9,9.4 -1.8,3.6 -5.2,4.4 -7.3,4.9 -0.3,0.1 -0.6,0.1 -0.8,0.2 -1.5,0.4 -4.4,1.1 -7.1,1.8 0,0 -0.1,0 -0.1,0 -1.6,1 -3.4,1.9 -5.3,2.6 -7,2.7 -14.5,2.5 -21.2,0 -1.1,0.1 -2.5,0.3 -4.4,0.5 -0.8,0.1 -1.6,0.1 -2.4,0.1 -6.4,0 -9.8,-3.3 -12.3,-6.4 -2.7,-3.4 -5.9,-8.5 -6,-8.7 L 15,76.6 18.2,78 c 1.5,0.7 6.1,2.8 7.3,3.4 0.1,0 0.2,-0.1 0.3,-0.1 -2.2,-3.1 -3.9,-6.6 -5.2,-10.5 -1.1,0.3 -2.7,0.6 -4,0.6 -0.5,0 -0.9,0 -1.2,-0.1 -0.7,-0.2 -1.5,-0.8 -2.6,-4.7 -0.6,-2.3 -1.1,-4.7 -1.3,-6 -0.3,-2.5 -0.2,-3.8 0.8,-4.7 0.6,-0.5 2.7,-1.6 3.1,-1.8 L 15.3,53.3 C 8.7,57.2 4.7,60.7 4.6,60.7 L 0,64.9 3.4,59.6 c 2.7,-4.2 5.8,-7.7 8.6,-10.3 -0.1,0 -0.2,-0.1 -0.3,-0.1 L 11,48.9 C 10.8,48.8 10.6,48.7 10.4,48.6 L 10.2,48.5 10,48.2 C 9.9,48.1 9.9,48 9.8,47.9 L 9.7,47.7 C 9.6,47.5 9.5,47.4 9.4,47.2 9.2,46.9 9.1,46.5 9,46.2 8.7,45.5 8.5,44.9 8.3,44.2 8,42.8 7.7,41.4 7.6,40 7.4,38.6 7.4,37.2 7.5,35.8 7.5,35.1 7.6,34.4 7.7,33.7 7.8,33.3 7.8,33 7.9,32.7 8,32.3 8,32 8.2,31.6 l 0.1,-0.3 0.2,-0.2 c 1.1,-0.9 2.3,-1.5 3.5,-2.1 1,-0.5 2,-0.9 3,-1.3 2.9,-8 7.8,-15 14.3,-20 C 35.9,2.7 43.8,0 52,0 c 8.2,0 16.1,2.7 22.8,7.8 6.5,4.9 11.4,12 14.3,20 1,0.4 2,0.8 3.1,1.3 1.2,0.6 2.4,1.2 3.5,2.1 l 0.2,0.2 0.1,0.3 c 0.1,0.4 0.2,0.7 0.2,1.1 0.1,0.3 0.1,0.7 0.2,1 0.1,0.6 0.2,1.3 0.2,2 z M 90.8,59 c 0.2,-2.4 0,-3 -0.2,-3.2 -0.2,-0.2 -1.1,-0.7 -1.9,-1.1 l -1.3,9.4 c 0,0.2 -0.1,0.3 -0.3,0.5 l -1.9,1.3 C 85,66.7 85,67 84.8,67.8 c 1.1,0.3 2.9,0.5 3.8,0.3 0.7,-0.9 2,-6.1 2.2,-9.1 z M 88.3,50.5 89.7,45 c -2.1,-0.5 -5.9,-1.3 -11.2,-2 -2.7,1.9 -5.6,3.5 -8.5,4.7 8.9,0.8 15.4,2.1 18.3,2.8 z M 86.1,63.6 87.7,52.2 C 87,52 86,51.8 84.9,51.6 L 83.5,62 c 0,0.2 -0.1,0.4 -0.3,0.5 l -5.5,3.9 c -0.1,0.1 -0.3,0.1 -0.5,0.1 L 60.5,64.6 c -0.3,0 -0.5,-0.2 -0.6,-0.5 l -3,-9.9 C 56.1,54 54,53.5 52.2,53.5 c -1.8,0 -3.9,0.5 -4.7,0.7 l -3,9.9 c -0.1,0.2 -0.2,0.3 -0.3,0.4 -0.1,0 -0.1,0 -0.2,0.1 l -16.7,3.7 c -0.1,0 -0.1,0 -0.1,0 -0.1,0 -0.3,0 -0.4,-0.1 L 21.3,64.3 C 21.1,64.2 21,64 21,63.8 L 19.5,51.7 c -0.6,0.1 -1.2,0.2 -1.7,0.3 -0.4,0.2 -0.7,0.4 -1.1,0.6 l 1.6,12.8 8.1,5.6 20.3,-4.5 3,-9.9 c 0.1,-0.2 0.3,-0.4 0.5,-0.5 0.8,-0.1 1.4,-0.2 2,-0.2 0.6,0 1.2,0.1 2,0.2 0.3,0 0.5,0.2 0.5,0.5 l 3.1,10.1 20.4,2.3 z m -3.9,-2.1 1.4,-10.1 c -4.1,-0.7 -10,-1.6 -17.3,-2.2 -6.6,2.3 -12.1,3 -12.5,3 h -0.4 c 2.1,0.2 4.1,0.7 4.2,0.8 0.2,0.1 0.4,0.2 0.5,0.5 l 3,9.8 16,1.8 z m 1.1,5.7 -0.7,0.5 -1.8,1.3 -2,1.4 c -0.1,0.1 -0.3,0.1 -0.5,0.1 L 58.6,68.3 57.2,68.1 c -0.3,0 -0.5,-0.2 -0.6,-0.5 L 53.5,57.5 c -0.5,-0.1 -1,-0.1 -1.4,-0.1 -0.4,0 -0.8,0 -1.4,0.1 l -3,9.9 c -0.1,0.2 -0.3,0.4 -0.5,0.5 l -21,4.7 c 0,0 -0.1,0 -0.1,0 -0.1,0 -0.3,0 -0.4,-0.1 L 24.9,72 22.6,70.4 v 0 l -0.9,-0.6 c 0.1,0.2 0.1,0.4 0.2,0.6 v 0 c 0.2,0.5 1.9,5.6 5.5,10.6 3.9,-1.1 7.2,-2.2 8.2,-2.5 2.2,-3.3 5.3,-6.7 7.5,-6.8 0.4,0 0.8,0 1.2,0 1.1,0 2.1,0.1 3,0.2 -0.8,-0.7 -1,-1.6 -1.1,-2 0,0 2.8,2.2 6.4,1.7 3.6,-0.5 5.8,-2.5 5.8,-2.5 0,0 0,1.5 -1.6,2.7 3,-0.9 4.2,-1.2 5.1,-1.2 0.9,0 1.4,0.4 1.8,0.7 0.1,0.1 0.2,0.1 0.2,0.2 2.3,1.8 5.1,4 5.9,4.6 0.9,0.1 3.9,0.4 5.8,0.6 1.1,0.1 2.1,0.2 3,0.2 0.3,0 0.6,0 0.9,0 1.2,-2.4 2.3,-5 3.3,-8 0.2,-0.8 0.4,-1.2 0.5,-1.7 z M 76,42.3 c 0,0 0,0 0,0 -1.6,-0.1 -3.2,-0.2 -4.8,-0.3 -2.2,-0.1 -4.4,-0.2 -6.6,-0.3 -0.1,0.2 -0.4,0.6 -0.8,1.1 -1.2,1.6 -3.6,4.6 -6.6,7.1 4.3,-0.8 11.8,-2.7 18.3,-7.2 0.2,-0.2 0.4,-0.3 0.5,-0.4 z m -14.4,0.4 c 0.2,-0.2 0.4,-0.4 0.5,-0.6 -1.6,0.2 -3.1,0.4 -4.7,0.7 -5.2,1 -10.1,2.6 -14.1,4.3 2.8,-0.1 5.8,-0.2 9,-0.2 1.9,0 3.7,0 5.5,0.1 1.5,-1.6 2.8,-3.1 3.8,-4.3 z m 1.7,49.4 c -2.2,-0.2 -4.2,-1.1 -5.8,-2.6 -0.1,-0.1 -0.2,-0.2 -0.2,-0.2 -0.8,0.2 -1.6,0.3 -2.4,0.3 -0.3,0 -0.7,0 -1,0 h -0.5 -0.2 c -2.1,3.2 -6.8,3.8 -7.1,3.8 -0.2,0 -0.4,0 -0.6,0.1 2.6,0.7 5.3,1 8,0.9 2.7,-0.3 6.2,-0.9 9.8,-2.3 z m -8.4,-3.6 c 0.5,0 1,-0.1 1.5,-0.2 -0.7,-0.7 -1.3,-1.3 -1.7,-1.9 -0.2,0.5 -0.5,1.2 -0.9,2.1 h 0.1 c 0.3,0 0.7,0 1,0 z m -1.6,-38 c 0.9,-0.5 1.7,-1.1 2.5,-1.8 -1.2,0 -2.3,0 -3.5,0 -4.9,0 -9.5,0.2 -13.6,0.5 -4.2,2 -6.7,3.7 -6.8,3.8 l -4,2.7 2.7,-3.9 c 0.5,-0.7 0.9,-1.3 1.4,-1.9 -4.6,0.5 -8.4,1.1 -11.3,1.7 l 1.5,11.9 5.1,3.5 16,-3.6 3,-9.9 c 0.1,-0.2 0.2,-0.3 0.3,-0.4 0,0 0.1,-0.1 0.2,-0.1 0.1,0 1.7,-0.5 3.5,-0.7 z m 1.8,-9.1 c -1.1,0 -2.2,0 -3.4,0 v 0 c -1.6,0 -3.3,0 -4.9,0.1 l -3,1.4 c 0,0 0,0 0,0 -0.5,0.2 -4.4,2.2 -8.2,5.8 3.4,-1.8 8.3,-4.1 14.1,-5.9 1.7,-0.5 3.5,-1 5.4,-1.4 z m -21.2,6.3 c 1.6,-1.6 3.2,-2.8 4.6,-3.9 -5.5,1.3 -10.6,3.2 -15,5.2 2.9,-0.4 6.4,-0.9 10.4,-1.3 z M 35,42.9 c 1.8,-0.5 3.8,-1 5.7,-1.4 -2.8,0.1 -5.6,0.2 -8.4,0.4 -1.6,0.1 -3.2,0.2 -4.9,0.3 -0.8,0.1 -1.6,0.1 -2.4,0.2 -0.2,0 -0.5,0 -0.7,0.1 -2.1,1.3 -10.2,6.3 -15.8,13 C 14,51.8 23.4,46.2 35,42.9 Z M 20.1,69.1 C 20,68.8 19.9,68.4 19.8,68.1 L 17.3,66.4 C 17.1,66.3 17,66.1 17,65.9 L 15.8,56 c -0.9,0.5 -1.9,1.1 -2.2,1.3 -0.2,0.2 -0.4,0.7 -0.2,3.1 0.3,2.9 1.8,8.4 2.6,9.2 0.9,0.1 3.1,-0.2 4.1,-0.5 z M 18.2,44.3 c -1.4,0.3 -2.6,0.5 -3.4,0.7 l 0.4,1.5 c 1.2,-0.9 2.2,-1.6 3,-2.2 z"
   id="path97" />
			</g>
		</g>
	</g>
<metadata
   id="metadata484"><rdf:RDF><cc:Work
       rdf:about=""><dc:title>16651-Lansa-Media-300px</dc:title></cc:Work></rdf:RDF></metadata></svg>
