<?xml version="1.0" encoding="UTF-8" standalone="no"?>
<svg
   width="666.66406pt"
   height="666.66406pt"
   viewBox="0 0 666.66406 666.66406"
   version="1.2"
   id="svg7"
   xmlns="http://www.w3.org/2000/svg"
   xmlns:svg="http://www.w3.org/2000/svg">
  <defs
     id="defs11" />
  <g
     id="surface1"
     transform="translate(-166.66797,-166.66797)">
    <path
       style="fill:#30353a;fill-opacity:1;fill-rule:nonzero;stroke:none"
       d="M 500,166.66797 C 315.90625,166.66797 166.66797,315.90625 166.66797,500 166.66797,684.09375 315.90625,833.33203 500,833.33203 684.09375,833.33203 833.33203,684.09375 833.33203,500 833.33203,315.90625 684.09375,166.66797 500,166.66797 m 0,20 c 42.30859,0 83.33984,8.28125 121.95703,24.61328 18.5625,7.85156 36.46875,17.57031 53.21875,28.88672 16.59375,11.21094 32.19922,24.08594 46.38281,38.27344 14.1836,14.18359 27.0625,29.78906 38.27344,46.38281 11.31641,16.75 21.03516,34.65625 28.88672,53.21875 16.33203,38.61719 24.61328,79.64844 24.61328,121.95703 0,42.30859 -8.28125,83.33984 -24.61328,121.95703 -7.85156,18.5625 -17.57031,36.46484 -28.88672,53.21484 -11.21094,16.59766 -24.08984,32.20313 -38.27344,46.38672 -14.18359,14.1836 -29.78906,27.0625 -46.38281,38.27344 -16.75,11.31641 -34.65625,21.03516 -53.21875,28.88672 -38.61719,16.33203 -79.64844,24.61328 -121.95703,24.61328 -42.30859,0 -83.33984,-8.28125 -121.95703,-24.61328 -18.5625,-7.85156 -36.46875,-17.57031 -53.21875,-28.88672 -16.59375,-11.21094 -32.19922,-24.08984 -46.38281,-38.27344 -14.1836,-14.18359 -27.0625,-29.78906 -38.27344,-46.38672 -11.31641,-16.75 -21.03516,-34.65234 -28.88672,-53.21484 C 194.94922,583.33984 186.66797,542.30859 186.66797,500 c 0,-42.30859 8.28125,-83.33984 24.61328,-121.95703 7.85156,-18.5625 17.57031,-36.46875 28.88672,-53.21875 11.21094,-16.59375 24.08984,-32.19922 38.27344,-46.38281 14.18359,-14.1875 29.78906,-27.0625 46.38281,-38.27344 16.75,-11.31641 34.65625,-21.03516 53.21875,-28.88672 C 416.66016,194.94922 457.69141,186.66797 500,186.66797"
       id="path2" />
    <path
       style="fill:#30353a;fill-opacity:1;fill-rule:nonzero;stroke:none"
       d="m 743.75781,366.73047 c 1.19531,8.84765 1.86719,18.33984 1.86719,28.5625 0,28.17578 -5.27734,59.86328 -21.12891,99.49219 l -84.83984,245.29687 c 82.58594,-48.14844 138.12109,-137.61719 138.12109,-240.09375 0,-48.29297 -12.33984,-93.69531 -34.01953,-133.25781 m -238.8789,157.55469 -83.35547,242.17578 c 24.89453,7.32422 51.21093,11.3164 78.47656,11.3164 32.34766,0 63.37891,-5.58203 92.25,-15.75 -0.74219,-1.1875 -1.42969,-2.44922 -1.99219,-3.82812 z m 182.64453,-38.30469 c 0,-34.33985 -12.33594,-58.10938 -22.89844,-76.60547 -14.08203,-22.89063 -27.28906,-42.25781 -27.28906,-65.14844 0,-25.53125 19.36328,-49.30078 46.64843,-49.30078 1.23438,0 2.39844,0.14844 3.59766,0.22656 C 638.16016,249.87109 572.31641,222.22266 500,222.22266 c -97.04688,0 -182.42188,49.79296 -232.08984,125.19531 6.51953,0.20703 12.66796,0.33984 17.875,0.33984 29.05078,0 74.03515,-3.53125 74.03515,-3.53125 14.96875,-0.8789 16.73438,21.1211 1.77735,22.89063 0,0 -15.05469,1.76172 -31.78907,2.63672 l 101.14844,300.88671 60.79688,-182.3125 -43.27344,-118.57421 c -14.96485,-0.875 -29.13281,-2.63672 -29.13281,-2.63672 -14.97657,-0.88672 -13.22266,-23.76953 1.76171,-22.89063 0,0 45.86329,3.53125 73.15625,3.53125 29.04688,0 74.03907,-3.53125 74.03907,-3.53125 14.97656,-0.8789 16.73828,21.1211 1.77343,22.89063 0,0 -15.07031,1.76172 -31.79296,2.63672 l 100.38671,298.59375 28.65625,-90.80079 c 12.73047,-39.68359 20.19532,-67.79687 20.19532,-91.5664 m -465.30078,14.00781 c 0,109.94531 63.89062,204.96875 156.55859,249.98828 L 246.27344,386.94531 c -15.41016,34.54297 -24.05078,72.77344 -24.05078,113.04297"
       id="path4" />
  </g>
</svg>
